<svg width="161" height="20" viewBox="0 0 161 20" fill="none" xmlns="http://www.w3.org/2000/svg">
<mask id="path-1-outside-1_88_2" maskUnits="userSpaceOnUse" x="-1" y="-1" width="163" height="22" fill="black">
<rect fill="white" x="-1" y="-1" width="163" height="22"/>
<path d="M10.7983 13.043H14.7534C14.6883 14.2637 14.3547 15.342 13.7524 16.2778C13.1584 17.2056 12.3324 17.9339 11.2744 18.4629C10.2165 18.9837 8.95915 19.2441 7.50244 19.2441C6.3387 19.2441 5.29704 19.0448 4.37744 18.646C3.45785 18.2472 2.6766 17.6776 2.03369 16.937C1.39893 16.1883 0.910645 15.2891 0.568848 14.2393C0.235189 13.1813 0.0683594 11.9891 0.0683594 10.6626V9.57617C0.0683594 8.24967 0.243327 7.05745 0.593262 5.99951C0.943197 4.94157 1.44368 4.03825 2.09473 3.28955C2.74577 2.54085 3.52702 1.96712 4.43848 1.56836C5.34993 1.1696 6.36719 0.970215 7.49023 0.970215C9.00391 0.970215 10.2816 1.24284 11.3232 1.78809C12.3649 2.33333 13.1706 3.08203 13.7402 4.03418C14.318 4.98633 14.6639 6.07275 14.7778 7.29346H10.8105C10.778 6.60173 10.6478 6.01986 10.4199 5.54785C10.1921 5.06771 9.84212 4.70557 9.37012 4.46143C8.89811 4.21729 8.27148 4.09521 7.49023 4.09521C6.92057 4.09521 6.42008 4.20101 5.98877 4.4126C5.56559 4.62419 5.21159 4.95378 4.92676 5.40137C4.65007 5.84896 4.44255 6.41862 4.3042 7.11035C4.16585 7.79395 4.09668 8.60775 4.09668 9.55176V10.6626C4.09668 11.5985 4.15771 12.4082 4.27979 13.0918C4.40186 13.7754 4.59717 14.341 4.86572 14.7886C5.14242 15.2362 5.49642 15.5698 5.92773 15.7896C6.35905 16.0093 6.88395 16.1191 7.50244 16.1191C8.21045 16.1191 8.80046 16.0093 9.27246 15.7896C9.74447 15.5617 10.1066 15.2199 10.3589 14.7642C10.6112 14.3084 10.7576 13.7347 10.7983 13.043ZM20.5884 8.86816V19H16.7798V5.79199H20.3564L20.5884 8.86816ZM24.5312 5.69434L24.4702 9.24658C24.3075 9.22217 24.0959 9.20182 23.8354 9.18555C23.575 9.16113 23.3512 9.14893 23.1641 9.14893C22.6758 9.14893 22.2526 9.20996 21.8945 9.33203C21.5446 9.44596 21.2516 9.61686 21.0156 9.84473C20.7878 10.0726 20.6169 10.3574 20.5029 10.6992C20.389 11.0329 20.332 11.4194 20.332 11.8589L19.6118 11.5049C19.6118 10.6341 19.6973 9.83659 19.8682 9.1123C20.0391 8.38802 20.2873 7.76139 20.6128 7.23242C20.9383 6.69531 21.3371 6.28027 21.8091 5.9873C22.2811 5.69434 22.8182 5.54785 23.4204 5.54785C23.6157 5.54785 23.8151 5.56006 24.0186 5.58447C24.222 5.60889 24.3929 5.64551 24.5312 5.69434ZM30.1099 5.79199V19H26.2891V5.79199H30.1099ZM26.0571 2.37402C26.0571 1.82064 26.2524 1.36898 26.6431 1.01904C27.0337 0.66097 27.5464 0.481934 28.1812 0.481934C28.8159 0.481934 29.3286 0.66097 29.7192 1.01904C30.118 1.36898 30.3174 1.82064 30.3174 2.37402C30.3174 2.91927 30.118 3.37093 29.7192 3.729C29.3286 4.07894 28.8159 4.25391 28.1812 4.25391C27.5464 4.25391 27.0337 4.07894 26.6431 3.729C26.2524 3.37093 26.0571 2.91927 26.0571 2.37402ZM39.082 19.2441C38.0322 19.2441 37.0923 19.0773 36.2622 18.7437C35.4321 18.41 34.7282 17.9502 34.1504 17.3643C33.5807 16.7702 33.1453 16.0866 32.8442 15.3135C32.5431 14.5404 32.3926 13.7144 32.3926 12.8354V12.3716C32.3926 11.3869 32.5309 10.4795 32.8076 9.64941C33.0843 8.81934 33.4871 8.09912 34.0161 7.48877C34.5532 6.87028 35.2124 6.39421 35.9937 6.06055C36.7749 5.71875 37.666 5.54785 38.667 5.54785C39.6029 5.54785 40.437 5.70247 41.1694 6.01172C41.9019 6.31283 42.5203 6.74821 43.0249 7.31787C43.5295 7.87939 43.9119 8.55892 44.1724 9.35645C44.4409 10.1458 44.5752 11.0329 44.5752 12.0176V13.5801H33.9307V11.1265H40.8398V10.8335C40.8398 10.3696 40.7544 9.96273 40.5835 9.61279C40.4207 9.26286 40.1766 8.9943 39.8511 8.80713C39.5337 8.61182 39.1309 8.51416 38.6426 8.51416C38.1787 8.51416 37.7922 8.61182 37.4829 8.80713C37.1737 9.00244 36.9255 9.27913 36.7383 9.63721C36.5592 9.98714 36.429 10.3981 36.3477 10.8701C36.2663 11.334 36.2256 11.8345 36.2256 12.3716V12.8354C36.2256 13.3481 36.2948 13.8161 36.4331 14.2393C36.5715 14.6624 36.7749 15.0246 37.0435 15.3257C37.312 15.6268 37.6375 15.8628 38.02 16.0337C38.4025 16.2046 38.8379 16.29 39.3262 16.29C39.9284 16.29 40.5021 16.1761 41.0474 15.9482C41.5926 15.7122 42.0646 15.346 42.4634 14.8496L44.2456 16.8882C43.9771 17.2788 43.5986 17.6572 43.1104 18.0234C42.6302 18.3815 42.0524 18.6745 41.377 18.9023C40.7015 19.1302 39.9365 19.2441 39.082 19.2441ZM59.6875 15.3257C59.6875 15.0815 59.6102 14.8659 59.4556 14.6787C59.3091 14.4915 59.0405 14.3206 58.6499 14.166C58.2674 14.0114 57.7262 13.8568 57.0264 13.7021C56.3672 13.5638 55.7528 13.3848 55.1831 13.165C54.6134 12.9372 54.117 12.6646 53.6938 12.3472C53.2707 12.0216 52.9411 11.6392 52.7051 11.1997C52.4691 10.7521 52.3511 10.2435 52.3511 9.67383C52.3511 9.12044 52.4691 8.59554 52.7051 8.09912C52.9492 7.6027 53.2992 7.16325 53.7549 6.78076C54.2188 6.39827 54.7803 6.09717 55.4395 5.87744C56.1068 5.65771 56.8636 5.54785 57.71 5.54785C58.8737 5.54785 59.8787 5.73096 60.7251 6.09717C61.5715 6.45524 62.2225 6.9598 62.6782 7.61084C63.134 8.25374 63.3618 8.99023 63.3618 9.82031H59.5532C59.5532 9.47852 59.4881 9.18148 59.3579 8.9292C59.2277 8.67692 59.0283 8.48161 58.7598 8.34326C58.4912 8.19678 58.1372 8.12354 57.6978 8.12354C57.356 8.12354 57.0549 8.18457 56.7944 8.30664C56.5422 8.42057 56.3428 8.57926 56.1963 8.78271C56.0579 8.98617 55.9888 9.22217 55.9888 9.49072C55.9888 9.6779 56.0295 9.8488 56.1108 10.0034C56.2004 10.1499 56.3346 10.2882 56.5137 10.4185C56.7008 10.5405 56.9409 10.6504 57.2339 10.748C57.535 10.8457 57.9012 10.9393 58.3325 11.0288C59.2521 11.1997 60.0903 11.4398 60.8472 11.749C61.6121 12.0583 62.2225 12.4855 62.6782 13.0308C63.1421 13.576 63.374 14.2962 63.374 15.1914C63.374 15.7773 63.2397 16.3145 62.9712 16.8027C62.7108 17.291 62.3324 17.7183 61.8359 18.0845C61.3395 18.4507 60.7454 18.7355 60.0537 18.939C59.362 19.1424 58.5807 19.2441 57.71 19.2441C56.4648 19.2441 55.411 19.0203 54.5483 18.5728C53.6857 18.1252 53.0347 17.5636 52.5952 16.8882C52.1639 16.2046 51.9482 15.5047 51.9482 14.7886H55.5249C55.5412 15.228 55.651 15.5861 55.8545 15.8628C56.0661 16.1395 56.3387 16.3429 56.6724 16.4731C57.006 16.5952 57.3804 16.6562 57.7954 16.6562C58.2104 16.6562 58.5563 16.5993 58.833 16.4854C59.1097 16.3714 59.3213 16.2168 59.4678 16.0215C59.6143 15.818 59.6875 15.5861 59.6875 15.3257ZM73.2495 15.814V5.79199H77.0825V19H73.4937L73.2495 15.814ZM73.6523 13.1162L74.7021 13.0918C74.7021 13.9788 74.5964 14.7967 74.3848 15.5454C74.1813 16.2941 73.8721 16.9451 73.457 17.4985C73.0501 18.0519 72.5415 18.4832 71.9312 18.7925C71.3289 19.0936 70.625 19.2441 69.8193 19.2441C69.1683 19.2441 68.5701 19.1546 68.0249 18.9756C67.4878 18.7884 67.0239 18.4995 66.6333 18.1089C66.2427 17.7101 65.9416 17.2015 65.73 16.583C65.5184 15.9564 65.4126 15.2077 65.4126 14.3369V5.79199H69.2212V14.3613C69.2212 14.7031 69.2619 14.9961 69.3433 15.2402C69.4328 15.4762 69.5508 15.6715 69.6973 15.8262C69.8519 15.9808 70.0391 16.0947 70.2588 16.168C70.4867 16.2412 70.7349 16.2778 71.0034 16.2778C71.6789 16.2778 72.2078 16.1395 72.5903 15.8628C72.981 15.578 73.2536 15.1995 73.4082 14.7275C73.571 14.2474 73.6523 13.7103 73.6523 13.1162ZM86.5552 15.8506V10.1865C86.5552 9.78776 86.4941 9.44596 86.3721 9.16113C86.25 8.8763 86.0588 8.65251 85.7983 8.48975C85.5379 8.32699 85.2002 8.24561 84.7852 8.24561C84.4352 8.24561 84.13 8.30664 83.8696 8.42871C83.6174 8.55078 83.422 8.72575 83.2837 8.95361C83.1535 9.18148 83.0884 9.46224 83.0884 9.7959H79.2798C79.2798 9.20182 79.4141 8.64844 79.6826 8.13574C79.9512 7.62305 80.3337 7.17139 80.8301 6.78076C81.3346 6.39014 81.9368 6.08903 82.6367 5.87744C83.3366 5.65771 84.1219 5.54785 84.9927 5.54785C86.0262 5.54785 86.9458 5.72282 87.7515 6.07275C88.5653 6.41455 89.2082 6.93132 89.6802 7.62305C90.1522 8.30664 90.3882 9.16927 90.3882 10.2109V15.7407C90.3882 16.5382 90.4329 17.1649 90.5225 17.6206C90.6201 18.0682 90.7585 18.4588 90.9375 18.7925V19H87.0923C86.9132 18.6175 86.779 18.1455 86.6895 17.584C86.5999 17.0143 86.5552 16.4365 86.5552 15.8506ZM87.0312 10.9434L87.0557 13.043H85.1636C84.7404 13.043 84.3742 13.0959 84.0649 13.2017C83.7638 13.3075 83.5197 13.4539 83.3325 13.6411C83.1453 13.8201 83.007 14.0317 82.9175 14.2759C82.8361 14.5119 82.7954 14.7723 82.7954 15.0571C82.7954 15.3257 82.8605 15.5698 82.9907 15.7896C83.1209 16.0011 83.3 16.168 83.5278 16.29C83.7557 16.4121 84.0202 16.4731 84.3213 16.4731C84.8177 16.4731 85.2409 16.3755 85.5908 16.1802C85.9489 15.9849 86.2256 15.7489 86.4209 15.4722C86.6162 15.1873 86.7139 14.9229 86.7139 14.6787L87.6294 16.2656C87.4829 16.5911 87.3039 16.9289 87.0923 17.2788C86.8807 17.6206 86.6121 17.9421 86.2866 18.2432C85.9611 18.5361 85.5664 18.7762 85.1025 18.9634C84.6468 19.1506 84.0975 19.2441 83.4546 19.2441C82.6245 19.2441 81.8717 19.0773 81.1963 18.7437C80.5208 18.4019 79.9797 17.9339 79.5728 17.3398C79.174 16.7458 78.9746 16.0622 78.9746 15.2891C78.9746 14.5973 79.1007 13.9829 79.353 13.4458C79.6053 12.9087 79.9837 12.453 80.4883 12.0786C81.001 11.7043 81.6439 11.4235 82.417 11.2363C83.1901 11.041 84.0934 10.9434 85.127 10.9434H87.0312ZM104.634 16.2778C105.041 16.2778 105.395 16.2005 105.696 16.0459C105.997 15.8913 106.229 15.6756 106.392 15.3989C106.562 15.1141 106.648 14.7723 106.648 14.3735H110.237C110.237 15.3338 109.989 16.1802 109.492 16.9126C109.004 17.645 108.345 18.2188 107.515 18.6338C106.685 19.0407 105.749 19.2441 104.707 19.2441C103.682 19.2441 102.786 19.0773 102.021 18.7437C101.257 18.4019 100.618 17.9258 100.105 17.3154C99.5923 16.7051 99.2057 15.9971 98.9453 15.1914C98.693 14.3776 98.5669 13.4987 98.5669 12.5547V12.2373C98.5669 11.3014 98.693 10.4266 98.9453 9.61279C99.2057 8.79899 99.5923 8.08691 100.105 7.47656C100.618 6.86621 101.252 6.39421 102.009 6.06055C102.774 5.71875 103.669 5.54785 104.695 5.54785C105.777 5.54785 106.733 5.75537 107.563 6.17041C108.402 6.58545 109.057 7.18359 109.529 7.96484C110.001 8.73796 110.237 9.66976 110.237 10.7603H106.648C106.648 10.3371 106.571 9.95866 106.416 9.625C106.27 9.2832 106.042 9.01465 105.732 8.81934C105.431 8.61589 105.057 8.51416 104.609 8.51416C104.146 8.51416 103.763 8.61589 103.462 8.81934C103.169 9.01465 102.945 9.28727 102.791 9.63721C102.636 9.98714 102.53 10.3859 102.473 10.8335C102.416 11.2729 102.388 11.7409 102.388 12.2373V12.5547C102.388 13.0592 102.416 13.5394 102.473 13.9951C102.53 14.4427 102.636 14.8374 102.791 15.1792C102.953 15.521 103.181 15.7896 103.474 15.9849C103.767 16.1802 104.154 16.2778 104.634 16.2778ZM111.58 12.5303V12.2739C111.58 11.3055 111.718 10.4144 111.995 9.60059C112.271 8.77865 112.678 8.06657 113.215 7.46436C113.752 6.86214 114.412 6.39421 115.193 6.06055C115.974 5.71875 116.869 5.54785 117.878 5.54785C118.904 5.54785 119.807 5.71875 120.588 6.06055C121.378 6.39421 122.041 6.86214 122.578 7.46436C123.115 8.06657 123.522 8.77865 123.799 9.60059C124.076 10.4144 124.214 11.3055 124.214 12.2739V12.5303C124.214 13.4906 124.076 14.3817 123.799 15.2036C123.522 16.0174 123.115 16.7295 122.578 17.3398C122.041 17.9421 121.382 18.41 120.601 18.7437C119.819 19.0773 118.92 19.2441 117.903 19.2441C116.894 19.2441 115.994 19.0773 115.205 18.7437C114.416 18.41 113.752 17.9421 113.215 17.3398C112.678 16.7295 112.271 16.0174 111.995 15.2036C111.718 14.3817 111.58 13.4906 111.58 12.5303ZM115.4 12.2739V12.5303C115.4 13.0511 115.441 13.5394 115.522 13.9951C115.612 14.4508 115.754 14.8496 115.95 15.1914C116.145 15.5332 116.401 15.8018 116.719 15.9971C117.044 16.1842 117.439 16.2778 117.903 16.2778C118.367 16.2778 118.757 16.1842 119.075 15.9971C119.392 15.8018 119.648 15.5332 119.844 15.1914C120.039 14.8496 120.177 14.4508 120.259 13.9951C120.348 13.5394 120.393 13.0511 120.393 12.5303V12.2739C120.393 11.7612 120.348 11.2811 120.259 10.8335C120.177 10.3778 120.039 9.97493 119.844 9.625C119.648 9.27507 119.388 9.00244 119.062 8.80713C118.745 8.61182 118.35 8.51416 117.878 8.51416C117.423 8.51416 117.036 8.61182 116.719 8.80713C116.401 9.00244 116.145 9.27507 115.95 9.625C115.754 9.97493 115.612 10.3778 115.522 10.8335C115.441 11.2811 115.4 11.7612 115.4 12.2739ZM129.951 8.61182V19H126.13V5.79199H129.719L129.951 8.61182ZM129.451 11.9321L128.499 11.9565C128.499 10.9637 128.621 10.0726 128.865 9.2832C129.109 8.49382 129.455 7.82243 129.902 7.26904C130.358 6.70752 130.899 6.28027 131.526 5.9873C132.161 5.69434 132.861 5.54785 133.625 5.54785C134.244 5.54785 134.81 5.63737 135.322 5.81641C135.835 5.99544 136.274 6.28434 136.641 6.68311C137.015 7.07373 137.3 7.59456 137.495 8.24561C137.69 8.88851 137.788 9.68197 137.788 10.626V19H133.955V10.6138C133.955 10.0604 133.878 9.63314 133.723 9.33203C133.569 9.03092 133.341 8.81934 133.04 8.69727C132.747 8.5752 132.389 8.51416 131.965 8.51416C131.518 8.51416 131.135 8.60368 130.818 8.78271C130.5 8.95361 130.24 9.19368 130.037 9.50293C129.833 9.81217 129.683 10.1743 129.585 10.5894C129.495 11.0044 129.451 11.452 129.451 11.9321ZM146.992 5.79199V8.46533H139.155V5.79199H146.992ZM140.95 2.52051H144.771V14.8618C144.771 15.228 144.815 15.5088 144.905 15.7041C144.994 15.8994 145.141 16.0378 145.344 16.1191C145.548 16.1924 145.808 16.229 146.125 16.229C146.353 16.229 146.549 16.2209 146.711 16.2046C146.874 16.1883 147.025 16.168 147.163 16.1436V18.9023C146.838 19.0081 146.492 19.0895 146.125 19.1465C145.759 19.2116 145.361 19.2441 144.929 19.2441C144.107 19.2441 143.395 19.1099 142.793 18.8413C142.199 18.5728 141.743 18.1496 141.426 17.5718C141.108 16.9858 140.95 16.2249 140.95 15.2891V2.52051ZM155.818 15.8506V10.1865C155.818 9.78776 155.757 9.44596 155.635 9.16113C155.513 8.8763 155.321 8.65251 155.061 8.48975C154.801 8.32699 154.463 8.24561 154.048 8.24561C153.698 8.24561 153.393 8.30664 153.132 8.42871C152.88 8.55078 152.685 8.72575 152.546 8.95361C152.416 9.18148 152.351 9.46224 152.351 9.7959H148.542C148.542 9.20182 148.677 8.64844 148.945 8.13574C149.214 7.62305 149.596 7.17139 150.093 6.78076C150.597 6.39014 151.2 6.08903 151.899 5.87744C152.599 5.65771 153.385 5.54785 154.255 5.54785C155.289 5.54785 156.208 5.72282 157.014 6.07275C157.828 6.41455 158.471 6.93132 158.943 7.62305C159.415 8.30664 159.651 9.16927 159.651 10.2109V15.7407C159.651 16.5382 159.696 17.1649 159.785 17.6206C159.883 18.0682 160.021 18.4588 160.2 18.7925V19H156.355C156.176 18.6175 156.042 18.1455 155.952 17.584C155.863 17.0143 155.818 16.4365 155.818 15.8506ZM156.294 10.9434L156.318 13.043H154.426C154.003 13.043 153.637 13.0959 153.328 13.2017C153.027 13.3075 152.782 13.4539 152.595 13.6411C152.408 13.8201 152.27 14.0317 152.18 14.2759C152.099 14.5119 152.058 14.7723 152.058 15.0571C152.058 15.3257 152.123 15.5698 152.253 15.7896C152.384 16.0011 152.563 16.168 152.791 16.29C153.018 16.4121 153.283 16.4731 153.584 16.4731C154.08 16.4731 154.504 16.3755 154.854 16.1802C155.212 15.9849 155.488 15.7489 155.684 15.4722C155.879 15.1873 155.977 14.9229 155.977 14.6787L156.892 16.2656C156.746 16.5911 156.567 16.9289 156.355 17.2788C156.143 17.6206 155.875 17.9421 155.549 18.2432C155.224 18.5361 154.829 18.7762 154.365 18.9634C153.91 19.1506 153.36 19.2441 152.717 19.2441C151.887 19.2441 151.134 19.0773 150.459 18.7437C149.784 18.4019 149.242 17.9339 148.835 17.3398C148.437 16.7458 148.237 16.0622 148.237 15.2891C148.237 14.5973 148.363 13.9829 148.616 13.4458C148.868 12.9087 149.246 12.453 149.751 12.0786C150.264 11.7043 150.907 11.4235 151.68 11.2363C152.453 11.041 153.356 10.9434 154.39 10.9434H156.294Z"/>
</mask>
<path d="M10.7983 13.043H14.7534C14.6883 14.2637 14.3547 15.342 13.7524 16.2778C13.1584 17.2056 12.3324 17.9339 11.2744 18.4629C10.2165 18.9837 8.95915 19.2441 7.50244 19.2441C6.3387 19.2441 5.29704 19.0448 4.37744 18.646C3.45785 18.2472 2.6766 17.6776 2.03369 16.937C1.39893 16.1883 0.910645 15.2891 0.568848 14.2393C0.235189 13.1813 0.0683594 11.9891 0.0683594 10.6626V9.57617C0.0683594 8.24967 0.243327 7.05745 0.593262 5.99951C0.943197 4.94157 1.44368 4.03825 2.09473 3.28955C2.74577 2.54085 3.52702 1.96712 4.43848 1.56836C5.34993 1.1696 6.36719 0.970215 7.49023 0.970215C9.00391 0.970215 10.2816 1.24284 11.3232 1.78809C12.3649 2.33333 13.1706 3.08203 13.7402 4.03418C14.318 4.98633 14.6639 6.07275 14.7778 7.29346H10.8105C10.778 6.60173 10.6478 6.01986 10.4199 5.54785C10.1921 5.06771 9.84212 4.70557 9.37012 4.46143C8.89811 4.21729 8.27148 4.09521 7.49023 4.09521C6.92057 4.09521 6.42008 4.20101 5.98877 4.4126C5.56559 4.62419 5.21159 4.95378 4.92676 5.40137C4.65007 5.84896 4.44255 6.41862 4.3042 7.11035C4.16585 7.79395 4.09668 8.60775 4.09668 9.55176V10.6626C4.09668 11.5985 4.15771 12.4082 4.27979 13.0918C4.40186 13.7754 4.59717 14.341 4.86572 14.7886C5.14242 15.2362 5.49642 15.5698 5.92773 15.7896C6.35905 16.0093 6.88395 16.1191 7.50244 16.1191C8.21045 16.1191 8.80046 16.0093 9.27246 15.7896C9.74447 15.5617 10.1066 15.2199 10.3589 14.7642C10.6112 14.3084 10.7576 13.7347 10.7983 13.043ZM20.5884 8.86816V19H16.7798V5.79199H20.3564L20.5884 8.86816ZM24.5312 5.69434L24.4702 9.24658C24.3075 9.22217 24.0959 9.20182 23.8354 9.18555C23.575 9.16113 23.3512 9.14893 23.1641 9.14893C22.6758 9.14893 22.2526 9.20996 21.8945 9.33203C21.5446 9.44596 21.2516 9.61686 21.0156 9.84473C20.7878 10.0726 20.6169 10.3574 20.5029 10.6992C20.389 11.0329 20.332 11.4194 20.332 11.8589L19.6118 11.5049C19.6118 10.6341 19.6973 9.83659 19.8682 9.1123C20.0391 8.38802 20.2873 7.76139 20.6128 7.23242C20.9383 6.69531 21.3371 6.28027 21.8091 5.9873C22.2811 5.69434 22.8182 5.54785 23.4204 5.54785C23.6157 5.54785 23.8151 5.56006 24.0186 5.58447C24.222 5.60889 24.3929 5.64551 24.5312 5.69434ZM30.1099 5.79199V19H26.2891V5.79199H30.1099ZM26.0571 2.37402C26.0571 1.82064 26.2524 1.36898 26.6431 1.01904C27.0337 0.66097 27.5464 0.481934 28.1812 0.481934C28.8159 0.481934 29.3286 0.66097 29.7192 1.01904C30.118 1.36898 30.3174 1.82064 30.3174 2.37402C30.3174 2.91927 30.118 3.37093 29.7192 3.729C29.3286 4.07894 28.8159 4.25391 28.1812 4.25391C27.5464 4.25391 27.0337 4.07894 26.6431 3.729C26.2524 3.37093 26.0571 2.91927 26.0571 2.37402ZM39.082 19.2441C38.0322 19.2441 37.0923 19.0773 36.2622 18.7437C35.4321 18.41 34.7282 17.9502 34.1504 17.3643C33.5807 16.7702 33.1453 16.0866 32.8442 15.3135C32.5431 14.5404 32.3926 13.7144 32.3926 12.8354V12.3716C32.3926 11.3869 32.5309 10.4795 32.8076 9.64941C33.0843 8.81934 33.4871 8.09912 34.0161 7.48877C34.5532 6.87028 35.2124 6.39421 35.9937 6.06055C36.7749 5.71875 37.666 5.54785 38.667 5.54785C39.6029 5.54785 40.437 5.70247 41.1694 6.01172C41.9019 6.31283 42.5203 6.74821 43.0249 7.31787C43.5295 7.87939 43.9119 8.55892 44.1724 9.35645C44.4409 10.1458 44.5752 11.0329 44.5752 12.0176V13.5801H33.9307V11.1265H40.8398V10.8335C40.8398 10.3696 40.7544 9.96273 40.5835 9.61279C40.4207 9.26286 40.1766 8.9943 39.8511 8.80713C39.5337 8.61182 39.1309 8.51416 38.6426 8.51416C38.1787 8.51416 37.7922 8.61182 37.4829 8.80713C37.1737 9.00244 36.9255 9.27913 36.7383 9.63721C36.5592 9.98714 36.429 10.3981 36.3477 10.8701C36.2663 11.334 36.2256 11.8345 36.2256 12.3716V12.8354C36.2256 13.3481 36.2948 13.8161 36.4331 14.2393C36.5715 14.6624 36.7749 15.0246 37.0435 15.3257C37.312 15.6268 37.6375 15.8628 38.02 16.0337C38.4025 16.2046 38.8379 16.29 39.3262 16.29C39.9284 16.29 40.5021 16.1761 41.0474 15.9482C41.5926 15.7122 42.0646 15.346 42.4634 14.8496L44.2456 16.8882C43.9771 17.2788 43.5986 17.6572 43.1104 18.0234C42.6302 18.3815 42.0524 18.6745 41.377 18.9023C40.7015 19.1302 39.9365 19.2441 39.082 19.2441ZM59.6875 15.3257C59.6875 15.0815 59.6102 14.8659 59.4556 14.6787C59.3091 14.4915 59.0405 14.3206 58.6499 14.166C58.2674 14.0114 57.7262 13.8568 57.0264 13.7021C56.3672 13.5638 55.7528 13.3848 55.1831 13.165C54.6134 12.9372 54.117 12.6646 53.6938 12.3472C53.2707 12.0216 52.9411 11.6392 52.7051 11.1997C52.4691 10.7521 52.3511 10.2435 52.3511 9.67383C52.3511 9.12044 52.4691 8.59554 52.7051 8.09912C52.9492 7.6027 53.2992 7.16325 53.7549 6.78076C54.2188 6.39827 54.7803 6.09717 55.4395 5.87744C56.1068 5.65771 56.8636 5.54785 57.71 5.54785C58.8737 5.54785 59.8787 5.73096 60.7251 6.09717C61.5715 6.45524 62.2225 6.9598 62.6782 7.61084C63.134 8.25374 63.3618 8.99023 63.3618 9.82031H59.5532C59.5532 9.47852 59.4881 9.18148 59.3579 8.9292C59.2277 8.67692 59.0283 8.48161 58.7598 8.34326C58.4912 8.19678 58.1372 8.12354 57.6978 8.12354C57.356 8.12354 57.0549 8.18457 56.7944 8.30664C56.5422 8.42057 56.3428 8.57926 56.1963 8.78271C56.0579 8.98617 55.9888 9.22217 55.9888 9.49072C55.9888 9.6779 56.0295 9.8488 56.1108 10.0034C56.2004 10.1499 56.3346 10.2882 56.5137 10.4185C56.7008 10.5405 56.9409 10.6504 57.2339 10.748C57.535 10.8457 57.9012 10.9393 58.3325 11.0288C59.2521 11.1997 60.0903 11.4398 60.8472 11.749C61.6121 12.0583 62.2225 12.4855 62.6782 13.0308C63.1421 13.576 63.374 14.2962 63.374 15.1914C63.374 15.7773 63.2397 16.3145 62.9712 16.8027C62.7108 17.291 62.3324 17.7183 61.8359 18.0845C61.3395 18.4507 60.7454 18.7355 60.0537 18.939C59.362 19.1424 58.5807 19.2441 57.71 19.2441C56.4648 19.2441 55.411 19.0203 54.5483 18.5728C53.6857 18.1252 53.0347 17.5636 52.5952 16.8882C52.1639 16.2046 51.9482 15.5047 51.9482 14.7886H55.5249C55.5412 15.228 55.651 15.5861 55.8545 15.8628C56.0661 16.1395 56.3387 16.3429 56.6724 16.4731C57.006 16.5952 57.3804 16.6562 57.7954 16.6562C58.2104 16.6562 58.5563 16.5993 58.833 16.4854C59.1097 16.3714 59.3213 16.2168 59.4678 16.0215C59.6143 15.818 59.6875 15.5861 59.6875 15.3257ZM73.2495 15.814V5.79199H77.0825V19H73.4937L73.2495 15.814ZM73.6523 13.1162L74.7021 13.0918C74.7021 13.9788 74.5964 14.7967 74.3848 15.5454C74.1813 16.2941 73.8721 16.9451 73.457 17.4985C73.0501 18.0519 72.5415 18.4832 71.9312 18.7925C71.3289 19.0936 70.625 19.2441 69.8193 19.2441C69.1683 19.2441 68.5701 19.1546 68.0249 18.9756C67.4878 18.7884 67.0239 18.4995 66.6333 18.1089C66.2427 17.7101 65.9416 17.2015 65.73 16.583C65.5184 15.9564 65.4126 15.2077 65.4126 14.3369V5.79199H69.2212V14.3613C69.2212 14.7031 69.2619 14.9961 69.3433 15.2402C69.4328 15.4762 69.5508 15.6715 69.6973 15.8262C69.8519 15.9808 70.0391 16.0947 70.2588 16.168C70.4867 16.2412 70.7349 16.2778 71.0034 16.2778C71.6789 16.2778 72.2078 16.1395 72.5903 15.8628C72.981 15.578 73.2536 15.1995 73.4082 14.7275C73.571 14.2474 73.6523 13.7103 73.6523 13.1162ZM86.5552 15.8506V10.1865C86.5552 9.78776 86.4941 9.44596 86.3721 9.16113C86.25 8.8763 86.0588 8.65251 85.7983 8.48975C85.5379 8.32699 85.2002 8.24561 84.7852 8.24561C84.4352 8.24561 84.13 8.30664 83.8696 8.42871C83.6174 8.55078 83.422 8.72575 83.2837 8.95361C83.1535 9.18148 83.0884 9.46224 83.0884 9.7959H79.2798C79.2798 9.20182 79.4141 8.64844 79.6826 8.13574C79.9512 7.62305 80.3337 7.17139 80.8301 6.78076C81.3346 6.39014 81.9368 6.08903 82.6367 5.87744C83.3366 5.65771 84.1219 5.54785 84.9927 5.54785C86.0262 5.54785 86.9458 5.72282 87.7515 6.07275C88.5653 6.41455 89.2082 6.93132 89.6802 7.62305C90.1522 8.30664 90.3882 9.16927 90.3882 10.2109V15.7407C90.3882 16.5382 90.4329 17.1649 90.5225 17.6206C90.6201 18.0682 90.7585 18.4588 90.9375 18.7925V19H87.0923C86.9132 18.6175 86.779 18.1455 86.6895 17.584C86.5999 17.0143 86.5552 16.4365 86.5552 15.8506ZM87.0312 10.9434L87.0557 13.043H85.1636C84.7404 13.043 84.3742 13.0959 84.0649 13.2017C83.7638 13.3075 83.5197 13.4539 83.3325 13.6411C83.1453 13.8201 83.007 14.0317 82.9175 14.2759C82.8361 14.5119 82.7954 14.7723 82.7954 15.0571C82.7954 15.3257 82.8605 15.5698 82.9907 15.7896C83.1209 16.0011 83.3 16.168 83.5278 16.29C83.7557 16.4121 84.0202 16.4731 84.3213 16.4731C84.8177 16.4731 85.2409 16.3755 85.5908 16.1802C85.9489 15.9849 86.2256 15.7489 86.4209 15.4722C86.6162 15.1873 86.7139 14.9229 86.7139 14.6787L87.6294 16.2656C87.4829 16.5911 87.3039 16.9289 87.0923 17.2788C86.8807 17.6206 86.6121 17.9421 86.2866 18.2432C85.9611 18.5361 85.5664 18.7762 85.1025 18.9634C84.6468 19.1506 84.0975 19.2441 83.4546 19.2441C82.6245 19.2441 81.8717 19.0773 81.1963 18.7437C80.5208 18.4019 79.9797 17.9339 79.5728 17.3398C79.174 16.7458 78.9746 16.0622 78.9746 15.2891C78.9746 14.5973 79.1007 13.9829 79.353 13.4458C79.6053 12.9087 79.9837 12.453 80.4883 12.0786C81.001 11.7043 81.6439 11.4235 82.417 11.2363C83.1901 11.041 84.0934 10.9434 85.127 10.9434H87.0312ZM104.634 16.2778C105.041 16.2778 105.395 16.2005 105.696 16.0459C105.997 15.8913 106.229 15.6756 106.392 15.3989C106.562 15.1141 106.648 14.7723 106.648 14.3735H110.237C110.237 15.3338 109.989 16.1802 109.492 16.9126C109.004 17.645 108.345 18.2188 107.515 18.6338C106.685 19.0407 105.749 19.2441 104.707 19.2441C103.682 19.2441 102.786 19.0773 102.021 18.7437C101.257 18.4019 100.618 17.9258 100.105 17.3154C99.5923 16.7051 99.2057 15.9971 98.9453 15.1914C98.693 14.3776 98.5669 13.4987 98.5669 12.5547V12.2373C98.5669 11.3014 98.693 10.4266 98.9453 9.61279C99.2057 8.79899 99.5923 8.08691 100.105 7.47656C100.618 6.86621 101.252 6.39421 102.009 6.06055C102.774 5.71875 103.669 5.54785 104.695 5.54785C105.777 5.54785 106.733 5.75537 107.563 6.17041C108.402 6.58545 109.057 7.18359 109.529 7.96484C110.001 8.73796 110.237 9.66976 110.237 10.7603H106.648C106.648 10.3371 106.571 9.95866 106.416 9.625C106.27 9.2832 106.042 9.01465 105.732 8.81934C105.431 8.61589 105.057 8.51416 104.609 8.51416C104.146 8.51416 103.763 8.61589 103.462 8.81934C103.169 9.01465 102.945 9.28727 102.791 9.63721C102.636 9.98714 102.53 10.3859 102.473 10.8335C102.416 11.2729 102.388 11.7409 102.388 12.2373V12.5547C102.388 13.0592 102.416 13.5394 102.473 13.9951C102.53 14.4427 102.636 14.8374 102.791 15.1792C102.953 15.521 103.181 15.7896 103.474 15.9849C103.767 16.1802 104.154 16.2778 104.634 16.2778ZM111.58 12.5303V12.2739C111.58 11.3055 111.718 10.4144 111.995 9.60059C112.271 8.77865 112.678 8.06657 113.215 7.46436C113.752 6.86214 114.412 6.39421 115.193 6.06055C115.974 5.71875 116.869 5.54785 117.878 5.54785C118.904 5.54785 119.807 5.71875 120.588 6.06055C121.378 6.39421 122.041 6.86214 122.578 7.46436C123.115 8.06657 123.522 8.77865 123.799 9.60059C124.076 10.4144 124.214 11.3055 124.214 12.2739V12.5303C124.214 13.4906 124.076 14.3817 123.799 15.2036C123.522 16.0174 123.115 16.7295 122.578 17.3398C122.041 17.9421 121.382 18.41 120.601 18.7437C119.819 19.0773 118.92 19.2441 117.903 19.2441C116.894 19.2441 115.994 19.0773 115.205 18.7437C114.416 18.41 113.752 17.9421 113.215 17.3398C112.678 16.7295 112.271 16.0174 111.995 15.2036C111.718 14.3817 111.58 13.4906 111.58 12.5303ZM115.4 12.2739V12.5303C115.4 13.0511 115.441 13.5394 115.522 13.9951C115.612 14.4508 115.754 14.8496 115.95 15.1914C116.145 15.5332 116.401 15.8018 116.719 15.9971C117.044 16.1842 117.439 16.2778 117.903 16.2778C118.367 16.2778 118.757 16.1842 119.075 15.9971C119.392 15.8018 119.648 15.5332 119.844 15.1914C120.039 14.8496 120.177 14.4508 120.259 13.9951C120.348 13.5394 120.393 13.0511 120.393 12.5303V12.2739C120.393 11.7612 120.348 11.2811 120.259 10.8335C120.177 10.3778 120.039 9.97493 119.844 9.625C119.648 9.27507 119.388 9.00244 119.062 8.80713C118.745 8.61182 118.35 8.51416 117.878 8.51416C117.423 8.51416 117.036 8.61182 116.719 8.80713C116.401 9.00244 116.145 9.27507 115.95 9.625C115.754 9.97493 115.612 10.3778 115.522 10.8335C115.441 11.2811 115.4 11.7612 115.4 12.2739ZM129.951 8.61182V19H126.13V5.79199H129.719L129.951 8.61182ZM129.451 11.9321L128.499 11.9565C128.499 10.9637 128.621 10.0726 128.865 9.2832C129.109 8.49382 129.455 7.82243 129.902 7.26904C130.358 6.70752 130.899 6.28027 131.526 5.9873C132.161 5.69434 132.861 5.54785 133.625 5.54785C134.244 5.54785 134.81 5.63737 135.322 5.81641C135.835 5.99544 136.274 6.28434 136.641 6.68311C137.015 7.07373 137.3 7.59456 137.495 8.24561C137.69 8.88851 137.788 9.68197 137.788 10.626V19H133.955V10.6138C133.955 10.0604 133.878 9.63314 133.723 9.33203C133.569 9.03092 133.341 8.81934 133.04 8.69727C132.747 8.5752 132.389 8.51416 131.965 8.51416C131.518 8.51416 131.135 8.60368 130.818 8.78271C130.5 8.95361 130.24 9.19368 130.037 9.50293C129.833 9.81217 129.683 10.1743 129.585 10.5894C129.495 11.0044 129.451 11.452 129.451 11.9321ZM146.992 5.79199V8.46533H139.155V5.79199H146.992ZM140.95 2.52051H144.771V14.8618C144.771 15.228 144.815 15.5088 144.905 15.7041C144.994 15.8994 145.141 16.0378 145.344 16.1191C145.548 16.1924 145.808 16.229 146.125 16.229C146.353 16.229 146.549 16.2209 146.711 16.2046C146.874 16.1883 147.025 16.168 147.163 16.1436V18.9023C146.838 19.0081 146.492 19.0895 146.125 19.1465C145.759 19.2116 145.361 19.2441 144.929 19.2441C144.107 19.2441 143.395 19.1099 142.793 18.8413C142.199 18.5728 141.743 18.1496 141.426 17.5718C141.108 16.9858 140.95 16.2249 140.95 15.2891V2.52051ZM155.818 15.8506V10.1865C155.818 9.78776 155.757 9.44596 155.635 9.16113C155.513 8.8763 155.321 8.65251 155.061 8.48975C154.801 8.32699 154.463 8.24561 154.048 8.24561C153.698 8.24561 153.393 8.30664 153.132 8.42871C152.88 8.55078 152.685 8.72575 152.546 8.95361C152.416 9.18148 152.351 9.46224 152.351 9.7959H148.542C148.542 9.20182 148.677 8.64844 148.945 8.13574C149.214 7.62305 149.596 7.17139 150.093 6.78076C150.597 6.39014 151.2 6.08903 151.899 5.87744C152.599 5.65771 153.385 5.54785 154.255 5.54785C155.289 5.54785 156.208 5.72282 157.014 6.07275C157.828 6.41455 158.471 6.93132 158.943 7.62305C159.415 8.30664 159.651 9.16927 159.651 10.2109V15.7407C159.651 16.5382 159.696 17.1649 159.785 17.6206C159.883 18.0682 160.021 18.4588 160.2 18.7925V19H156.355C156.176 18.6175 156.042 18.1455 155.952 17.584C155.863 17.0143 155.818 16.4365 155.818 15.8506ZM156.294 10.9434L156.318 13.043H154.426C154.003 13.043 153.637 13.0959 153.328 13.2017C153.027 13.3075 152.782 13.4539 152.595 13.6411C152.408 13.8201 152.27 14.0317 152.18 14.2759C152.099 14.5119 152.058 14.7723 152.058 15.0571C152.058 15.3257 152.123 15.5698 152.253 15.7896C152.384 16.0011 152.563 16.168 152.791 16.29C153.018 16.4121 153.283 16.4731 153.584 16.4731C154.08 16.4731 154.504 16.3755 154.854 16.1802C155.212 15.9849 155.488 15.7489 155.684 15.4722C155.879 15.1873 155.977 14.9229 155.977 14.6787L156.892 16.2656C156.746 16.5911 156.567 16.9289 156.355 17.2788C156.143 17.6206 155.875 17.9421 155.549 18.2432C155.224 18.5361 154.829 18.7762 154.365 18.9634C153.91 19.1506 153.36 19.2441 152.717 19.2441C151.887 19.2441 151.134 19.0773 150.459 18.7437C149.784 18.4019 149.242 17.9339 148.835 17.3398C148.437 16.7458 148.237 16.0622 148.237 15.2891C148.237 14.5973 148.363 13.9829 148.616 13.4458C148.868 12.9087 149.246 12.453 149.751 12.0786C150.264 11.7043 150.907 11.4235 151.68 11.2363C152.453 11.041 153.356 10.9434 154.39 10.9434H156.294Z" fill="#241F1C"/>
<path d="M10.7983 13.043V12.043H9.85543L9.80007 12.9842L10.7983 13.043ZM14.7534 13.043L15.752 13.0962L15.8082 12.043H14.7534V13.043ZM13.7524 16.2778L12.9115 15.7367L12.9103 15.7386L13.7524 16.2778ZM11.2744 18.4629L11.7161 19.3601L11.7216 19.3573L11.2744 18.4629ZM2.03369 16.937L1.27088 17.5837L1.27855 17.5926L2.03369 16.937ZM0.568848 14.2393L-0.384887 14.5401L-0.382024 14.5488L0.568848 14.2393ZM2.09473 3.28955L1.34012 2.63337L2.09473 3.28955ZM11.3232 1.78809L11.787 0.902119L11.3232 1.78809ZM13.7402 4.03418L12.8821 4.54761L12.8853 4.55297L13.7402 4.03418ZM14.7778 7.29346V8.29346H15.8755L15.7735 7.20053L14.7778 7.29346ZM10.8105 7.29346L9.81165 7.34046L9.8565 8.29346H10.8105V7.29346ZM10.4199 5.54785L9.51648 5.97661L9.51937 5.9826L10.4199 5.54785ZM5.98877 4.4126L5.54833 3.51478L5.54156 3.51817L5.98877 4.4126ZM4.92676 5.40137L4.08302 4.86445L4.07616 4.87555L4.92676 5.40137ZM4.3042 7.11035L5.28433 7.30871L5.28478 7.30647L4.3042 7.11035ZM4.86572 14.7886L4.00815 15.3031L4.01513 15.3144L4.86572 14.7886ZM9.27246 15.7896L9.69453 16.6962L9.70721 16.6901L9.27246 15.7896ZM10.3589 14.7642L9.48399 14.2798L10.3589 14.7642ZM10.7983 14.043H14.7534V12.043H10.7983V14.043ZM13.7548 12.9897C13.6981 14.0544 13.4106 14.9611 12.9115 15.7367L14.5934 16.819C15.2987 15.7228 15.6786 14.473 15.752 13.0962L13.7548 12.9897ZM12.9103 15.7386C12.4206 16.5033 11.7362 17.114 10.8272 17.5685L11.7216 19.3573C12.9285 18.7539 13.8961 17.9078 14.5946 16.8171L12.9103 15.7386ZM10.8327 17.5657C9.94071 18.0049 8.8413 18.2441 7.50244 18.2441V20.2441C9.077 20.2441 10.4922 19.9626 11.7161 19.3601L10.8327 17.5657ZM7.50244 18.2441C6.45373 18.2441 5.55071 18.0648 4.77528 17.7285L3.97961 19.5635C5.04336 20.0247 6.22368 20.2441 7.50244 20.2441V18.2441ZM4.77528 17.7285C3.98974 17.3879 3.3315 16.9066 2.78883 16.2814L1.27855 17.5926C2.02169 18.4486 2.92595 19.1066 3.97961 19.5635L4.77528 17.7285ZM2.79645 16.2903C2.25554 15.6523 1.8263 14.8713 1.51972 13.9297L-0.382024 14.5488C-0.00501402 15.7068 0.542312 16.7243 1.27093 17.5837L2.79645 16.2903ZM1.52254 13.9385C1.22489 12.9947 1.06836 11.9064 1.06836 10.6626H-0.931641C-0.931641 12.0718 -0.754516 13.3679 -0.384846 14.54L1.52254 13.9385ZM1.06836 10.6626V9.57617H-0.931641V10.6626H1.06836ZM1.06836 9.57617C1.06836 8.33665 1.23193 7.25301 1.54267 6.31355L-0.356149 5.68548C-0.745275 6.8619 -0.931641 8.1627 -0.931641 9.57617H1.06836ZM1.54267 6.31355C1.8561 5.36597 2.29534 4.58282 2.84933 3.94573L1.34012 2.63337C0.592025 3.49368 0.0302902 4.51717 -0.356149 5.68548L1.54267 6.31355ZM2.84933 3.94573C3.40289 3.30914 4.06319 2.82406 4.8393 2.48452L4.03766 0.652202C2.99085 1.11018 2.08865 1.77256 1.34012 2.63337L2.84933 3.94573ZM4.8393 2.48452C5.60904 2.14775 6.48738 1.97021 7.49023 1.97021V-0.0297852C6.24699 -0.0297852 5.09083 0.19144 4.03766 0.652202L4.8393 2.48452ZM7.49023 1.97021C8.88745 1.97021 9.99614 2.22214 10.8595 2.67405L11.787 0.902119C10.567 0.263536 9.12036 -0.0297852 7.49023 -0.0297852V1.97021ZM10.8595 2.67405C11.748 3.13915 12.4128 3.76316 12.8821 4.5476L14.5984 3.52076C13.9284 2.4009 12.9818 1.52751 11.787 0.902119L10.8595 2.67405ZM12.8853 4.55297C13.3769 5.36305 13.6809 6.30106 13.7822 7.38639L15.7735 7.20053C15.6469 5.84444 15.2591 4.60961 14.5951 3.51539L12.8853 4.55297ZM14.7778 6.29346H10.8105V8.29346H14.7778V6.29346ZM11.8094 7.24645C11.7725 6.46121 11.6224 5.73863 11.3205 5.1131L9.51937 5.9826C9.67312 6.30109 9.7835 6.74224 9.81165 7.34046L11.8094 7.24645ZM11.3233 5.11911C11.0017 4.4414 10.4958 3.91784 9.82954 3.57321L8.91069 5.34964C9.18841 5.49329 9.38239 5.69402 9.5165 5.9766L11.3233 5.11911ZM9.82954 3.57321C9.16451 3.22923 8.36184 3.09521 7.49023 3.09521V5.09521C8.18113 5.09521 8.63171 5.20534 8.91069 5.34964L9.82954 3.57321ZM7.49023 3.09521C6.79602 3.09521 6.13994 3.22459 5.54834 3.51481L6.42919 5.31039C6.70023 5.17743 7.04512 5.09521 7.49023 5.09521V3.09521ZM5.54156 3.51817C4.93723 3.82033 4.45313 4.28301 4.0831 4.86449L5.77042 5.93824C5.97005 5.62454 6.19396 5.42804 6.43598 5.30702L5.54156 3.51817ZM4.07616 4.87555C3.71956 5.45241 3.47785 6.14306 3.32362 6.91424L5.28478 7.30647C5.40724 6.69418 5.58057 6.24551 5.77735 5.92719L4.07616 4.87555ZM3.32407 6.91199C3.16881 7.67915 3.09668 8.56281 3.09668 9.55176H5.09668C5.09668 8.65269 5.16289 7.90874 5.28433 7.30871L3.32407 6.91199ZM3.09668 9.55176V10.6626H5.09668V9.55176H3.09668ZM3.09668 10.6626C3.09668 11.6385 3.16007 12.51 3.29536 13.2676L5.26421 12.916C5.15536 12.3064 5.09668 11.5584 5.09668 10.6626H3.09668ZM3.29536 13.2676C3.43215 14.0336 3.66024 14.7231 4.00823 15.3031L5.72322 14.2741C5.5341 13.9589 5.37156 13.5172 5.26421 12.916L3.29536 13.2676ZM4.01513 15.3144C4.37943 15.9037 4.86522 16.3706 5.47381 16.6806L6.38166 14.8985C6.12762 14.7691 5.9054 14.5686 5.71632 14.2628L4.01513 15.3144ZM5.47381 16.6806C6.07928 16.989 6.76873 17.1191 7.50244 17.1191V15.1191C6.99918 15.1191 6.63882 15.0295 6.38166 14.8985L5.47381 16.6806ZM7.50244 17.1191C8.30667 17.1191 9.05172 16.9954 9.69449 16.6961L8.85043 14.883C8.54919 15.0232 8.11423 15.1191 7.50244 15.1191V17.1191ZM9.70721 16.6901C10.3642 16.3729 10.8807 15.8863 11.2338 15.2485L9.48399 14.2798C9.33253 14.5535 9.12474 14.7504 8.83771 14.889L9.70721 16.6901ZM11.2338 15.2485C11.5783 14.6261 11.7499 13.8957 11.7966 13.1017L9.80007 12.9842C9.76539 13.5737 9.64403 13.9907 9.48399 14.2798L11.2338 15.2485ZM20.5884 8.86816H21.5884V8.83052L21.5855 8.79298L20.5884 8.86816ZM20.5884 19V20H21.5884V19H20.5884ZM16.7798 19H15.7798V20H16.7798V19ZM16.7798 5.79199V4.79199H15.7798V5.79199H16.7798ZM20.3564 5.79199L21.3536 5.71681L21.2839 4.79199H20.3564V5.79199ZM24.5312 5.69434L25.5311 5.71152L25.5435 4.99114L24.8641 4.75135L24.5312 5.69434ZM24.4702 9.24658L24.3219 10.2355L25.4505 10.4048L25.4701 9.26376L24.4702 9.24658ZM23.8354 9.18555L23.7421 10.1812L23.7576 10.1826L23.7731 10.1836L23.8354 9.18555ZM21.8945 9.33203L22.2041 10.283L22.2172 10.2785L21.8945 9.33203ZM21.0156 9.84473L20.321 9.12533L20.3147 9.13142L20.3085 9.13762L21.0156 9.84473ZM20.5029 10.6992L21.4493 11.0224L21.4516 11.0154L20.5029 10.6992ZM20.332 11.8589L19.8909 12.7563L21.332 13.4647V11.8589H20.332ZM19.6118 11.5049H18.6118V12.1276L19.1707 12.4023L19.6118 11.5049ZM20.6128 7.23242L21.4645 7.75653L21.468 7.75072L20.6128 7.23242ZM21.8091 5.9873L22.3364 6.83694L21.8091 5.9873ZM19.5884 8.86816V19H21.5884V8.86816H19.5884ZM20.5884 18H16.7798V20H20.5884V18ZM17.7798 19V5.79199H15.7798V19H17.7798ZM16.7798 6.79199H20.3564V4.79199H16.7798V6.79199ZM19.3593 5.86718L19.5912 8.94335L21.5855 8.79298L21.3536 5.71681L19.3593 5.86718ZM23.5314 5.67716L23.4704 9.2294L25.4701 9.26376L25.5311 5.71152L23.5314 5.67716ZM24.6186 8.25765C24.4158 8.22724 24.1725 8.20466 23.8978 8.18749L23.7731 10.1836C24.0192 10.199 24.1991 10.2171 24.3219 10.2355L24.6186 8.25765ZM23.9288 8.18991C23.6485 8.16364 23.3919 8.14893 23.1641 8.14893V10.1489C23.3106 10.1489 23.5016 10.1586 23.7421 10.1812L23.9288 8.18991ZM23.1641 8.14893C22.5962 8.14893 22.059 8.21944 21.5719 8.38552L22.2172 10.2785C22.4462 10.2005 22.7553 10.1489 23.1641 10.1489V8.14893ZM21.5849 8.38116C21.1085 8.53628 20.6788 8.77989 20.321 9.12533L21.7102 10.5641C21.8245 10.4538 21.9807 10.3556 22.2041 10.2829L21.5849 8.38116ZM20.3085 9.13762C19.9585 9.48765 19.7114 9.91149 19.5542 10.383L21.4516 11.0154C21.5223 10.8034 21.617 10.6575 21.7227 10.5518L20.3085 9.13762ZM19.5566 10.3761C19.3996 10.8358 19.332 11.3355 19.332 11.8589H21.332C21.332 11.5034 21.3784 11.23 21.4493 11.0224L19.5566 10.3761ZM20.7732 10.9614L20.0529 10.6074L19.1707 12.4023L19.8909 12.7563L20.7732 10.9614ZM20.6118 11.5049C20.6118 10.6987 20.691 9.97953 20.8414 9.34195L18.8949 8.88266C18.7035 9.69365 18.6118 10.5695 18.6118 11.5049H20.6118ZM20.8414 9.34195C20.9925 8.70171 21.2048 8.1785 21.4645 7.75652L19.7611 6.70832C19.3698 7.34429 19.0856 8.07433 18.8949 8.88266L20.8414 9.34195ZM21.468 7.75072C21.7226 7.3306 22.0149 7.03654 22.3364 6.83694L21.2817 5.13766C20.6593 5.524 20.154 6.06003 19.7576 6.71412L21.468 7.75072ZM22.3364 6.83694C22.6368 6.65049 22.9883 6.54785 23.4204 6.54785V4.54785C22.6481 4.54785 21.9253 4.73818 21.2817 5.13766L22.3364 6.83694ZM23.4204 6.54785C23.574 6.54785 23.7336 6.55745 23.8994 6.57735L24.1377 4.5916C23.8966 4.56267 23.6574 4.54785 23.4204 4.54785V6.54785ZM23.8994 6.57735C24.0564 6.59618 24.1505 6.62039 24.1984 6.63733L24.8641 4.75135C24.6354 4.67062 24.3876 4.62159 24.1377 4.5916L23.8994 6.57735ZM30.1099 5.79199H31.1099V4.79199H30.1099V5.79199ZM30.1099 19V20H31.1099V19H30.1099ZM26.2891 19H25.2891V20H26.2891V19ZM26.2891 5.79199V4.79199H25.2891V5.79199H26.2891ZM26.6431 1.01904L27.3104 1.76393L27.3188 1.7562L26.6431 1.01904ZM29.7192 1.01904L29.0435 1.7562L29.0515 1.76352L29.0596 1.77067L29.7192 1.01904ZM29.7192 3.729L30.3865 4.47384L30.3874 4.47305L29.7192 3.729ZM26.6431 3.729L25.9673 4.46621L25.9758 4.47384L26.6431 3.729ZM29.1099 5.79199V19H31.1099V5.79199H29.1099ZM30.1099 18H26.2891V20H30.1099V18ZM27.2891 19V5.79199H25.2891V19H27.2891ZM26.2891 6.79199H30.1099V4.79199H26.2891V6.79199ZM27.0571 2.37402C27.0571 2.08718 27.1443 1.91259 27.3103 1.76388L25.9758 0.274208C25.3606 0.825366 25.0571 1.5541 25.0571 2.37402H27.0571ZM27.3188 1.7562C27.4897 1.5995 27.7443 1.48193 28.1812 1.48193V-0.518066C27.3485 -0.518066 26.5776 -0.277557 25.9673 0.281889L27.3188 1.7562ZM28.1812 1.48193C28.6181 1.48193 28.8726 1.5995 29.0435 1.7562L30.395 0.281889C29.7847 -0.277557 29.0138 -0.518066 28.1812 -0.518066V1.48193ZM29.0596 1.77067C29.2317 1.92161 29.3174 2.09437 29.3174 2.37402H31.3174C31.3174 1.5469 31.0043 0.816342 30.3788 0.267417L29.0596 1.77067ZM29.3174 2.37402C29.3174 2.64102 29.2345 2.82028 29.0511 2.98496L30.3874 4.47305C31.0015 3.92158 31.3174 3.19752 31.3174 2.37402H29.3174ZM29.052 2.98417C28.8816 3.1368 28.6241 3.25391 28.1812 3.25391V5.25391C29.0078 5.25391 29.7756 5.02108 30.3865 4.47384L29.052 2.98417ZM28.1812 3.25391C27.7382 3.25391 27.4807 3.1368 27.3103 2.98417L25.9758 4.47384C26.5867 5.02108 27.3545 5.25391 28.1812 5.25391V3.25391ZM27.3188 2.99185C27.1415 2.82932 27.0571 2.64817 27.0571 2.37402H25.0571C25.0571 3.19037 25.3634 3.91254 25.9673 4.46616L27.3188 2.99185ZM34.1504 17.3643L33.4285 18.0564L33.4384 18.0664L34.1504 17.3643ZM32.8076 9.64941L31.8589 9.33319L32.8076 9.64941ZM34.0161 7.48877L33.2611 6.83308L33.2604 6.83384L34.0161 7.48877ZM35.9937 6.06055L36.3864 6.98022L36.3945 6.9767L35.9937 6.06055ZM41.1694 6.01172L40.7804 6.93301L40.7892 6.93661L41.1694 6.01172ZM43.0249 7.31787L42.2763 7.98092L42.2811 7.98624L43.0249 7.31787ZM44.1724 9.35645L43.2217 9.66687L43.2257 9.67852L44.1724 9.35645ZM44.5752 13.5801V14.5801H45.5752V13.5801H44.5752ZM33.9307 13.5801H32.9307V14.5801H33.9307V13.5801ZM33.9307 11.1265V10.1265H32.9307V11.1265H33.9307ZM40.8398 11.1265V12.1265H41.8398V11.1265H40.8398ZM40.5835 9.61279L39.6768 10.0345L39.6808 10.0431L39.6849 10.0516L40.5835 9.61279ZM39.8511 8.80713L39.327 9.65879L39.3397 9.6666L39.3526 9.67404L39.8511 8.80713ZM36.7383 9.63721L35.852 9.17394L35.848 9.18173L36.7383 9.63721ZM36.3477 10.8701L37.3326 11.0429L37.3331 11.04L36.3477 10.8701ZM38.02 16.0337L37.6121 16.9467L38.02 16.0337ZM41.0474 15.9482L41.433 16.871L41.4446 16.866L41.0474 15.9482ZM42.4634 14.8496L43.2162 14.1914L42.4309 13.2932L41.6838 14.2234L42.4634 14.8496ZM44.2456 16.8882L45.0696 17.4547L45.5096 16.8147L44.9985 16.23L44.2456 16.8882ZM43.1104 18.0234L43.7082 18.8251L43.7104 18.8234L43.1104 18.0234ZM39.082 18.2441C38.1382 18.2441 37.328 18.0943 36.6352 17.8158L35.8892 19.6715C36.8566 20.0603 37.9262 20.2441 39.082 20.2441V18.2441ZM36.6352 17.8158C35.9212 17.5288 35.3357 17.1421 34.8624 16.6621L33.4384 18.0664C34.1206 18.7583 34.9431 19.2912 35.8892 19.6715L36.6352 17.8158ZM34.8722 16.6721C34.3942 16.1737 34.0299 15.6022 33.7761 14.9506L31.9124 15.6764C32.2608 16.571 32.7672 17.3667 33.4286 18.0564L34.8722 16.6721ZM33.7761 14.9506C33.5226 14.2999 33.3926 13.5976 33.3926 12.8354H31.3926C31.3926 13.8311 31.5636 14.7808 31.9124 15.6764L33.7761 14.9506ZM33.3926 12.8354V12.3716H31.3926V12.8354H33.3926ZM33.3926 12.3716C33.3926 11.481 33.5176 10.6818 33.7563 9.96564L31.8589 9.33319C31.5443 10.2771 31.3926 11.2927 31.3926 12.3716H33.3926ZM33.7563 9.96564C33.995 9.24958 34.3357 8.6469 34.7718 8.1437L33.2604 6.83384C32.6386 7.55134 32.1736 8.3891 31.8589 9.33319L33.7563 9.96564ZM34.7711 8.14446C35.2053 7.64451 35.739 7.25668 36.3864 6.98019L35.6009 5.14091C34.6858 5.53174 33.9011 6.09605 33.2611 6.83308L34.7711 8.14446ZM36.3945 6.9767C37.0293 6.69897 37.7803 6.54785 38.667 6.54785V4.54785C37.5517 4.54785 36.5205 4.73853 35.5928 5.14439L36.3945 6.9767ZM38.667 6.54785C39.4926 6.54785 40.1909 6.68406 40.7805 6.93297L41.5584 5.09047C40.6831 4.72089 39.7132 4.54785 38.667 4.54785V6.54785ZM40.7892 6.93661C41.3864 7.18211 41.8771 7.53018 42.2763 7.98091L43.7735 6.65484C43.1636 5.96624 42.4173 5.44354 41.5497 5.08683L40.7892 6.93661ZM42.2811 7.98624C42.6826 8.43315 42.9997 8.98693 43.2218 9.66685L45.123 9.04604C44.8241 8.13091 44.3763 7.32564 43.7687 6.6495L42.2811 7.98624ZM43.2257 9.67852C43.4532 10.3474 43.5752 11.1231 43.5752 12.0176H45.5752C45.5752 10.9426 45.4286 9.9443 45.1191 9.03437L43.2257 9.67852ZM43.5752 12.0176V13.5801H45.5752V12.0176H43.5752ZM44.5752 12.5801H33.9307V14.5801H44.5752V12.5801ZM34.9307 13.5801V11.1265H32.9307V13.5801H34.9307ZM33.9307 12.1265H40.8398V10.1265H33.9307V12.1265ZM41.8398 11.1265V10.8335H39.8398V11.1265H41.8398ZM41.8398 10.8335C41.8398 10.2463 41.7313 9.68426 41.4821 9.17396L39.6849 10.0516C39.7775 10.2412 39.8398 10.4929 39.8398 10.8335H41.8398ZM41.4902 9.19106C41.2431 8.65975 40.859 8.23317 40.3495 7.94022L39.3526 9.67404C39.4942 9.75544 39.5984 9.86597 39.6768 10.0345L41.4902 9.19106ZM40.3752 7.95547C39.8584 7.63744 39.2598 7.51416 38.6426 7.51416V9.51416C39.002 9.51416 39.209 9.5862 39.327 9.65879L40.3752 7.95547ZM38.6426 7.51416C38.04 7.51416 37.4557 7.64154 36.9489 7.96164L38.0169 9.65262C38.1286 9.58209 38.3175 9.51416 38.6426 9.51416V7.51416ZM36.9489 7.96164C36.4754 8.26071 36.1121 8.67643 35.8521 9.17395L37.6245 10.1005C37.7388 9.88184 37.8719 9.74417 38.0169 9.65262L36.9489 7.96164ZM35.848 9.18173C35.6143 9.63862 35.4571 10.1497 35.3622 10.7002L37.3331 11.04C37.401 10.6466 37.5042 10.3357 37.6285 10.0927L35.848 9.18173ZM35.3627 10.6973C35.27 11.2255 35.2256 11.7844 35.2256 12.3716H37.2256C37.2256 11.8845 37.2625 11.4424 37.3326 11.0429L35.3627 10.6973ZM35.2256 12.3716V12.8354H37.2256V12.3716H35.2256ZM35.2256 12.8354C35.2256 13.438 35.3069 14.0126 35.4826 14.55L37.3836 13.9285C37.2826 13.6196 37.2256 13.2583 37.2256 12.8354H35.2256ZM35.4826 14.55C35.6594 15.0906 35.9277 15.577 36.2972 15.9913L37.7898 14.6601C37.6221 14.4721 37.4835 14.2342 37.3836 13.9285L35.4826 14.55ZM36.2972 15.9913C36.6634 16.4019 37.1057 16.7204 37.6121 16.9467L38.428 15.1207C38.1694 15.0052 37.9606 14.8517 37.7898 14.6601L36.2972 15.9913ZM37.6121 16.9467C38.1424 17.1837 38.7204 17.29 39.3262 17.29V15.29C38.9554 15.29 38.6626 15.2255 38.428 15.1207L37.6121 16.9467ZM39.3262 17.29C40.0582 17.29 40.7632 17.1508 41.433 16.8709L40.6618 15.0256C40.241 15.2014 39.7986 15.29 39.3262 15.29V17.29ZM41.4446 16.866C42.1497 16.5608 42.7499 16.0898 43.243 15.4759L41.6838 14.2234C41.3794 14.6023 41.0355 14.8637 40.6501 15.0305L41.4446 16.866ZM41.7105 15.5078L43.4927 17.5464L44.9985 16.23L43.2162 14.1914L41.7105 15.5078ZM43.4216 16.3217C43.2293 16.6013 42.9354 16.9046 42.5104 17.2234L43.7104 18.8234C44.2618 18.4098 44.7248 17.9563 45.0696 17.4547L43.4216 16.3217ZM42.5125 17.2218C42.1311 17.5062 41.6514 17.7544 41.0573 17.9548L41.6966 19.8499C42.4535 19.5946 43.1293 19.2568 43.7082 18.8251L42.5125 17.2218ZM41.0573 17.9548C40.503 18.1418 39.8488 18.2441 39.082 18.2441V20.2441C40.0243 20.2441 40.9 20.1186 41.6966 19.8499L41.0573 17.9548ZM59.4556 14.6787L58.6681 15.295L58.6762 15.3054L58.6846 15.3156L59.4556 14.6787ZM58.6499 14.166L58.2751 15.0932L58.2819 15.0958L58.6499 14.166ZM57.0264 13.7021L57.2421 12.7256L57.2318 12.7235L57.0264 13.7021ZM55.1831 13.165L54.8117 14.0936L54.8232 14.098L55.1831 13.165ZM53.6938 12.3472L53.0841 13.1399L53.0938 13.1472L53.6938 12.3472ZM52.7051 11.1997L51.8205 11.6661L51.8241 11.6728L52.7051 11.1997ZM52.7051 8.09912L51.8076 7.65776L51.8019 7.66976L52.7051 8.09912ZM53.7549 6.78076L53.1187 6.00919L53.112 6.01479L53.7549 6.78076ZM55.4395 5.87744L55.1267 4.9276L55.1232 4.92876L55.4395 5.87744ZM60.7251 6.09717L60.328 7.01497L60.3355 7.01814L60.7251 6.09717ZM62.6782 7.61084L61.859 8.18431L61.8624 8.18914L62.6782 7.61084ZM63.3618 9.82031V10.8203H64.3618V9.82031H63.3618ZM59.5532 9.82031H58.5532V10.8203H59.5532V9.82031ZM59.3579 8.9292L60.2465 8.47056L59.3579 8.9292ZM58.7598 8.34326L58.2809 9.22116L58.2913 9.22682L58.3018 9.23224L58.7598 8.34326ZM56.7944 8.30664L57.2061 9.2181L57.2189 9.2121L56.7944 8.30664ZM56.1963 8.78271L55.3848 8.19841L55.3769 8.2093L55.3694 8.2204L56.1963 8.78271ZM56.1108 10.0034L55.2259 10.4692L55.2408 10.4975L55.2576 10.5249L56.1108 10.0034ZM56.5137 10.4185L55.9255 11.2272L55.9461 11.2422L55.9674 11.2561L56.5137 10.4185ZM57.2339 10.748L56.9176 11.6968L56.9254 11.6993L57.2339 10.748ZM58.3325 11.0288L58.1293 12.0079L58.1395 12.0101L58.1498 12.012L58.3325 11.0288ZM60.8472 11.749L60.4689 12.6747L60.4724 12.6761L60.8472 11.749ZM62.6782 13.0308L61.9109 13.6721L61.9166 13.6787L62.6782 13.0308ZM62.9712 16.8027L62.0949 16.3208L62.0888 16.3321L62.9712 16.8027ZM54.5483 18.5728L54.0878 19.4604L54.0878 19.4604L54.5483 18.5728ZM52.5952 16.8882L51.7494 17.4218L51.757 17.4335L52.5952 16.8882ZM51.9482 14.7886V13.7886H50.9482V14.7886H51.9482ZM55.5249 14.7886L56.5242 14.7516L56.4886 13.7886H55.5249V14.7886ZM55.8545 15.8628L55.0488 16.4552L55.0544 16.4628L55.0601 16.4702L55.8545 15.8628ZM56.6724 16.4731L56.3088 17.4047L56.3188 17.4086L56.3288 17.4123L56.6724 16.4731ZM59.4678 16.0215L60.2678 16.6215L60.2736 16.6137L60.2793 16.6058L59.4678 16.0215ZM60.6875 15.3257C60.6875 14.8505 60.5301 14.4093 60.2265 14.0418L58.6846 15.3156C58.6891 15.3211 58.6906 15.3237 58.6904 15.3234C58.6902 15.323 58.6892 15.3211 58.6882 15.3183C58.6872 15.3155 58.6868 15.3137 58.6868 15.3137C58.6869 15.3139 58.6875 15.3176 58.6875 15.3257H60.6875ZM60.2431 14.0624C59.9321 13.665 59.464 13.4128 59.018 13.2362L58.2819 15.0958C58.4358 15.1567 58.5404 15.2111 58.6074 15.2538C58.6763 15.2977 58.6841 15.3155 58.6681 15.295L60.2431 14.0624ZM59.0247 13.2389C58.5665 13.0537 57.9629 12.8849 57.2421 12.7257L56.8106 14.6786C57.4896 14.8286 57.9683 14.9691 58.2751 15.0931L59.0247 13.2389ZM57.2318 12.7235C56.6199 12.5951 56.0576 12.4305 55.543 12.232L54.8232 14.098C55.4479 14.339 56.1145 14.5325 56.821 14.6808L57.2318 12.7235ZM55.5545 12.2366C55.0537 12.0362 54.6366 11.8043 54.2938 11.5472L53.0938 13.1472C53.5974 13.5248 54.1732 13.8381 54.8117 14.0935L55.5545 12.2366ZM54.3036 11.5545C53.9844 11.309 53.7506 11.033 53.5861 10.7266L51.8241 11.6728C52.1315 12.2454 52.557 12.7343 53.0841 13.1398L54.3036 11.5545ZM53.5896 10.7333C53.4386 10.4468 53.3511 10.1017 53.3511 9.67383H51.3511C51.3511 10.3853 51.4996 11.0575 51.8205 11.6661L53.5896 10.7333ZM53.3511 9.67383C53.3511 9.26794 53.4364 8.88981 53.6082 8.52848L51.8019 7.66976C51.5017 8.30127 51.3511 8.97295 51.3511 9.67383H53.3511ZM53.6024 8.54044C53.7807 8.17795 54.0403 7.8467 54.3978 7.54674L53.112 6.01479C52.558 6.47979 52.1177 7.02745 51.8077 7.6578L53.6024 8.54044ZM54.3911 7.5523C54.7465 7.2592 55.1952 7.01294 55.7557 6.82612L55.1232 4.92876C54.3653 5.18139 53.691 5.53735 53.1187 6.00922L54.3911 7.5523ZM55.7522 6.82728C56.3004 6.64678 56.9488 6.54785 57.71 6.54785V4.54785C56.7784 4.54785 55.9132 4.66865 55.1267 4.92761L55.7522 6.82728ZM57.71 6.54785C58.7716 6.54785 59.6352 6.71518 60.328 7.01494L61.1222 5.1794C60.1223 4.74673 58.9758 4.54785 57.71 4.54785V6.54785ZM60.3355 7.01814C61.0364 7.31469 61.527 7.70997 61.859 8.1843L63.4975 7.03738C62.918 6.20962 62.1065 5.59579 61.1147 5.1762L60.3355 7.01814ZM61.8624 8.18914C62.1917 8.65369 62.3618 9.1857 62.3618 9.82031H64.3618C64.3618 8.79477 64.0762 7.85379 63.494 7.03254L61.8624 8.18914ZM63.3618 8.82031H59.5532V10.8203H63.3618V8.82031ZM60.5532 9.82031C60.5532 9.35119 60.4634 8.89076 60.2465 8.47056L58.4693 9.38784C58.5128 9.47219 58.5532 9.60584 58.5532 9.82031H60.5532ZM60.2465 8.47056C60.0147 8.02141 59.6585 7.68137 59.2177 7.45429L58.3018 9.23224C58.3981 9.28185 58.4407 9.33243 58.4693 9.38784L60.2465 8.47056ZM59.2386 7.46537C58.773 7.21138 58.2361 7.12354 57.6978 7.12354V9.12354C58.0383 9.12354 58.2094 9.18217 58.2809 9.22116L59.2386 7.46537ZM57.6978 7.12354C57.2366 7.12354 56.7859 7.20621 56.37 7.40118L57.2189 9.2121C57.3238 9.16293 57.4753 9.12354 57.6978 9.12354V7.12354ZM56.3828 7.39527C55.988 7.5736 55.644 7.83833 55.3848 8.19841L57.0078 9.36702C57.0415 9.3202 57.0963 9.26754 57.206 9.21801L56.3828 7.39527ZM55.3694 8.2204C55.1079 8.6049 54.9888 9.04082 54.9888 9.49072H56.9888C56.9888 9.40352 57.008 9.36744 57.0232 9.34502L55.3694 8.2204ZM54.9888 9.49072C54.9888 9.82832 55.0636 10.1608 55.2259 10.4692L56.9958 9.53767C56.9953 9.53681 56.9888 9.52748 56.9888 9.49072H54.9888ZM55.2576 10.5249C55.4324 10.811 55.6695 11.041 55.9255 11.2272L57.1018 9.60972C56.9998 9.53548 56.9683 9.4888 56.9641 9.48197L55.2576 10.5249ZM55.9674 11.2561C56.2476 11.4388 56.572 11.5815 56.9177 11.6967L57.5501 9.79936C57.3098 9.71926 57.1541 9.64226 57.0599 9.58085L55.9674 11.2561ZM56.9254 11.6993C57.2715 11.8115 57.675 11.9137 58.1293 12.0079L58.5357 10.0497C58.1274 9.96492 57.7985 9.87989 57.5424 9.79682L56.9254 11.6993ZM58.1498 12.012C59.0118 12.1722 59.7834 12.3946 60.4689 12.6747L61.2254 10.8233C60.3973 10.4849 59.4924 10.2272 58.5152 10.0456L58.1498 12.012ZM60.4724 12.6761C61.1097 12.9338 61.5764 13.2718 61.9109 13.6721L63.4455 12.3895C62.8686 11.6992 62.1146 11.1828 61.222 10.8219L60.4724 12.6761ZM61.9166 13.6787C62.191 14.0013 62.374 14.4723 62.374 15.1914H64.374C64.374 14.1201 64.0932 13.1507 63.4399 12.3828L61.9166 13.6787ZM62.374 15.1914C62.374 15.6178 62.2781 15.9879 62.095 16.3208L63.8474 17.2847C64.2014 16.6411 64.374 15.9369 64.374 15.1914H62.374ZM62.0888 16.3321C61.9062 16.6745 61.6327 16.9918 61.2423 17.2797L62.4296 18.8892C63.0321 18.4447 63.5153 17.9075 63.8535 17.2733L62.0888 16.3321ZM61.2423 17.2797C60.8543 17.566 60.3698 17.8037 59.7715 17.9796L60.3359 19.8983C61.1211 19.6674 61.8248 19.3354 62.4296 18.8892L61.2423 17.2797ZM59.7715 17.9796C59.1881 18.1512 58.5043 18.2441 57.71 18.2441V20.2441C58.6571 20.2441 59.5358 20.1336 60.3359 19.8983L59.7715 17.9796ZM57.71 18.2441C56.5814 18.2441 55.6949 18.0411 55.0089 17.6851L54.0878 19.4604C55.1271 19.9996 56.3483 20.2441 57.71 20.2441V18.2441ZM55.0089 17.6851C54.2681 17.3007 53.761 16.8464 53.4334 16.3428L51.757 17.4335C52.3083 18.2809 53.1033 18.9496 54.0878 19.4604L55.0089 17.6851ZM53.4409 16.3546C53.0971 15.8096 52.9482 15.2923 52.9482 14.7886H50.9482C50.9482 15.7171 51.2307 16.5996 51.7495 17.4218L53.4409 16.3546ZM51.9482 15.7886H55.5249V13.7886H51.9482V15.7886ZM54.5256 14.8256C54.5472 15.4094 54.6973 15.9771 55.0488 16.4552L56.6601 15.2704C56.6048 15.1951 56.5351 15.0466 56.5242 14.7516L54.5256 14.8256ZM55.0601 16.4702C55.3862 16.8966 55.8097 17.2099 56.3088 17.4047L57.0359 15.5416C56.8678 15.4759 56.746 15.3823 56.6489 15.2553L55.0601 16.4702ZM56.3288 17.4123C56.7893 17.5808 57.2825 17.6562 57.7954 17.6562V15.6562C57.4783 15.6562 57.2227 15.6097 57.0159 15.534L56.3288 17.4123ZM57.7954 17.6562C58.294 17.6562 58.7793 17.5889 59.2138 17.41L58.4523 15.5607C58.3334 15.6096 58.1269 15.6562 57.7954 15.6562V17.6562ZM59.2138 17.41C59.6194 17.243 59.9914 16.99 60.2678 16.6215L58.6678 15.4215C58.6512 15.4435 58.6 15.4999 58.4523 15.5607L59.2138 17.41ZM60.2793 16.6058C60.5533 16.2252 60.6875 15.7871 60.6875 15.3257H58.6875C58.6875 15.3851 58.6752 15.4108 58.6562 15.4372L60.2793 16.6058ZM73.2495 15.814H72.2495V15.8522L72.2524 15.8904L73.2495 15.814ZM73.2495 5.79199V4.79199H72.2495V5.79199H73.2495ZM77.0825 5.79199H78.0825V4.79199H77.0825V5.79199ZM77.0825 19V20H78.0825V19H77.0825ZM73.4937 19L72.4966 19.0764L72.5673 20H73.4937V19ZM73.6523 13.1162L73.6291 12.1165L72.6523 12.1392V13.1162H73.6523ZM74.7021 13.0918H75.7021V12.0683L74.6789 12.0921L74.7021 13.0918ZM74.3848 15.5454L73.4224 15.2734L73.4198 15.2832L74.3848 15.5454ZM73.457 17.4985L72.657 16.8985L72.6514 16.9061L73.457 17.4985ZM71.9312 18.7925L72.3784 19.6869L72.3831 19.6845L71.9312 18.7925ZM68.0249 18.9756L67.6958 19.9199L67.7044 19.9229L67.7129 19.9257L68.0249 18.9756ZM66.6333 18.1089L65.9189 18.8087L65.9262 18.816L66.6333 18.1089ZM65.73 16.583L64.7825 16.9029L64.7838 16.9067L65.73 16.583ZM65.4126 5.79199V4.79199H64.4126V5.79199H65.4126ZM69.2212 5.79199H70.2212V4.79199H69.2212V5.79199ZM69.3433 15.2402L68.3946 15.5565L68.401 15.5758L68.4083 15.5949L69.3433 15.2402ZM69.6973 15.8262L68.9713 16.5139L68.9806 16.5237L68.9902 16.5333L69.6973 15.8262ZM70.2588 16.168L69.9425 17.1167L69.9528 17.12L70.2588 16.168ZM72.5903 15.8628L73.1765 16.673L73.1795 16.6708L72.5903 15.8628ZM73.4082 14.7275L72.4611 14.4065L72.4579 14.4162L73.4082 14.7275ZM74.2495 15.814V5.79199H72.2495V15.814H74.2495ZM73.2495 6.79199H77.0825V4.79199H73.2495V6.79199ZM76.0825 5.79199V19H78.0825V5.79199H76.0825ZM77.0825 18H73.4937V20H77.0825V18ZM74.4907 18.9236L74.2466 15.7376L72.2524 15.8904L72.4966 19.0764L74.4907 18.9236ZM73.6756 14.1159L74.7254 14.0915L74.6789 12.0921L73.6291 12.1165L73.6756 14.1159ZM73.7021 13.0918C73.7021 13.8995 73.6058 14.6246 73.4225 15.2735L75.3471 15.8174C75.5869 14.9688 75.7021 14.0582 75.7021 13.0918H73.7021ZM73.4198 15.2832C73.2454 15.9246 72.9875 16.4579 72.657 16.8985L74.257 18.0985C74.7566 17.4324 75.1172 16.6636 75.3498 15.8076L73.4198 15.2832ZM72.6514 16.9061C72.3369 17.3338 71.9492 17.6623 71.4792 17.9004L72.3831 19.6845C73.1338 19.3042 73.7634 18.77 74.2627 18.0909L72.6514 16.9061ZM71.4839 17.8981C71.0453 18.1174 70.5 18.2441 69.8193 18.2441V20.2441C70.75 20.2441 71.6126 20.0698 72.3784 19.6869L71.4839 17.8981ZM69.8193 18.2441C69.2602 18.2441 68.7689 18.1674 68.3369 18.0255L67.7129 19.9257C68.3714 20.1419 69.0764 20.2441 69.8193 20.2441V18.2441ZM68.354 18.0313C67.9548 17.8922 67.6213 17.6827 67.3404 17.4018L65.9262 18.816C66.4266 19.3164 67.0208 19.6847 67.6958 19.9199L68.354 18.0313ZM67.3477 17.4091C67.0778 17.1336 66.8477 16.7607 66.6761 16.2593L64.7838 16.9067C65.0355 17.6423 65.4076 18.2867 65.9189 18.8087L67.3477 17.4091ZM66.6774 16.2631C66.5097 15.7663 66.4126 15.1313 66.4126 14.3369H64.4126C64.4126 15.2841 64.5271 16.1465 64.7825 16.9029L66.6774 16.2631ZM66.4126 14.3369V5.79199H64.4126V14.3369H66.4126ZM65.4126 6.79199H69.2212V4.79199H65.4126V6.79199ZM68.2212 5.79199V14.3613H70.2212V5.79199H68.2212ZM68.2212 14.3613C68.2212 14.7775 68.2701 15.1831 68.3946 15.5565L70.2919 14.924C70.2536 14.8091 70.2212 14.6287 70.2212 14.3613H68.2212ZM68.4083 15.5949C68.5362 15.9322 68.7186 16.2471 68.9713 16.5139L70.4232 15.1384C70.383 15.096 70.3294 15.0203 70.2783 14.8856L68.4083 15.5949ZM68.9902 16.5333C69.261 16.8042 69.5845 16.9973 69.9426 17.1167L70.575 15.2193C70.4936 15.1922 70.4427 15.1574 70.4044 15.1191L68.9902 16.5333ZM69.9528 17.12C70.2908 17.2286 70.6435 17.2778 71.0034 17.2778V15.2778C70.8262 15.2778 70.6825 15.2538 70.5648 15.2159L69.9528 17.12ZM71.0034 17.2778C71.8019 17.2778 72.5641 17.116 73.1765 16.673L72.0042 15.0526C71.8516 15.163 71.5558 15.2778 71.0034 15.2778V17.2778ZM73.1795 16.6708C73.7445 16.2588 74.1405 15.7044 74.3585 15.0388L72.4579 14.4162C72.3667 14.6947 72.2174 14.8971 72.0012 15.0548L73.1795 16.6708ZM74.3553 15.0486C74.5585 14.449 74.6523 13.8012 74.6523 13.1162H72.6523C72.6523 13.6194 72.5834 14.0458 72.4611 14.4065L74.3553 15.0486ZM83.8696 8.42871L83.4452 7.52318L83.4341 7.52855L83.8696 8.42871ZM83.2837 8.95361L82.4289 8.43464L82.422 8.44597L82.4154 8.45747L83.2837 8.95361ZM83.0884 9.7959V10.7959H84.0884V9.7959H83.0884ZM79.2798 9.7959H78.2798V10.7959H79.2798V9.7959ZM80.8301 6.78076L80.2179 5.99001L80.2117 5.99489L80.8301 6.78076ZM82.6367 5.87744L82.9261 6.83471L82.9363 6.83153L82.6367 5.87744ZM87.7515 6.07275L87.353 6.99004L87.3642 6.99474L87.7515 6.07275ZM89.6802 7.62305L88.8541 8.18669L88.8573 8.19124L89.6802 7.62305ZM90.5225 17.6206L89.5412 17.8134L89.5432 17.8236L89.5454 17.8338L90.5225 17.6206ZM90.9375 18.7925H91.9375V18.5411L91.8187 18.3197L90.9375 18.7925ZM90.9375 19V20H91.9375V19H90.9375ZM87.0923 19L86.1866 19.4239L86.4562 20H87.0923V19ZM86.6895 17.584L85.7016 17.7392L85.7019 17.7414L86.6895 17.584ZM87.0312 10.9434L88.0312 10.9317L88.0197 9.94336H87.0312V10.9434ZM87.0557 13.043V14.043H88.0674L88.0556 13.0313L87.0557 13.043ZM84.0649 13.2017L83.7412 12.2555L83.7335 12.2582L84.0649 13.2017ZM83.3325 13.6411L84.0237 14.3638L84.0318 14.3561L84.0396 14.3482L83.3325 13.6411ZM82.9175 14.2759L81.9786 13.9316L81.9753 13.9407L81.9721 13.9499L82.9175 14.2759ZM82.9907 15.7896L82.1304 16.2994L82.1347 16.3065L82.1391 16.3136L82.9907 15.7896ZM85.5908 16.1802L85.1119 15.3022L85.1035 15.307L85.5908 16.1802ZM86.4209 15.4722L87.2379 16.0489L87.2456 16.0377L86.4209 15.4722ZM86.7139 14.6787L87.5801 14.179L85.7139 10.9443V14.6787H86.7139ZM87.6294 16.2656L88.5413 16.676L88.7514 16.2092L88.4956 15.7659L87.6294 16.2656ZM87.0923 17.2788L87.9426 17.8052L87.948 17.7962L87.0923 17.2788ZM86.2866 18.2432L86.9556 18.9865L86.9657 18.9773L86.2866 18.2432ZM85.1025 18.9634L84.7283 18.036L84.7226 18.0384L85.1025 18.9634ZM81.1963 18.7437L80.7448 19.636L80.7534 19.6402L81.1963 18.7437ZM79.5728 17.3398L78.7424 17.8972L78.7477 17.9049L79.5728 17.3398ZM79.353 13.4458L78.4479 13.0207L79.353 13.4458ZM80.4883 12.0786L79.8986 11.271L79.8924 11.2755L80.4883 12.0786ZM82.417 11.2363L82.6523 12.2083L82.6619 12.2059L82.417 11.2363ZM87.5552 15.8506V10.1865H85.5552V15.8506H87.5552ZM87.5552 10.1865C87.5552 9.68956 87.4796 9.2067 87.2912 8.76721L85.4529 9.55505C85.5087 9.68523 85.5552 9.88596 85.5552 10.1865H87.5552ZM87.2912 8.76721C87.0896 8.2967 86.7634 7.91368 86.3283 7.64175L85.2683 9.33774C85.3541 9.39134 85.4104 9.45591 85.4529 9.55505L87.2912 8.76721ZM86.3283 7.64175C85.8624 7.35052 85.3238 7.24561 84.7852 7.24561V9.24561C85.0766 9.24561 85.2135 9.30345 85.2683 9.33774L86.3283 7.64175ZM84.7852 7.24561C84.3197 7.24561 83.8641 7.32691 83.4452 7.52325L84.2941 9.33417C84.396 9.28637 84.5507 9.24561 84.7852 9.24561V7.24561ZM83.4341 7.52855C83.0176 7.73007 82.6726 8.03327 82.4289 8.43464L84.1385 9.47259C84.1715 9.41822 84.2171 9.37149 84.3052 9.32887L83.4341 7.52855ZM82.4154 8.45747C82.1785 8.87215 82.0884 9.33457 82.0884 9.7959H84.0884C84.0884 9.58991 84.1285 9.4908 84.1519 9.44975L82.4154 8.45747ZM83.0884 8.7959H79.2798V10.7959H83.0884V8.7959ZM80.2798 9.7959C80.2798 9.35901 80.3769 8.96539 80.5684 8.59975L78.7968 7.67174C78.4512 8.33148 78.2798 9.04464 78.2798 9.7959H80.2798ZM80.5684 8.59975C80.7658 8.22305 81.0527 7.87809 81.4485 7.56663L80.2117 5.99489C79.6147 6.46468 79.1366 7.02304 78.7968 7.67174L80.5684 8.59975ZM81.4423 7.57149C81.8373 7.26566 82.3263 7.016 82.9261 6.83465L82.3473 4.92023C81.5474 5.16206 80.832 5.51462 80.2179 5.99004L81.4423 7.57149ZM82.9363 6.83153C83.523 6.6473 84.2051 6.54785 84.9927 6.54785V4.54785C84.0387 4.54785 83.1501 4.66813 82.3372 4.92336L82.9363 6.83153ZM84.9927 6.54785C85.913 6.54785 86.6933 6.70342 87.3531 6.98997L88.1499 5.15554C87.1983 4.74222 86.1394 4.54785 84.9927 4.54785V6.54785ZM87.3642 6.99474C88.0104 7.26612 88.4968 7.663 88.8542 8.18669L90.5062 7.05941C89.9195 6.19963 89.1202 5.56299 88.1387 5.15077L87.3642 6.99474ZM88.8573 8.19124C89.1877 8.66974 89.3882 9.32048 89.3882 10.2109H91.3882C91.3882 9.01806 91.1167 7.94355 90.5031 7.05486L88.8573 8.19124ZM89.3882 10.2109V15.7407H91.3882V10.2109H89.3882ZM89.3882 15.7407C89.3882 16.564 89.4335 17.2648 89.5412 17.8134L91.5037 17.4279C91.4324 17.0649 91.3882 16.5125 91.3882 15.7407H89.3882ZM89.5454 17.8338C89.6589 18.3537 89.8254 18.835 90.0563 19.2653L91.8187 18.3197C91.6915 18.0827 91.5814 17.7827 91.4995 17.4074L89.5454 17.8338ZM89.9375 18.7925V19H91.9375V18.7925H89.9375ZM90.9375 18H87.0923V20H90.9375V18ZM87.998 18.5761C87.8695 18.3016 87.7565 17.9255 87.677 17.4266L85.7019 17.7414C85.8014 18.3655 85.957 18.9334 86.1866 19.4239L87.998 18.5761ZM87.6773 17.4287C87.596 16.9113 87.5552 16.3854 87.5552 15.8506H85.5552C85.5552 16.4877 85.6039 17.1174 85.7016 17.7392L87.6773 17.4287ZM86.0313 10.955L86.0557 13.0546L88.0556 13.0313L88.0312 10.9317L86.0313 10.955ZM87.0557 12.043H85.1636V14.043H87.0557V12.043ZM85.1636 12.043C84.661 12.043 84.1803 12.1053 83.7413 12.2555L84.3886 14.1478C84.5681 14.0864 84.8198 14.043 85.1636 14.043V12.043ZM83.7335 12.2582C83.3197 12.4036 82.9381 12.6213 82.6254 12.934L84.0396 14.3482C84.1013 14.2865 84.208 14.2113 84.3964 14.1451L83.7335 12.2582ZM82.6413 12.9185C82.3433 13.2035 82.1205 13.5447 81.9786 13.9316L83.8564 14.6201C83.8935 14.5188 83.9474 14.4368 84.0237 14.3638L82.6413 12.9185ZM81.9721 13.9499C81.8499 14.3044 81.7954 14.6768 81.7954 15.0571H83.7954C83.7954 14.8678 83.8223 14.7194 83.8629 14.6019L81.9721 13.9499ZM81.7954 15.0571C81.7954 15.4954 81.904 15.9172 82.1304 16.2994L83.851 15.2797C83.817 15.2224 83.7954 15.1559 83.7954 15.0571H81.7954ZM82.1391 16.3136C82.3658 16.6821 82.6785 16.9695 83.0556 17.1715L84.0001 15.4086C83.9215 15.3665 83.8761 15.3202 83.8424 15.2655L82.1391 16.3136ZM83.0556 17.1715C83.451 17.3833 83.8827 17.4731 84.3213 17.4731V15.4731C84.1577 15.4731 84.0604 15.4409 84.0001 15.4086L83.0556 17.1715ZM84.3213 17.4731C84.9481 17.4731 85.5477 17.3495 86.0782 17.0534L85.1035 15.307C84.9341 15.4015 84.6873 15.4731 84.3213 15.4731V17.4731ZM86.0697 17.0581C86.5349 16.8043 86.9381 16.4735 87.2379 16.0489L85.6039 14.8955C85.513 15.0243 85.3629 15.1654 85.112 15.3023L86.0697 17.0581ZM87.2456 16.0377C87.5096 15.6528 87.7139 15.1925 87.7139 14.6787H85.7139C85.7139 14.6532 85.7229 14.7219 85.5962 14.9066L87.2456 16.0377ZM85.8477 15.1784L86.7632 16.7653L88.4956 15.7659L87.5801 14.179L85.8477 15.1784ZM86.7175 15.8553C86.5897 16.1392 86.4302 16.4411 86.2366 16.7614L87.948 17.7962C88.1775 17.4166 88.3761 17.0431 88.5413 16.676L86.7175 15.8553ZM86.242 16.7525C86.0825 17.0102 85.8737 17.2629 85.6076 17.5091L86.9657 18.9773C87.3506 18.6212 87.6789 18.231 87.9426 17.8052L86.242 16.7525ZM85.6177 17.4999C85.3903 17.7045 85.0992 17.8864 84.7283 18.036L85.4767 19.8907C86.0337 19.666 86.5319 19.3678 86.9556 18.9865L85.6177 17.4999ZM84.7226 18.0384C84.4181 18.1634 84.005 18.2441 83.4546 18.2441V20.2441C84.19 20.2441 84.8755 20.1377 85.4825 19.8884L84.7226 18.0384ZM83.4546 18.2441C82.7623 18.2441 82.1634 18.106 81.6392 17.8471L80.7534 19.6402C81.5801 20.0486 82.4868 20.2441 83.4546 20.2441V18.2441ZM81.6478 17.8514C81.1144 17.5815 80.7047 17.2229 80.3978 16.7748L78.7477 17.9049C79.2546 18.6449 79.9273 19.2222 80.7448 19.6359L81.6478 17.8514ZM80.4031 16.7825C80.1239 16.3666 79.9746 15.8804 79.9746 15.2891H77.9746C77.9746 16.2439 78.2241 17.1249 78.7425 17.8972L80.4031 16.7825ZM79.9746 15.2891C79.9746 14.7201 80.0779 14.2547 80.2582 13.8709L78.4479 13.0207C78.1236 13.7111 77.9746 14.4746 77.9746 15.2891H79.9746ZM80.2582 13.8709C80.436 13.4923 80.7043 13.1635 81.0841 12.8817L79.8924 11.2755C79.2632 11.7424 78.7746 12.3251 78.4479 13.0207L80.2582 13.8709ZM81.078 12.8862C81.4613 12.6063 81.9758 12.372 82.6523 12.2082L82.1817 10.2644C81.312 10.475 80.5406 10.8022 79.8986 11.271L81.078 12.8862ZM82.6619 12.2059C83.3354 12.0357 84.1531 11.9434 85.127 11.9434V9.94336C84.0338 9.94336 83.0448 10.0463 82.1721 10.2668L82.6619 12.2059ZM85.127 11.9434H87.0312V9.94336H85.127V11.9434ZM105.696 16.0459L106.153 16.9355L105.696 16.0459ZM106.392 15.3989L105.534 14.8844L105.53 14.8919L106.392 15.3989ZM106.648 14.3735V13.3735H105.648V14.3735H106.648ZM110.237 14.3735H111.237V13.3735H110.237V14.3735ZM109.492 16.9126L108.664 16.3515L108.66 16.3579L109.492 16.9126ZM107.515 18.6338L107.955 19.5317L107.962 19.5282L107.515 18.6338ZM102.021 18.7437L101.614 19.6567L101.622 19.6603L102.021 18.7437ZM98.9453 15.1914L97.9901 15.4875L97.9938 15.499L98.9453 15.1914ZM98.9453 9.61279L97.9928 9.308L97.9902 9.31669L98.9453 9.61279ZM102.009 6.06055L102.413 6.97558L102.417 6.97356L102.009 6.06055ZM107.563 6.17041L107.116 7.06484L107.12 7.06657L107.563 6.17041ZM109.529 7.96484L108.673 8.48196L108.675 8.48593L109.529 7.96484ZM110.237 10.7603V11.7603H111.237V10.7603H110.237ZM106.648 10.7603H105.648V11.7603H106.648V10.7603ZM106.416 9.625L105.497 10.0189L105.503 10.0323L105.509 10.0455L106.416 9.625ZM105.732 8.81934L105.173 9.64792L105.185 9.65657L105.198 9.66482L105.732 8.81934ZM103.462 8.81934L104.017 9.6514L104.022 9.64792L103.462 8.81934ZM102.473 10.8335L103.465 10.9621L103.465 10.9598L102.473 10.8335ZM102.473 13.9951L101.481 14.1192L101.481 14.1214L102.473 13.9951ZM102.791 15.1792L101.879 15.5914L101.883 15.6003L101.888 15.6091L102.791 15.1792ZM104.634 17.2778C105.168 17.2778 105.684 17.1759 106.153 16.9355L105.239 15.1563C105.105 15.2251 104.914 15.2778 104.634 15.2778V17.2778ZM106.153 16.9355C106.613 16.6992 106.989 16.355 107.254 15.9059L105.53 14.8919C105.468 14.9962 105.381 15.0833 105.239 15.1563L106.153 16.9355ZM107.249 15.9134C107.53 15.4446 107.648 14.917 107.648 14.3735H105.648C105.648 14.6275 105.595 14.7836 105.534 14.8844L107.249 15.9134ZM106.648 15.3735H110.237V13.3735H106.648V15.3735ZM109.237 14.3735C109.237 15.1517 109.039 15.7989 108.664 16.3515L110.32 17.4736C110.938 16.5614 111.237 15.516 111.237 14.3735H109.237ZM108.66 16.3579C108.274 16.9376 107.751 17.3978 107.067 17.7394L107.962 19.5282C108.939 19.0397 109.734 18.3525 110.324 17.4673L108.66 16.3579ZM107.074 17.7359C106.398 18.0675 105.616 18.2441 104.707 18.2441V20.2441C105.882 20.2441 106.971 20.0139 107.955 19.5317L107.074 17.7359ZM104.707 18.2441C103.789 18.2441 103.035 18.0946 102.421 17.827L101.622 19.6603C102.538 20.06 103.575 20.2441 104.707 20.2441V18.2441ZM102.429 17.8306C101.795 17.5473 101.281 17.1608 100.871 16.6722L99.3393 17.9586C99.9543 18.6907 100.718 19.2564 101.614 19.6567L102.429 17.8306ZM100.871 16.6722C100.446 16.1668 100.12 15.5744 99.8968 14.8838L97.9938 15.499C98.2914 16.4197 98.7385 17.2434 99.3393 17.9586L100.871 16.6722ZM99.9005 14.8953C99.6809 14.1871 99.5669 13.409 99.5669 12.5547H97.5669C97.5669 13.5884 97.7051 14.5681 97.9902 15.4875L99.9005 14.8953ZM99.5669 12.5547V12.2373H97.5669V12.5547H99.5669ZM99.5669 12.2373C99.5669 11.392 99.6807 10.6179 99.9005 9.90889L97.9902 9.31669C97.7054 10.2353 97.5669 11.2108 97.5669 12.2373H99.5669ZM99.8977 9.91757C100.121 9.21864 100.448 8.62352 100.871 8.11975L99.3393 6.83337C98.7371 7.5503 98.2901 8.37935 97.9929 9.30802L99.8977 9.91757ZM100.871 8.11975C101.281 7.63099 101.79 7.24992 102.413 6.97557L101.606 5.14552C100.715 5.53849 99.9541 6.10143 99.3393 6.83337L100.871 8.11975ZM102.417 6.97356C103.028 6.70044 103.779 6.54785 104.695 6.54785V4.54785C103.56 4.54785 102.52 4.73706 101.601 5.14754L102.417 6.97356ZM104.695 6.54785C105.648 6.54785 106.446 6.7299 107.116 7.06484L108.011 5.27598C107.02 4.78084 105.907 4.54785 104.695 4.54785V6.54785ZM107.12 7.06657C107.792 7.3993 108.302 7.86794 108.673 8.48196L110.385 7.44773C109.812 6.49924 109.012 5.7716 108.007 5.27425L107.12 7.06657ZM108.675 8.48593C109.034 9.0728 109.237 9.81594 109.237 10.7603H111.237C111.237 9.52358 110.968 8.40311 110.382 7.44376L108.675 8.48593ZM110.237 9.76025H106.648V11.7603H110.237V9.76025ZM107.648 10.7603C107.648 10.2137 107.548 9.68843 107.323 9.20454L105.509 10.0455C105.594 10.2289 105.648 10.4605 105.648 10.7603H107.648ZM107.335 9.23108C107.11 8.70657 106.75 8.27915 106.266 7.97385L105.198 9.66482C105.334 9.75015 105.429 9.85984 105.497 10.0189L107.335 9.23108ZM106.292 7.99075C105.791 7.65207 105.21 7.51416 104.609 7.51416V9.51416C104.904 9.51416 105.072 9.5797 105.173 9.64792L106.292 7.99075ZM104.609 7.51416C104.001 7.51416 103.409 7.64833 102.902 7.99075L104.022 9.64792C104.117 9.58344 104.29 9.51416 104.609 9.51416V7.51416ZM102.907 7.98729C102.442 8.2972 102.1 8.72481 101.876 9.23304L103.705 10.0414C103.79 9.84974 103.896 9.73209 104.017 9.65139L102.907 7.98729ZM101.876 9.23304C101.676 9.68557 101.548 10.1805 101.481 10.7072L103.465 10.9598C103.512 10.5914 103.596 10.2887 103.705 10.0414L101.876 9.23304ZM101.481 10.7049C101.418 11.1917 101.388 11.7029 101.388 12.2373H103.388C103.388 11.7788 103.414 11.3542 103.465 10.9621L101.481 10.7049ZM101.388 12.2373V12.5547H103.388V12.2373H101.388ZM101.388 12.5547C101.388 13.0967 101.418 13.6185 101.481 14.1192L103.465 13.8711C103.414 13.4603 103.388 13.0218 103.388 12.5547H101.388ZM101.481 14.1214C101.548 14.6484 101.676 15.1426 101.879 15.5914L103.702 14.767C103.595 14.5322 103.512 14.237 103.465 13.8689L101.481 14.1214ZM101.888 15.6091C102.122 16.1012 102.465 16.5139 102.919 16.8169L104.029 15.1528C103.897 15.0652 103.785 14.9408 103.693 14.7493L101.888 15.6091ZM102.919 16.8169C103.426 17.1549 104.026 17.2778 104.634 17.2778V15.2778C104.281 15.2778 104.108 15.2054 104.029 15.1528L102.919 16.8169ZM111.995 9.60059L112.941 9.92249L112.942 9.91963L111.995 9.60059ZM115.193 6.06055L115.586 6.98022L115.594 6.9767L115.193 6.06055ZM120.588 6.06055L120.188 6.97678L120.199 6.98165L120.588 6.06055ZM123.799 9.60059L122.851 9.91963L122.852 9.92249L123.799 9.60059ZM123.799 15.2036L124.746 15.5255L124.747 15.5227L123.799 15.2036ZM122.578 17.3398L123.324 18.0055L123.329 18.0005L122.578 17.3398ZM115.205 18.7437L114.816 19.6648L115.205 18.7437ZM113.215 17.3398L112.465 18.0005L112.469 18.0055L113.215 17.3398ZM111.995 15.2036L111.047 15.5227L111.048 15.5255L111.995 15.2036ZM115.522 13.9951L114.538 14.1709L114.54 14.1794L114.541 14.1879L115.522 13.9951ZM116.719 15.9971L116.195 16.8487L116.207 16.8565L116.22 16.864L116.719 15.9971ZM119.075 15.9971L119.583 16.8584L119.591 16.8537L119.599 16.8487L119.075 15.9971ZM120.259 13.9951L119.278 13.8024L119.276 13.8108L119.274 13.8193L120.259 13.9951ZM120.259 10.8335L119.274 11.0093L119.276 11.0195L119.278 11.0296L120.259 10.8335ZM119.062 8.80713L118.538 9.65884L118.548 9.66462L119.062 8.80713ZM115.522 10.8335L114.541 10.6407L114.539 10.6546L115.522 10.8335ZM112.58 12.5303V12.2739H110.58V12.5303H112.58ZM112.58 12.2739C112.58 11.4013 112.704 10.6204 112.941 9.92249L111.048 9.27868C110.732 10.2084 110.58 11.2097 110.58 12.2739H112.58ZM112.942 9.91963C113.179 9.21595 113.521 8.62409 113.962 8.12997L112.469 6.79874C111.836 7.50905 111.363 8.34135 111.047 9.28154L112.942 9.91963ZM113.962 8.12997C114.396 7.64314 114.932 7.25928 115.586 6.98019L114.8 5.14091C113.891 5.52914 113.109 6.08115 112.469 6.79874L113.962 8.12997ZM115.594 6.9767C116.228 6.69939 116.982 6.54785 117.878 6.54785V4.54785C116.756 4.54785 115.721 4.73811 114.792 5.14439L115.594 6.9767ZM117.878 6.54785C118.793 6.54785 119.556 6.70022 120.188 6.9767L120.989 5.14439C120.059 4.73728 119.014 4.54785 117.878 4.54785V6.54785ZM120.199 6.98165C120.861 7.26129 121.399 7.64511 121.832 8.12997L123.324 6.79874C122.683 6.07918 121.895 5.52712 120.978 5.13945L120.199 6.98165ZM121.832 8.12997C122.273 8.62409 122.614 9.21595 122.851 9.91963L124.747 9.28154C124.43 8.34135 123.958 7.50905 123.324 6.79874L121.832 8.12997ZM122.852 9.92249C123.089 10.6204 123.214 11.4013 123.214 12.2739H125.214C125.214 11.2097 125.062 10.2084 124.746 9.27868L122.852 9.92249ZM123.214 12.2739V12.5303H125.214V12.2739H123.214ZM123.214 12.5303C123.214 13.3936 123.09 14.1758 122.851 14.8846L124.747 15.5227C125.061 14.5875 125.214 13.5875 125.214 12.5303H123.214ZM122.852 14.8817C122.615 15.578 122.273 16.1733 121.827 16.6792L123.329 18.0005C123.958 17.2856 124.429 16.4568 124.746 15.5255L122.852 14.8817ZM121.832 16.6742C121.398 17.1611 120.861 17.5449 120.208 17.824L120.993 19.6633C121.902 19.2751 122.684 18.7231 123.324 18.0055L121.832 16.6742ZM120.208 17.824C119.573 18.0953 118.811 18.2441 117.903 18.2441V20.2441C119.029 20.2441 120.066 20.0594 120.993 19.6633L120.208 17.824ZM117.903 18.2441C117.004 18.2441 116.241 18.0957 115.594 17.8226L114.816 19.6648C115.748 20.0589 116.783 20.2441 117.903 20.2441V18.2441ZM115.594 17.8226C114.933 17.5429 114.394 17.1591 113.962 16.6742L112.469 18.0055C113.111 18.725 113.899 19.2771 114.816 19.6648L115.594 17.8226ZM113.966 16.6792C113.521 16.1733 113.178 15.578 112.941 14.8817L111.048 15.5255C111.364 16.4568 111.836 17.2856 112.465 18.0005L113.966 16.6792ZM112.942 14.8846C112.704 14.1758 112.58 13.3936 112.58 12.5303H110.58C110.58 13.5875 110.732 14.5875 111.047 15.5227L112.942 14.8846ZM114.4 12.2739V12.5303H116.4V12.2739H114.4ZM114.4 12.5303C114.4 13.1029 114.445 13.6505 114.538 14.1709L116.507 13.8193C116.437 13.4283 116.4 12.9993 116.4 12.5303H114.4ZM114.541 14.1879C114.648 14.7315 114.824 15.2362 115.081 15.6875L116.818 14.6953C116.685 14.463 116.576 14.1702 116.504 13.8024L114.541 14.1879ZM115.081 15.6875C115.355 16.1663 115.726 16.5606 116.195 16.8487L117.243 15.1454C117.076 15.0429 116.935 14.9001 116.818 14.6953L115.081 15.6875ZM116.22 16.864C116.729 17.1567 117.305 17.2778 117.903 17.2778V15.2778C117.573 15.2778 117.359 15.2118 117.217 15.1302L116.22 16.864ZM117.903 17.2778C118.5 17.2778 119.076 17.1571 119.583 16.8584L118.567 15.1357C118.438 15.2114 118.234 15.2778 117.903 15.2778V17.2778ZM119.599 16.8487C120.067 16.5606 120.438 16.1663 120.712 15.6875L118.976 14.6953C118.858 14.9001 118.717 15.0429 118.551 15.1454L119.599 16.8487ZM120.712 15.6875C120.973 15.2306 121.145 14.7199 121.243 14.1709L119.274 13.8193C119.21 14.1818 119.105 14.4686 118.976 14.6953L120.712 15.6875ZM121.24 14.1879C121.343 13.6615 121.393 13.1081 121.393 12.5303H119.393C119.393 12.9941 119.353 13.4172 119.278 13.8024L121.24 14.1879ZM121.393 12.5303V12.2739H119.393V12.5303H121.393ZM121.393 12.2739C121.393 11.7033 121.343 11.1569 121.239 10.6374L119.278 11.0296C119.353 11.4053 119.393 11.8192 119.393 12.2739H121.393ZM121.243 10.6577C121.145 10.1093 120.974 9.59827 120.717 9.13763L118.971 10.1124C119.104 10.3516 119.21 10.6462 119.274 11.0093L121.243 10.6577ZM120.717 9.13763C120.441 8.64392 120.061 8.23992 119.577 7.94964L118.548 9.66462C118.715 9.76496 118.855 9.90621 118.971 10.1124L120.717 9.13763ZM119.587 7.95547C119.075 7.64043 118.487 7.51416 117.878 7.51416V9.51416C118.214 9.51416 118.416 9.58321 118.538 9.65879L119.587 7.95547ZM117.878 7.51416C117.279 7.51416 116.701 7.6436 116.195 7.95547L117.243 9.65879C117.371 9.58003 117.566 9.51416 117.878 9.51416V7.51416ZM116.195 7.95547C115.721 8.24709 115.349 8.65002 115.077 9.13763L116.823 10.1124C116.941 9.90011 117.082 9.75779 117.243 9.65879L116.195 7.95547ZM115.077 9.13763C114.822 9.59276 114.648 10.0978 114.541 10.6408L116.504 11.0262C116.576 10.6577 116.686 10.3571 116.823 10.1124L115.077 9.13763ZM114.539 10.6546C114.445 11.1681 114.4 11.7087 114.4 12.2739H116.4C116.4 11.8138 116.437 11.3941 116.506 11.0124L114.539 10.6546ZM129.951 8.61182H130.951V8.57076L130.948 8.52984L129.951 8.61182ZM129.951 19V20H130.951V19H129.951ZM126.13 19H125.13V20H126.13V19ZM126.13 5.79199V4.79199H125.13V5.79199H126.13ZM129.719 5.79199L130.716 5.71002L130.64 4.79199H129.719V5.79199ZM129.451 11.9321L129.476 12.9318L130.451 12.9068V11.9321H129.451ZM128.499 11.9565H127.499V12.9825L128.524 12.9562L128.499 11.9565ZM129.902 7.26904L129.126 6.63887L129.125 6.64017L129.902 7.26904ZM131.526 5.9873L131.107 5.07933L131.102 5.08142L131.526 5.9873ZM136.641 6.68311L135.904 7.35951L135.911 7.36734L135.919 7.37501L136.641 6.68311ZM137.495 8.24561L136.537 8.53296L136.538 8.53629L137.495 8.24561ZM137.788 19V20H138.788V19H137.788ZM133.955 19H132.955V20H133.955V19ZM133.04 8.69727L132.655 9.62039L132.664 9.624L133.04 8.69727ZM130.818 8.78271L131.292 9.66319L131.301 9.65852L131.309 9.65369L130.818 8.78271ZM129.585 10.5894L128.612 10.3603L128.609 10.3694L128.607 10.3785L129.585 10.5894ZM128.951 8.61182V19H130.951V8.61182H128.951ZM129.951 18H126.13V20H129.951V18ZM127.13 19V5.79199H125.13V19H127.13ZM126.13 6.79199H129.719V4.79199H126.13V6.79199ZM128.723 5.87397L128.955 8.69379L130.948 8.52984L130.716 5.71002L128.723 5.87397ZM129.425 10.9325L128.473 10.9569L128.524 12.9562L129.476 12.9318L129.425 10.9325ZM129.499 11.9565C129.499 11.0444 129.611 10.2554 129.82 9.57867L127.909 8.98773C127.63 9.88983 127.499 10.883 127.499 11.9565H129.499ZM129.82 9.57867C130.033 8.89143 130.324 8.33791 130.68 7.89791L129.125 6.64017C128.586 7.30694 128.185 8.0962 127.909 8.98773L129.82 9.57867ZM130.679 7.89921C131.044 7.44961 131.466 7.11919 131.949 6.89319L131.102 5.08142C130.332 5.44136 129.672 5.96543 129.126 6.63887L130.679 7.89921ZM131.945 6.89526C132.436 6.66846 132.991 6.54785 133.625 6.54785V4.54785C132.73 4.54785 131.885 4.72021 131.107 5.07935L131.945 6.89526ZM133.625 6.54785C134.147 6.54785 134.599 6.62322 134.993 6.7605L135.652 4.87231C135.02 4.65152 134.341 4.54785 133.625 4.54785V6.54785ZM134.993 6.7605C135.35 6.88537 135.65 7.08253 135.904 7.35951L137.377 6.0067C136.899 5.48616 136.32 5.10552 135.652 4.87231L134.993 6.7605ZM135.919 7.37501C136.159 7.62581 136.376 7.99557 136.537 8.53295L138.453 7.95826C138.224 7.19356 137.871 6.52165 137.363 5.9912L135.919 7.37501ZM136.538 8.53629C136.696 9.05542 136.788 9.74391 136.788 10.626H138.788C138.788 9.62002 138.685 8.7216 138.452 7.95493L136.538 8.53629ZM136.788 10.626V19H138.788V10.626H136.788ZM137.788 18H133.955V20H137.788V18ZM134.955 19V10.6138H132.955V19H134.955ZM134.955 10.6138C134.955 9.99088 134.872 9.38009 134.613 8.87523L132.834 9.78884C132.884 9.88619 132.955 10.1299 132.955 10.6138H134.955ZM134.613 8.87523C134.354 8.37069 133.948 7.98664 133.415 7.77053L132.664 9.624C132.733 9.65203 132.783 9.69116 132.834 9.78884L134.613 8.87523ZM133.424 7.77419C132.976 7.58747 132.479 7.51416 131.965 7.51416V9.51416C132.298 9.51416 132.517 9.56292 132.655 9.62034L133.424 7.77419ZM131.965 7.51416C131.385 7.51416 130.825 7.63084 130.327 7.91174L131.309 9.65369C131.446 9.57652 131.651 9.51416 131.965 9.51416V7.51416ZM130.344 7.90224C129.876 8.15393 129.493 8.50941 129.201 8.95331L130.872 10.0525C130.987 9.87796 131.125 9.75329 131.292 9.66319L130.344 7.90224ZM129.201 8.95331C128.924 9.37415 128.732 9.84822 128.612 10.3603L130.558 10.8184C130.633 10.5004 130.742 10.2502 130.872 10.0525L129.201 8.95331ZM128.607 10.3785C128.501 10.8712 128.451 11.3902 128.451 11.9321H130.451C130.451 11.5138 130.49 11.1376 130.562 10.8002L128.607 10.3785ZM146.992 5.79199H147.992V4.79199H146.992V5.79199ZM146.992 8.46533V9.46533H147.992V8.46533H146.992ZM139.155 8.46533H138.155V9.46533H139.155V8.46533ZM139.155 5.79199V4.79199H138.155V5.79199H139.155ZM140.95 2.52051V1.52051H139.95V2.52051H140.95ZM144.771 2.52051H145.771V1.52051H144.771V2.52051ZM145.344 16.1191L144.973 17.0476L144.989 17.0541L145.006 17.06L145.344 16.1191ZM147.163 16.1436H148.163V14.9516L146.989 15.1588L147.163 16.1436ZM147.163 18.9023L147.472 19.8534L148.163 19.6288V18.9023H147.163ZM146.125 19.1465L145.972 18.1584L145.961 18.16L145.95 18.1619L146.125 19.1465ZM142.793 18.8413L142.381 19.7525L142.386 19.7546L142.793 18.8413ZM141.426 17.5718L140.546 18.0481L140.549 18.0532L141.426 17.5718ZM145.992 5.79199V8.46533H147.992V5.79199H145.992ZM146.992 7.46533H139.155V9.46533H146.992V7.46533ZM140.155 8.46533V5.79199H138.155V8.46533H140.155ZM139.155 6.79199H146.992V4.79199H139.155V6.79199ZM140.95 3.52051H144.771V1.52051H140.95V3.52051ZM143.771 2.52051V14.8618H145.771V2.52051H143.771ZM143.771 14.8618C143.771 15.2843 143.818 15.7335 143.996 16.1208L145.814 15.2874C145.817 15.2939 145.804 15.2675 145.792 15.1896C145.779 15.1136 145.771 15.0064 145.771 14.8618H143.771ZM143.996 16.1208C144.194 16.5545 144.536 16.873 144.973 17.0476L145.716 15.1907C145.72 15.1926 145.742 15.2028 145.768 15.2273C145.795 15.2521 145.809 15.2762 145.814 15.2874L143.996 16.1208ZM145.006 17.06C145.356 17.1861 145.742 17.229 146.125 17.229V15.229C145.875 15.229 145.74 15.1987 145.683 15.1783L145.006 17.06ZM146.125 17.229C146.375 17.229 146.605 17.2202 146.811 17.1996L146.612 15.2096C146.492 15.2215 146.332 15.229 146.125 15.229V17.229ZM146.811 17.1996C146.995 17.1813 147.17 17.1577 147.337 17.1283L146.989 15.1588C146.879 15.1782 146.754 15.1954 146.612 15.2096L146.811 17.1996ZM146.163 16.1436V18.9023H148.163V16.1436H146.163ZM146.854 17.9513C146.583 18.0393 146.29 18.1089 145.972 18.1584L146.279 20.1346C146.694 20.0701 147.092 19.9769 147.472 19.8534L146.854 17.9513ZM145.95 18.1619C145.65 18.2153 145.311 18.2441 144.929 18.2441V20.2441C145.41 20.2441 145.868 20.2079 146.301 20.131L145.95 18.1619ZM144.929 18.2441C144.214 18.2441 143.647 18.1271 143.2 17.928L142.386 19.7546C143.144 20.0926 144.001 20.2441 144.929 20.2441V18.2441ZM143.205 17.9301C142.81 17.7518 142.517 17.4806 142.302 17.0903L140.549 18.0532C140.97 18.8185 141.587 19.3937 142.381 19.7525L143.205 17.9301ZM142.305 17.0955C142.092 16.703 141.95 16.1221 141.95 15.2891H139.95C139.95 16.3278 140.124 17.2687 140.546 18.0481L142.305 17.0955ZM141.95 15.2891V2.52051H139.95V15.2891H141.95ZM153.132 8.42871L152.708 7.52318L152.697 7.52855L153.132 8.42871ZM152.546 8.95361L151.692 8.43464L151.685 8.44597L151.678 8.45747L152.546 8.95361ZM152.351 9.7959V10.7959H153.351V9.7959H152.351ZM148.542 9.7959H147.542V10.7959H148.542V9.7959ZM150.093 6.78076L149.481 5.99001L149.474 5.99489L150.093 6.78076ZM151.899 5.87744L152.189 6.83471L152.199 6.83153L151.899 5.87744ZM157.014 6.07275L156.616 6.99004L156.627 6.99474L157.014 6.07275ZM158.943 7.62305L158.117 8.18669L158.12 8.19124L158.943 7.62305ZM159.785 17.6206L158.804 17.8134L158.806 17.8236L158.808 17.8338L159.785 17.6206ZM160.2 18.7925H161.2V18.5411L161.081 18.3197L160.2 18.7925ZM160.2 19V20H161.2V19H160.2ZM156.355 19L155.449 19.4239L155.719 20H156.355V19ZM155.952 17.584L154.964 17.7392L154.965 17.7414L155.952 17.584ZM156.294 10.9434L157.294 10.9317L157.282 9.94336H156.294V10.9434ZM156.318 13.043V14.043H157.33L157.318 13.0313L156.318 13.043ZM153.328 13.2017L153.004 12.2555L152.996 12.2582L153.328 13.2017ZM152.595 13.6411L153.286 14.3638L153.294 14.3561L153.302 14.3482L152.595 13.6411ZM152.18 14.2759L151.241 13.9316L151.238 13.9407L151.235 13.9499L152.18 14.2759ZM152.253 15.7896L151.393 16.2994L151.397 16.3065L151.402 16.3136L152.253 15.7896ZM154.854 16.1802L154.375 15.3022L154.366 15.307L154.854 16.1802ZM155.684 15.4722L156.501 16.0489L156.508 16.0377L155.684 15.4722ZM155.977 14.6787L156.843 14.179L154.977 10.9443V14.6787H155.977ZM156.892 16.2656L157.804 16.676L158.014 16.2092L157.758 15.7659L156.892 16.2656ZM156.355 17.2788L157.205 17.8052L157.211 17.7962L156.355 17.2788ZM155.549 18.2432L156.218 18.9865L156.228 18.9773L155.549 18.2432ZM154.365 18.9634L153.991 18.036L153.985 18.0384L154.365 18.9634ZM150.459 18.7437L150.007 19.636L150.016 19.6402L150.459 18.7437ZM148.835 17.3398L148.005 17.8972L148.01 17.9049L148.835 17.3398ZM148.616 13.4458L147.711 13.0207L148.616 13.4458ZM149.751 12.0786L149.161 11.271L149.155 11.2755L149.751 12.0786ZM151.68 11.2363L151.915 12.2083L151.925 12.2059L151.68 11.2363ZM156.818 15.8506V10.1865H154.818V15.8506H156.818ZM156.818 10.1865C156.818 9.68956 156.742 9.2067 156.554 8.76721L154.716 9.55505C154.771 9.68523 154.818 9.88596 154.818 10.1865H156.818ZM156.554 8.76721C156.352 8.2967 156.026 7.91368 155.591 7.64175L154.531 9.33774C154.617 9.39134 154.673 9.45591 154.716 9.55505L156.554 8.76721ZM155.591 7.64175C155.125 7.35052 154.586 7.24561 154.048 7.24561V9.24561C154.339 9.24561 154.476 9.30345 154.531 9.33774L155.591 7.64175ZM154.048 7.24561C153.582 7.24561 153.127 7.32691 152.708 7.52325L153.557 9.33417C153.659 9.28637 153.813 9.24561 154.048 9.24561V7.24561ZM152.697 7.52855C152.28 7.73007 151.935 8.03327 151.692 8.43464L153.401 9.47259C153.434 9.41822 153.48 9.37149 153.568 9.32887L152.697 7.52855ZM151.678 8.45747C151.441 8.87215 151.351 9.33457 151.351 9.7959H153.351C153.351 9.58991 153.391 9.4908 153.415 9.44975L151.678 8.45747ZM152.351 8.7959H148.542V10.7959H152.351V8.7959ZM149.542 9.7959C149.542 9.35901 149.64 8.96539 149.831 8.59975L148.059 7.67174C147.714 8.33148 147.542 9.04464 147.542 9.7959H149.542ZM149.831 8.59975C150.028 8.22305 150.315 7.87809 150.711 7.56663L149.474 5.99489C148.877 6.46468 148.399 7.02304 148.059 7.67174L149.831 8.59975ZM150.705 7.57149C151.1 7.26566 151.589 7.016 152.189 6.83465L151.61 4.92023C150.81 5.16206 150.095 5.51462 149.481 5.99004L150.705 7.57149ZM152.199 6.83153C152.786 6.6473 153.468 6.54785 154.255 6.54785V4.54785C153.301 4.54785 152.413 4.66813 151.6 4.92336L152.199 6.83153ZM154.255 6.54785C155.176 6.54785 155.956 6.70342 156.616 6.98997L157.413 5.15554C156.461 4.74222 155.402 4.54785 154.255 4.54785V6.54785ZM156.627 6.99474C157.273 7.26612 157.76 7.663 158.117 8.18669L159.769 7.05941C159.182 6.19963 158.383 5.56299 157.401 5.15077L156.627 6.99474ZM158.12 8.19124C158.45 8.66974 158.651 9.32048 158.651 10.2109H160.651C160.651 9.01806 160.379 7.94355 159.766 7.05486L158.12 8.19124ZM158.651 10.2109V15.7407H160.651V10.2109H158.651ZM158.651 15.7407C158.651 16.564 158.696 17.2648 158.804 17.8134L160.766 17.4279C160.695 17.0649 160.651 16.5125 160.651 15.7407H158.651ZM158.808 17.8338C158.922 18.3537 159.088 18.835 159.319 19.2653L161.081 18.3197C160.954 18.0827 160.844 17.7827 160.762 17.4074L158.808 17.8338ZM159.2 18.7925V19H161.2V18.7925H159.2ZM160.2 18H156.355V20H160.2V18ZM157.261 18.5761C157.132 18.3016 157.019 17.9255 156.94 17.4266L154.965 17.7414C155.064 18.3655 155.22 18.9334 155.449 19.4239L157.261 18.5761ZM156.94 17.4287C156.859 16.9113 156.818 16.3854 156.818 15.8506H154.818C154.818 16.4877 154.867 17.1174 154.964 17.7392L156.94 17.4287ZM155.294 10.955L155.318 13.0546L157.318 13.0313L157.294 10.9317L155.294 10.955ZM156.318 12.043H154.426V14.043H156.318V12.043ZM154.426 12.043C153.924 12.043 153.443 12.1053 153.004 12.2555L153.651 14.1478C153.831 14.0864 154.082 14.043 154.426 14.043V12.043ZM152.996 12.2582C152.582 12.4036 152.201 12.6213 151.888 12.934L153.302 14.3482C153.364 14.2865 153.471 14.2113 153.659 14.1451L152.996 12.2582ZM151.904 12.9185C151.606 13.2035 151.383 13.5447 151.241 13.9316L153.119 14.6201C153.156 14.5188 153.21 14.4368 153.286 14.3638L151.904 12.9185ZM151.235 13.9499C151.113 14.3044 151.058 14.6768 151.058 15.0571H153.058C153.058 14.8678 153.085 14.7194 153.126 14.6019L151.235 13.9499ZM151.058 15.0571C151.058 15.4954 151.167 15.9172 151.393 16.2994L153.114 15.2797C153.08 15.2224 153.058 15.1559 153.058 15.0571H151.058ZM151.402 16.3136C151.628 16.6821 151.941 16.9695 152.318 17.1715L153.263 15.4086C153.184 15.3665 153.139 15.3202 153.105 15.2655L151.402 16.3136ZM152.318 17.1715C152.714 17.3833 153.145 17.4731 153.584 17.4731V15.4731C153.42 15.4731 153.323 15.4409 153.263 15.4086L152.318 17.1715ZM153.584 17.4731C154.211 17.4731 154.81 17.3495 155.341 17.0534L154.366 15.307C154.197 15.4015 153.95 15.4731 153.584 15.4731V17.4731ZM155.332 17.0581C155.798 16.8043 156.201 16.4735 156.501 16.0489L154.867 14.8955C154.776 15.0243 154.626 15.1654 154.375 15.3023L155.332 17.0581ZM156.508 16.0377C156.772 15.6528 156.977 15.1925 156.977 14.6787H154.977C154.977 14.6532 154.986 14.7219 154.859 14.9066L156.508 16.0377ZM155.11 15.1784L156.026 16.7653L157.758 15.7659L156.843 14.179L155.11 15.1784ZM155.98 15.8553C155.852 16.1392 155.693 16.4411 155.499 16.7614L157.211 17.7962C157.44 17.4166 157.639 17.0431 157.804 16.676L155.98 15.8553ZM155.505 16.7525C155.345 17.0102 155.136 17.2629 154.87 17.5091L156.228 18.9773C156.613 18.6212 156.942 18.231 157.205 17.8052L155.505 16.7525ZM154.88 17.4999C154.653 17.7045 154.362 17.8864 153.991 18.036L154.739 19.8907C155.296 19.666 155.795 19.3678 156.218 18.9865L154.88 17.4999ZM153.985 18.0384C153.681 18.1634 153.268 18.2441 152.717 18.2441V20.2441C153.453 20.2441 154.138 20.1377 154.745 19.8884L153.985 18.0384ZM152.717 18.2441C152.025 18.2441 151.426 18.106 150.902 17.8471L150.016 19.6402C150.843 20.0486 151.749 20.2441 152.717 20.2441V18.2441ZM150.91 17.8514C150.377 17.5815 149.967 17.2229 149.66 16.7748L148.01 17.9049C148.517 18.6449 149.19 19.2222 150.007 19.6359L150.91 17.8514ZM149.666 16.7825C149.387 16.3666 149.237 15.8804 149.237 15.2891H147.237C147.237 16.2439 147.487 17.1249 148.005 17.8972L149.666 16.7825ZM149.237 15.2891C149.237 14.7201 149.341 14.2547 149.521 13.8709L147.711 13.0207C147.386 13.7111 147.237 14.4746 147.237 15.2891H149.237ZM149.521 13.8709C149.699 13.4923 149.967 13.1635 150.347 12.8817L149.155 11.2755C148.526 11.7424 148.037 12.3251 147.711 13.0207L149.521 13.8709ZM150.341 12.8862C150.724 12.6063 151.238 12.372 151.915 12.2082L151.444 10.2644C150.575 10.475 149.803 10.8022 149.161 11.271L150.341 12.8862ZM151.925 12.2059C152.598 12.0357 153.416 11.9434 154.39 11.9434V9.94336C153.296 9.94336 152.307 10.0463 151.435 10.2668L151.925 12.2059ZM154.39 11.9434H156.294V9.94336H154.39V11.9434Z" fill="white" mask="url(#path-1-outside-1_88_2)"/>
</svg>
