<svg width="49" height="49" viewBox="0 0 49 49" fill="none" xmlns="http://www.w3.org/2000/svg">
<g clip-path="url(#clip0_63_51)">
<path d="M24.5 48.6937C38.031 48.6937 49 37.7247 49 24.1937C49 10.6627 38.031 -0.306274 24.5 -0.306274C10.969 -0.306274 0 10.6627 0 24.1937C0 37.7247 10.969 48.6937 24.5 48.6937Z" fill="#4AA9FF"/>
<g opacity="0.2">
<path d="M18.6047 31.3906H16.8438L18.5281 28.4046C19.1406 27.3328 18.7578 25.8781 17.6859 25.2656L13.0922 22.5859C12.0203 21.9734 10.5656 22.3562 9.95312 23.4281L7.35 27.9453C6.7375 29.0171 6.7375 30.8546 7.35 31.9265L11.6375 39.2765C11.9437 39.8125 12.4797 40.3484 13.1688 40.7312H13.2453C13.8578 41.0375 14.4703 41.2671 15.0828 41.2671H20.2891L23.3516 36.0609L20.2891 31.314H18.6047V31.3906Z" fill="#231F20"/>
</g>
<g opacity="0.2">
<path d="M41.65 28.0218L39.0469 23.4281H32.9984L30.4719 28.4047L31.3141 29.8594L32.2328 31.3906H28.7875C27.4859 31.3906 26.4906 32.3859 26.4906 33.6875V39.0469C26.4906 40.2719 27.4859 41.3437 28.7875 41.3437H34.0703C35.3719 41.3437 36.9031 40.425 37.5156 39.3531L41.8031 32.0031C42.1094 31.4672 42.2625 30.7015 42.2625 30.0125C42.1094 29.2469 41.9563 28.5578 41.65 28.0218Z" fill="#231F20"/>
</g>
<g opacity="0.2">
<path d="M29.3234 21.9734L33.9172 19.2937C34.9891 18.6812 35.3719 17.2265 34.7594 16.1547L32.1563 11.6375C31.5438 10.5656 30.0125 9.64685 28.7109 9.64685H20.2125C19.6 9.64685 18.8344 9.87654 18.2219 10.2594C18.2219 10.2594 18.1453 10.2594 18.1453 10.3359C17.5328 10.7187 17.0734 11.1781 16.7672 11.714L14.0875 16.3078L17.15 21.5906H22.7391L24.4234 18.375L26.1078 21.3609C26.8734 22.2797 28.2516 22.5859 29.3234 21.9734Z" fill="#231F20"/>
</g>
<path d="M16.8438 29.8594L13.0156 36.5203C13.0156 36.5203 12.4031 37.5156 12.4797 38.3578C12.4797 38.7406 12.6328 39.0469 13.0922 39.2766C13.7047 39.6594 14.3938 39.8125 15.0063 39.8125H20.2125L23.275 34.6063L20.2125 29.8594H16.8438Z" fill="#009957"/>
<path d="M12.5562 38.2812C12.4797 37.439 13.0922 36.4437 13.0922 36.4437L16.9203 29.7828L18.6047 26.7969C19.2172 25.725 18.8344 24.2703 17.7625 23.6578L13.1687 20.9781C12.0969 20.3656 10.6422 20.7484 10.0297 21.8203L7.42656 26.3375C6.81406 27.4094 6.81406 29.2469 7.42656 30.3187L11.7141 37.6687C12.0203 38.2047 12.5562 38.7406 13.2453 39.1234C12.7094 39.0469 12.5562 38.664 12.5562 38.2812Z" fill="#00C566"/>
<g opacity="0.2">
<path d="M16.8438 29.8594L13.0156 36.5203C13.0156 36.5203 12.4031 37.5156 12.4797 38.3578C12.4797 38.7406 12.6328 39.0469 13.0922 39.2766H13.1688L18.6047 29.8594H16.8438Z" fill="#231F20"/>
</g>
<path d="M32.1563 29.8594H39.8125C39.8125 29.8594 40.9609 29.8594 41.65 29.4C41.9563 29.1703 42.1859 28.8641 42.1859 28.4047C42.1859 27.7156 42.0328 26.95 41.7266 26.4141L39.1234 21.8203H33.075L30.5484 26.7969L32.1563 29.8594Z" fill="#009957"/>
<path d="M41.65 29.4C40.9609 29.8593 39.8125 29.8593 39.8125 29.8593H32.1562H28.7109C27.4094 29.8593 26.4141 30.8546 26.4141 32.1562V37.5156C26.4141 38.7406 27.4094 39.8125 28.7109 39.8125H33.9938C35.2953 39.8125 36.8266 38.8937 37.4391 37.8218L41.7266 30.4718C42.0328 29.9359 42.1859 29.1703 42.1859 28.4812C42.1859 28.864 41.9563 29.1703 41.65 29.4Z" fill="#00C566"/>
<g opacity="0.2">
<path d="M32.1563 29.8594H39.8125C39.8125 29.8594 40.9609 29.8594 41.65 29.4C41.9563 29.1703 42.1859 28.8641 42.1859 28.4047V28.3281H31.3141L32.1563 29.8594Z" fill="#231F20"/>
</g>
<path d="M24.5 16.6906L20.6719 10.0297C20.6719 10.0297 20.1359 9.03438 19.3703 8.65156C19.0641 8.49844 18.6812 8.42187 18.2984 8.72812C17.6859 9.11094 17.15 9.57031 16.8438 10.1062L14.1641 14.7L17.2266 19.9828H22.8156L24.5 16.6906Z" fill="#009957"/>
<path d="M19.3703 8.65151C20.1359 9.03433 20.6719 10.0296 20.6719 10.0296L24.5 16.6906L26.1844 19.6765C26.7969 20.7484 28.2516 21.1312 29.3234 20.5187L33.9172 17.839C34.9891 17.2265 35.3719 15.7718 34.7594 14.7L32.1562 10.1828C31.5437 9.11089 30.0125 8.19214 28.7109 8.19214H20.2125C19.6 8.19214 18.8344 8.42183 18.2219 8.80464C18.6047 8.42183 18.9875 8.49839 19.3703 8.65151Z" fill="#00C566"/>
<g opacity="0.2">
<path d="M24.5 16.6906L20.6719 10.0297C20.6719 10.0297 20.1359 9.03438 19.3703 8.65156C19.0641 8.49844 18.6812 8.42187 18.2984 8.72812C18.2984 8.72812 18.2219 8.72813 18.2219 8.80469L23.6578 18.2219L24.5 16.6906Z" fill="#231F20"/>
</g>
</g>
<defs>
<clipPath id="clip0_63_51">
<rect width="49" height="49" fill="white"/>
</clipPath>
</defs>
</svg>
