<svg width="53" height="61" viewBox="0 0 53 61" fill="none" xmlns="http://www.w3.org/2000/svg">
<path d="M12.2322 14.6102L2.07475 16.9982L3.69684 34.5211C3.83431 36.0069 4.9235 37.1338 6.22168 37.1338H18.2426C19.5408 37.1338 20.6299 36.0069 20.7675 34.5211L22.3895 16.9982L12.2322 14.6102Z" fill="#5B83CC"/>
<path d="M40.7677 14.6102L50.9251 16.9982L49.303 34.5211C49.1655 36.0069 48.0764 37.1338 46.7782 37.1338H34.7573C33.4591 37.1338 32.37 36.0069 32.2324 34.5211L30.6103 16.9982L40.7677 14.6102Z" fill="#FF704D"/>
<path d="M26.4999 23.7246L15.2018 26.3807L17.006 45.8716C17.159 47.5241 18.3705 48.7778 19.8144 48.7778H33.1855C34.6295 48.7778 35.8409 47.5241 35.9939 45.8716L37.7981 26.3807L26.4999 23.7246Z" fill="#22AB73"/>
<path d="M30.9216 34.3922C30.9233 34.3916 30.9248 34.3905 30.9265 34.3898C31.1186 34.3087 31.287 34.1481 31.3824 33.9385C31.4952 33.6907 31.5162 33.3983 31.4307 33.1355L30.3639 29.8595C30.2004 29.3578 29.7146 29.1034 29.2785 29.2914C28.8425 29.4796 28.6215 30.0388 28.785 30.5406L29.05 31.3546C28.4612 31.1389 27.8426 31.0258 27.2143 31.0258C25.7481 31.0258 24.3336 31.6372 23.2314 32.7472C22.881 33.1001 22.8453 33.7131 23.152 34.1164C23.3186 34.3356 23.5521 34.4478 23.7867 34.4478C23.9838 34.4478 24.1816 34.3688 24.3416 34.2079C25.1365 33.4073 26.1566 32.9666 27.2143 32.9666C27.7112 32.9666 28.1995 33.0651 28.6603 33.2513L27.4936 33.7242C27.0544 33.9022 26.8239 34.4562 26.9784 34.9617C27.1005 35.3606 27.4259 35.61 27.7736 35.61C27.8666 35.61 27.961 35.5922 28.0536 35.5546L30.9216 34.3922Z" fill="white"/>
<path d="M31.9468 43.3835L31.2045 43.2247C31.6689 42.7555 32.0723 42.2041 32.3966 41.5848C33.1533 40.1395 33.4287 38.4296 33.1715 36.7699C33.0898 36.2423 32.6521 35.8908 32.1935 35.985C31.7351 36.079 31.4298 36.583 31.5115 37.1106C31.6969 38.3074 31.4984 39.5406 30.9525 40.5831C30.6959 41.0729 30.3706 41.5035 29.9942 41.8617L30.2445 40.4675C30.3388 39.9428 30.0456 39.4295 29.5896 39.3211C29.1334 39.2124 28.6876 39.55 28.5932 40.0749L27.9779 43.5018C27.9776 43.5036 27.9775 43.5055 27.9771 43.5074C27.8835 44.0278 28.1978 44.5552 28.6495 44.6522L31.6387 45.2917C31.6907 45.3027 31.7425 45.3082 31.7936 45.3082C32.1919 45.3082 32.5461 44.9819 32.6215 44.515C32.7067 43.9879 32.4046 43.4814 31.9468 43.3835Z" fill="white"/>
<path d="M25.6505 42.6801C24.6643 42.2451 23.8491 41.4128 23.3552 40.3366C23.1231 39.8308 22.9706 39.288 22.8984 38.7319L23.8067 39.6983C24.1485 40.0621 24.682 40.0381 24.9982 39.6445C25.3143 39.251 25.2934 38.637 24.9514 38.2732L22.7189 35.8976C22.7177 35.8963 22.7165 35.8951 22.7151 35.8941C22.4243 35.6031 21.9874 35.5607 21.6681 35.8131C21.6122 35.8571 21.5606 35.9084 21.5156 35.9668L19.4972 38.5825C19.1881 38.9831 19.2197 39.5964 19.5678 39.9524C19.7284 40.1165 19.9282 40.1972 20.1273 40.1972C20.3599 40.1972 20.5915 40.087 20.7581 39.8711L21.2594 39.2212C21.3688 39.9213 21.5709 40.6036 21.8642 41.2429C22.5492 42.735 23.6794 43.8889 25.0472 44.4922C25.1465 44.5359 25.2485 44.5567 25.3487 44.5567C25.6878 44.5567 26.0075 44.3196 26.1361 43.9333C26.3027 43.433 26.0853 42.8718 25.6505 42.6801Z" fill="white"/>
<path opacity="0.2" d="M15.2018 26.3806L15.5012 29.615H37.4987L37.7981 26.3806L26.4999 23.7246L15.2018 26.3806Z" fill="black"/>
<path d="M37.7981 21.0686H15.2018C13.9273 21.0686 12.894 22.2577 12.894 23.7247C12.894 25.1916 13.9272 26.3808 15.2018 26.3808H37.7979C39.0724 26.3808 40.1057 25.1917 40.1057 23.7247C40.1059 22.2577 39.0726 21.0686 37.7981 21.0686Z" fill="#22AB73"/>
<path opacity="0.2" d="M30.6103 16.998L30.9098 20.2325H50.6258L50.9251 16.998L40.7677 14.6102L30.6103 16.998Z" fill="black"/>
<path d="M30.6104 12.2223H50.9252C52.0712 12.2223 53 13.2913 53 14.6102C53 15.929 52.0712 16.9982 50.9252 16.9982H30.6104C29.4645 16.9982 28.5357 15.9291 28.5357 14.6102C28.5357 13.2915 29.4645 12.2223 30.6104 12.2223Z" fill="#FF8466"/>
<path opacity="0.2" d="M2.37422 20.2325H22.0901L22.3895 16.998L12.2322 14.6102L2.07475 16.998L2.37422 20.2325Z" fill="black"/>
<path d="M22.3896 12.2223H2.07476C0.928844 12.2223 0 13.2915 0 14.6102C0 15.929 0.928844 16.9982 2.07476 16.9982H22.3896C23.5354 16.9982 24.4643 15.9291 24.4643 14.6102C24.4643 13.2915 23.5354 12.2223 22.3896 12.2223Z" fill="#6693E6"/>
</svg>
