<svg width="40" height="36" viewBox="0 0 40 36" fill="none" xmlns="http://www.w3.org/2000/svg">
<g clip-path="url(#clip0_63_45)">
<path d="M32.8814 5.78901C32.8814 7.49746 31.3899 8.83988 29.4915 8.83988C27.5932 8.83988 26.1016 7.49753 26.1016 5.78901C26.1016 2.73814 29.4915 0.297485 29.4915 0.297485C29.4915 0.297485 32.8814 2.73814 32.8814 5.78901ZM26.1016 14.3314C26.1016 17.3823 23.3898 19.8229 20 19.8229C16.6101 19.8229 13.8983 17.3823 13.8983 14.3314C13.8983 10.0602 20 5.17886 20 5.17886C20 5.17886 26.1016 10.0602 26.1016 14.3314ZM13.8983 5.78901C13.8983 7.49746 12.4068 8.83988 10.5084 8.83988C8.61006 8.83988 7.11864 7.49746 7.11864 5.78901C7.11864 2.73814 10.5085 0.297485 10.5085 0.297485C10.5085 0.297485 13.8983 2.73814 13.8983 5.78901Z" fill="#80D6FA"/>
<path d="M35.5932 33.2466V35.6872H24.7458V33.2466H26.1017H31.5254H35.5932ZM15.2542 33.2466V35.6872H4.4068V33.2466H8.4746H13.8983H15.2542Z" fill="#AAB1BA"/>
<path d="M35.5932 21.5313V13.111C35.5932 12.0737 36.4745 11.2805 37.6271 11.2805C38.7797 11.2805 39.661 12.0737 39.661 13.111V22.2635C39.661 24.2771 38.305 25.3144 38.305 25.3144L32.8813 30.1958C32.8813 30.1958 31.5253 31.4161 31.5253 33.2467H26.1016V27.7551C26.1016 25.7416 27.4575 24.7043 27.4575 24.7043L32.2033 20.4331C33.0168 19.7009 34.1694 19.6399 34.9829 20.3721C35.3898 20.6771 35.5254 21.1042 35.5932 21.5313ZM4.47457 21.5313C4.47457 21.1042 4.67796 20.6771 5.01697 20.311C5.83053 19.5788 7.05087 19.7008 7.79666 20.372L12.5424 24.6431C12.5424 24.6431 13.8983 25.6804 13.8983 27.694V33.1855H8.4746C8.4746 31.355 7.11864 30.1346 7.11864 30.1346L1.69489 25.2533C1.69489 25.2533 0.33893 24.216 0.33893 22.2024V13.0499C0.33893 12.0126 1.22026 11.2194 2.37283 11.2194C3.52539 11.2194 4.40672 12.0126 4.40672 13.0499L4.47457 21.5313Z" fill="#FFD0A1"/>
<path d="M35.5932 35.9924C35.3898 35.9924 35.2542 35.8703 35.2542 35.6873V33.5516H25.0847V35.6873C25.0847 35.8703 24.9491 35.9924 24.7457 35.9924C24.5423 35.9924 24.4067 35.8703 24.4067 35.6873V33.2466C24.4067 33.0636 24.5423 32.9415 24.7457 32.9415H35.5932C35.7966 32.9415 35.9322 33.0636 35.9322 33.2466V35.6873C35.9322 35.8703 35.7966 35.9924 35.5932 35.9924ZM15.2542 35.9924C15.0508 35.9924 14.9152 35.8703 14.9152 35.6873V33.5516H4.74573V35.6873C4.74573 35.8703 4.61011 35.9924 4.40672 35.9924C4.20333 35.9924 4.06771 35.8703 4.06771 35.6873V33.2466C4.06771 33.0636 4.20333 32.9415 4.40672 32.9415H15.2542C15.4576 32.9415 15.5932 33.0636 15.5932 33.2466V35.6873C15.5932 35.8703 15.4576 35.9924 15.2542 35.9924ZM26.1017 31.111C25.8983 31.111 25.7626 30.9889 25.7626 30.8059V27.7551C25.7626 25.6195 27.1864 24.5212 27.2541 24.4602L31.9999 20.189C32.4744 19.7619 33.0168 19.5789 33.627 19.5178C34.2372 19.5178 34.8473 19.7009 35.2541 20.128C35.7287 20.555 35.932 21.0432 35.932 21.5924C35.932 22.1415 35.6609 22.6297 35.1863 23.0568L31.7964 26.1076C31.6608 26.2297 31.4574 26.2297 31.3219 26.1076C31.1862 25.9856 31.1862 25.8025 31.3219 25.6805L34.7117 22.6297C35.0507 22.3246 35.2541 21.9585 35.2541 21.5924C35.2541 21.2263 35.1185 20.8602 34.7796 20.555C34.4406 20.2499 34.0338 20.128 33.627 20.128C33.2202 20.128 32.8134 20.311 32.4744 20.6161L27.7287 24.8873C27.7287 24.8873 26.4406 25.9246 26.4406 27.694V30.7449C26.4407 30.989 26.305 31.111 26.1017 31.111ZM13.8983 31.111C13.6949 31.111 13.5593 30.9889 13.5593 30.8059V27.7551C13.5593 25.9246 12.3389 24.9483 12.3389 24.9483L7.59319 20.6772C7.25418 20.3721 6.8474 20.189 6.44062 20.189C6.03384 20.189 5.62706 20.3111 5.28805 20.6161C4.94904 20.9211 4.8135 21.2873 4.8135 21.6534C4.8135 22.0195 5.01689 22.3856 5.3559 22.6907L8.74576 25.7415C8.88138 25.8636 8.88138 26.0466 8.74576 26.1686C8.61014 26.2907 8.40675 26.2907 8.27121 26.1686L4.88135 23.1178C4.4068 22.6907 4.20341 22.2026 4.13556 21.6534C4.13556 21.1043 4.33895 20.5551 4.8135 20.189C5.28805 19.7619 5.83045 19.5789 6.44062 19.5789C7.05079 19.5789 7.59319 19.8229 8.06774 20.2501L12.8135 24.5212C12.8812 24.5822 14.2372 25.6805 14.2372 27.8162V30.867C14.2373 30.989 14.1017 31.111 13.8983 31.111ZM32.8814 30.5008C32.8136 30.5008 32.678 30.5008 32.6102 30.4399C32.4746 30.3178 32.4746 30.1347 32.6102 30.0128L38.034 25.1314C38.1017 25.0704 39.3221 24.1551 39.3221 22.3246V13.1721C39.3221 12.3178 38.5763 11.6467 37.6272 11.6467C36.678 11.6467 35.9323 12.3179 35.9323 13.1721V17.9924C35.9323 18.1755 35.7967 18.2975 35.5933 18.2975C35.3899 18.2975 35.2543 18.1755 35.2543 17.9924V13.111C35.2543 11.9517 36.339 10.9754 37.6272 10.9754C38.9153 10.9754 40.0001 11.9517 40.0001 13.111V22.2636C40.0001 24.3992 38.5764 25.4975 38.5086 25.5585L33.0848 30.4399C33.0848 30.5008 32.9491 30.5008 32.8814 30.5008ZM7.11864 30.5008C7.05087 30.5008 6.91525 30.5008 6.84748 30.4399L1.42373 25.5585C1.35596 25.5585 0 24.4602 0 22.2636V13.111C0 11.9517 1.08472 10.9754 2.37291 10.9754C3.66109 10.9754 4.74581 11.9517 4.74581 13.111V17.9313C4.74581 18.1144 4.61019 18.2364 4.4068 18.2364C4.20341 18.2364 4.06779 18.1144 4.06779 17.9313V13.111C4.06779 12.2568 3.32201 11.5856 2.37291 11.5856C1.42381 11.5856 0.677939 12.2568 0.677939 13.111V22.2636C0.677939 24.0941 1.89828 25.0703 1.89828 25.0703L7.32203 29.9517C7.45765 30.0738 7.45765 30.2568 7.32203 30.3788C7.32203 30.5008 7.18641 30.5008 7.11864 30.5008ZM20 20.128C16.4746 20.128 13.5593 17.5042 13.5593 14.3313C13.5593 9.9991 19.5253 5.17878 19.7966 4.93474C19.9322 4.81268 20.1356 4.81268 20.2711 4.93474C20.5423 5.11779 26.5084 9.9381 26.5084 14.3313C26.4407 17.5042 23.5254 20.128 20 20.128ZM20 5.60595C18.9152 6.5212 14.2373 10.7314 14.2373 14.3314C14.2373 17.1992 16.8136 19.5178 20 19.5178C23.1863 19.5178 25.7626 17.1991 25.7626 14.3314C25.7627 10.7314 21.0848 6.5212 20 5.60595ZM22.7119 16.4669C22.6441 16.4669 22.5763 16.4669 22.5085 16.4059C22.3729 16.2839 22.3051 16.1008 22.4407 15.9788C22.8475 15.4907 23.0509 14.9415 23.0509 14.3314C23.0509 14.1483 23.1865 14.0263 23.3899 14.0263C23.5933 14.0263 23.7289 14.1483 23.7289 14.3314C23.7289 15.0636 23.4577 15.7958 22.9831 16.345C22.9153 16.4669 22.7796 16.4669 22.7119 16.4669ZM29.4915 9.14491C27.4576 9.14491 25.7627 7.61951 25.7627 5.789C25.7627 2.61615 29.1526 0.175421 29.2881 0.0534352C29.4237 -0.00755784 29.5593 -0.00755784 29.6949 0.0534352C29.8305 0.175493 33.2203 2.61615 33.2203 5.789C33.2203 7.61951 31.5254 9.14491 29.4915 9.14491ZM29.4915 0.724574C28.7457 1.33472 26.4407 3.40934 26.4407 5.789C26.4407 7.3144 27.7966 8.53476 29.4915 8.53476C31.1864 8.53476 32.5424 7.3144 32.5424 5.789C32.5424 3.34835 30.2373 1.27373 29.4915 0.724574ZM10.5085 9.14491C8.4746 9.14491 6.77971 7.61951 6.77971 5.789C6.77971 2.61615 10.1696 0.175421 10.3051 0.0534352C10.4407 -0.00755784 10.5763 -0.00755784 10.7119 0.0534352C10.8475 0.175493 14.2373 2.61615 14.2373 5.789C14.2373 7.61951 12.5424 9.14491 10.5085 9.14491ZM10.5085 0.724574C9.76271 1.33472 7.45765 3.40934 7.45765 5.789C7.45765 7.3144 8.81361 8.53476 10.5085 8.53476C12.2034 8.53476 13.5593 7.3144 13.5593 5.789C13.5593 3.34835 11.2542 1.27373 10.5085 0.724574ZM29.4915 6.70425C29.3559 6.70425 29.2203 6.5822 29.1525 6.46021C29.0847 6.27716 29.2203 6.1551 29.4237 6.09411C29.5593 6.09411 29.8304 5.85007 29.8304 5.72801C29.8982 5.54496 30.0338 5.48396 30.2372 5.48396C30.4406 5.54496 30.5084 5.66702 30.5084 5.85007C30.4406 6.21617 29.966 6.64326 29.5592 6.70433L29.4915 6.70425ZM10.5085 6.70425C10.3729 6.70425 10.2373 6.5822 10.1695 6.46021C10.1017 6.27716 10.2373 6.1551 10.4406 6.09411C10.5763 6.09411 10.8474 5.85007 10.8474 5.72801C10.9152 5.54496 11.0508 5.48396 11.2542 5.48396C11.4576 5.54496 11.5254 5.66702 11.5254 5.85007C11.4576 6.21617 10.983 6.64326 10.5762 6.70433L10.5085 6.70425Z" fill="#51565F"/>
</g>
<defs>
<clipPath id="clip0_63_45">
<rect width="40" height="36" fill="white"/>
</clipPath>
</defs>
</svg>
