<svg width="33" height="34" viewBox="0 0 33 34" fill="none" xmlns="http://www.w3.org/2000/svg">
<path d="M14.2299 32.4937L14.8088 32.5863V32V21.1026V20.6026H14.3088H10.924V17.0947H14.3088H14.8088V16.5947V13.159C14.8088 11.3019 15.3498 9.92289 16.2449 9.00969C17.1394 8.09718 18.4443 7.59169 20.088 7.59169C20.8979 7.59169 21.7328 7.66558 22.3698 7.74055C22.6213 7.77014 22.8404 7.79971 23.013 7.8246V10.734H21.5838C20.5217 10.734 19.7443 11.0748 19.243 11.6657C18.7544 12.2416 18.5902 12.9821 18.5902 13.6694V16.5947V17.0947H19.0902H22.7529L22.225 20.6026H19.0902H18.5902V21.1026V32V32.5863L19.1692 32.4937C26.7296 31.2845 32.5 24.6211 32.5 16.5947C32.5 7.71486 25.4349 0.5 16.6996 0.5C7.96423 0.5 0.899048 7.71486 0.899048 16.5947C0.899048 24.6211 6.66961 31.2845 14.2299 32.4937Z" fill="#3609ED" stroke="white"/>
</svg>
