<svg width="30" height="33" viewBox="0 0 30 33" fill="none" xmlns="http://www.w3.org/2000/svg">
<path d="M14.8182 13.7848H14.3182V14.2848V19.6V20.1H14.8182H22.0515C21.8109 21.1052 21.2635 22.379 20.2961 23.4636C19.1484 24.7504 17.401 25.7831 14.8182 25.7831C10.4386 25.7831 6.75207 21.6932 6.75207 16.5C6.75207 11.3068 10.4397 7.21692 14.8182 7.21692C17.3257 7.21692 18.9987 8.40621 19.9615 9.44507L20.3287 9.84128L20.6954 9.44462L24.4424 5.39137L24.7613 5.04639L24.4369 4.70663C21.9459 2.09831 18.6985 0.5 14.8182 0.5C6.84931 0.5 0.5 7.70919 0.5 16.5C0.5 25.2908 6.84931 32.5 14.8182 32.5C18.9468 32.5 22.4026 30.8678 24.8198 28.0756C27.2316 25.2895 28.5837 21.3799 28.5837 16.8539C28.5837 15.8003 28.4819 14.9947 28.3602 14.2083L28.2946 13.7848H27.8661H14.8182Z" fill="#F80000" stroke="white"/>
</svg>
