<svg width="97" height="81" viewBox="0 0 97 81" fill="none" xmlns="http://www.w3.org/2000/svg">
<path d="M50.6935 60.8501C67.7569 60.8501 81.5895 47.2373 81.5895 30.445C81.5895 13.6527 67.7569 0.039917 50.6935 0.039917C33.6301 0.039917 19.7975 13.6527 19.7975 30.445C19.7975 47.2373 33.6301 60.8501 50.6935 60.8501Z" fill="#72CCC5"/>
<path d="M22.7972 43.3352C27.7251 53.6854 38.3629 60.8501 50.6936 60.8501C63.0244 60.8501 73.6619 53.6854 78.59 43.3352C70.1106 47.2345 60.6603 49.4154 50.6936 49.4154C40.727 49.4154 31.2767 47.2345 22.7972 43.3352Z" fill="#11BBA3"/>
<path d="M46.0712 9.14414L47.6173 13.7161L52.2555 15.24V21.3361L49.1634 25.908V30.4799L56.8938 32.0039V36.5758L64.6243 44.1959H67.7164L69.2625 36.5758V30.4798L73.9007 28.9558H78.5389L80.8494 23.6417C77.7005 10.101 65.402 0.00012207 50.7094 0.00012207C46.3112 0.00012207 42.1286 0.90727 38.3408 2.53871V7.62016L46.0712 9.14414Z" fill="#66BF00"/>
<path d="M41.4331 53.3406L46.0712 50.2927L47.6173 44.1966V36.5766L42.9791 35.0526L38.341 30.4807L35.2488 25.9088H29.0644L25.9723 32.0048L24.4262 27.4329V22.861L21.0747 21.7598C20.239 24.5231 19.7879 27.45 19.7879 30.481C19.7879 44.7455 29.7294 56.7199 43.1549 60.043L42.9791 59.4371L41.4331 53.3406Z" fill="#66BF00"/>
<path d="M43.0718 59.8661L42.8974 59.2623L41.3634 53.188L45.9655 50.1509L46.1942 49.2453C37.8802 48.7063 29.9877 46.6438 22.7972 43.3352C26.6695 51.472 34.0831 57.6317 43.0718 59.8661Z" fill="#58AB23"/>
<path d="M33.7278 58.2447C34.4753 56.7782 36.3008 56.2016 37.8177 56.8707L51.6733 59.6433L62.4882 54.3952L64.374 50.2175C64.374 50.2175 60.9282 50.3671 56.375 50.7377C54.6768 50.8759 53.0015 50.528 52.4041 48.9505C51.807 47.373 52.6162 45.6156 54.2119 45.025C54.2119 45.025 68.3246 42.6504 74.3803 41.4515C76.2646 41.0784 78.22 42.0245 79.9752 42.7988H95.3872V58.0477H81.2778L67.6216 67.1971L50.6536 68.7223L35.2239 62.4054C33.6228 61.6996 32.9297 59.8106 33.7278 58.2447Z" fill="#FFE5BA"/>
<path d="M78.4185 54.1587L67.6202 61.8234L50.6513 64.8895L33.6369 58.3865C32.9893 59.9187 33.6858 61.691 35.2208 62.3716L50.6513 68.7217L67.6202 67.1887L81.2771 57.9911H95.3872V54.1587H78.4185Z" fill="#FFD175"/>
<path d="M67.6587 67.2963C66.9112 65.8298 65.0857 65.2533 63.5688 65.9223L49.7132 68.695L38.8983 63.4468L37.0125 59.2691C37.0125 59.2691 40.4583 59.4188 45.0115 59.7893C46.7097 59.9275 48.385 59.5796 48.9824 58.0021C49.5795 56.4247 48.7703 54.6672 47.1746 54.0766C47.1746 54.0766 33.0619 51.702 27.0062 50.5031C25.1219 50.1301 23.1664 51.0761 21.4113 51.8504H5.99927V67.0993H20.1087L33.7649 76.2487L50.7329 77.7739L66.1626 71.4571C67.7637 70.7512 68.4568 68.8622 67.6587 67.2963Z" fill="#E2AE6B"/>
<path d="M49.1929 73.9939L35.3093 72.4817L21.4257 63.4083H5.99927V67.1889H20.1095L33.7665 76.2623L50.7355 77.7745L66.166 71.5101C67.7248 70.828 68.4188 69.0354 67.7182 67.5079L49.1929 73.9939Z" fill="#B9873C"/>
<path d="M61.5915 9.19143C61.5915 8.37639 60.9201 7.71545 60.0917 7.71545H58.492C57.6637 7.71545 56.9921 8.37621 56.9921 9.19143C56.9921 10.0065 57.6636 10.6674 58.492 10.6674H60.0917C60.9199 10.6672 61.5915 10.0065 61.5915 9.19143Z" fill="black"/>
<path d="M69.1389 18.3421C69.9404 18.3421 70.5904 17.6813 70.5904 16.8661C70.5904 16.0511 69.9406 15.3901 69.1389 15.3901H66.0427C65.2411 15.3901 64.5912 16.0509 64.5912 16.8661C64.5912 17.6811 65.241 18.3421 66.0427 18.3421H69.1389Z" fill="black"/>
<path d="M61.5569 24.4423H60.0267C59.2345 24.4423 58.5921 25.103 58.5921 25.9182C58.5921 26.7335 59.2343 27.3942 60.0267 27.3942H61.5569C62.3491 27.3942 62.9915 26.7335 62.9915 25.9182C62.9915 25.103 62.3491 24.4423 61.5569 24.4423Z" fill="black"/>
<path d="M30.3958 36.5452C30.3958 35.7302 29.7536 35.0692 28.9612 35.0692H27.431C26.6388 35.0692 25.9964 35.73 25.9964 36.5452C25.9964 37.3604 26.6386 38.0212 27.431 38.0212H28.9612C29.7534 38.0212 30.3958 37.3604 30.3958 36.5452Z" fill="black"/>
<path d="M36.8469 45.6963H39.9432C40.7447 45.6963 41.3947 45.0796 41.3947 44.3187C41.3947 43.558 40.7449 42.9412 39.9432 42.9412H36.8469C36.0454 42.9412 35.3954 43.5579 35.3954 44.3187C35.3954 45.0794 36.0452 45.6963 36.8469 45.6963Z" fill="black"/>
<path d="M95.5258 56.5204H81.2639C80.9716 56.5204 80.6859 56.6034 80.4437 56.7587L70.033 63.4374C69.3648 63.8661 69.1901 64.7263 69.643 65.3591C69.9256 65.7538 70.3861 65.9666 70.8543 65.9666C71.1366 65.9666 71.4219 65.8893 71.673 65.7283L81.7124 59.2878H95.5258C96.333 59.2878 96.9876 58.6684 96.9876 57.9041C96.9876 57.1398 96.3332 56.5204 95.5258 56.5204Z" fill="black"/>
<path d="M58.8248 66.0438C55.8673 66.7403 47.5541 68.3218 45.4754 68.7151L35.54 63.9024L34.8299 62.332C36.2527 62.4155 38.2186 62.5436 40.4394 62.7242C42.2888 62.8741 43.5373 62.491 44.3802 61.9275L47.0287 62.4566C47.3405 62.5187 47.6696 62.4769 47.9552 62.3384L58.7968 57.0866C59.1013 56.9392 59.3437 56.6909 59.4818 56.3854L61.3723 52.2048C61.8038 51.2504 61.0412 50.146 59.9845 50.1926C59.9498 50.1942 56.4499 50.3478 51.9104 50.7167C50.5098 50.8307 49.6671 50.5398 49.4066 49.8526C49.1027 49.0515 49.485 48.1598 50.2619 47.8097C51.8337 47.5448 64.6872 45.3743 70.3642 44.2526C71.6837 43.9918 73.2543 44.6878 74.7729 45.3609C75.0699 45.4923 75.3534 45.6286 75.6882 45.6286H91.1382C91.9388 45.6286 92.588 44.9882 92.588 44.198C92.588 43.408 91.939 42.7673 91.1382 42.7673H76.7824C78.0361 39.3185 78.6707 35.7009 78.6707 31.9902C78.6707 14.3727 64.1465 0.039917 46.2938 0.039917C39.2224 0.039917 32.5044 2.24934 26.8659 6.42925C26.2257 6.90376 26.0968 7.80049 26.5775 8.43221C27.0583 9.06376 27.967 9.19117 28.6072 8.71684C29.8417 7.80156 31.134 6.9912 32.4731 6.28649V9.10034C32.4731 9.78221 32.9608 10.3693 33.6384 10.5032L40.5452 11.8662L41.8255 15.6565C41.9699 16.0837 42.3096 16.4189 42.7426 16.5615L46.3904 17.7614V22.401L43.5413 26.6185C43.3825 26.8536 43.2977 27.1298 43.2977 27.4121V31.99C43.2977 32.6719 43.7854 33.259 44.463 33.3928L51.0294 34.6887V38.094C51.0294 38.4734 51.182 38.8372 51.454 39.1054L56.2897 43.8775C52.5795 44.5174 49.6818 45.0046 49.618 45.0153C49.5275 45.0304 49.4387 45.054 49.353 45.0858C48.2166 45.5055 47.3139 46.3367 46.8112 47.4263C46.3085 48.5162 46.2658 49.7338 46.6909 50.855C47.1248 51.9985 48.4107 53.8717 52.1482 53.5678C54.3678 53.3876 56.3344 53.2594 57.7577 53.1756L57.0476 54.746L47.1201 59.5549L46.0902 59.3492C46.5383 57.2224 45.3585 55.026 43.2343 54.2413C43.1484 54.2095 43.0598 54.186 42.9693 54.1708C42.939 54.1656 42.2653 54.0523 41.1688 53.8664C41.4762 53.6642 41.7834 53.462 42.0908 53.2598C42.52 52.9775 42.9263 52.7066 43.061 52.1745L44.6073 46.0705C44.6361 45.957 44.6506 45.8404 44.6506 45.7236V38.0936C44.6506 37.478 44.2513 36.9312 43.6594 36.7365L39.345 35.3172L35.0496 31.0786L32.0365 26.6187C31.7676 26.2208 31.3152 25.9816 30.8304 25.9816H24.6449C24.0957 25.9816 23.5937 26.2879 23.3483 26.7725L21.8208 29.7873L21.4556 28.7063V24.3604C21.4556 23.7447 21.0564 23.198 20.4645 23.0033L18.4755 22.3491C19.8254 18.5514 21.9743 15.0428 24.8364 12.0455C25.3856 11.4704 25.3583 10.5651 24.7754 10.0233C24.1926 9.48151 23.2752 9.50846 22.7262 10.0834C17.0456 16.0322 13.9171 23.8124 13.9171 31.9903C13.9171 38.7054 16.074 45.2565 20.0281 50.6713C18.8268 50.9333 17.6859 51.4374 16.6268 51.9068L16.5897 51.9234H1.44976C0.649201 51.9234 0 52.5638 0 53.354C0 54.144 0.64902 54.7847 1.44976 54.7847H16.8998C17.2344 54.7847 17.5183 54.6483 17.8151 54.517C19.3335 53.8439 20.9045 53.1474 22.2238 53.4086C27.9006 54.5304 40.7539 56.7009 42.3261 56.9657C43.103 57.3157 43.4853 58.2074 43.1813 59.0087C42.9207 59.6959 42.0785 59.9868 40.6774 59.8727C36.1379 59.5041 32.6382 59.3501 32.6033 59.3486C31.5474 59.3047 30.7832 60.4045 31.2155 61.3609L33.106 65.5415C33.2442 65.8472 33.4867 66.0952 33.791 66.2426L44.6327 71.4945C44.9148 71.631 45.2341 71.6735 45.5426 71.6157C45.9703 71.5352 56.0584 69.637 59.4976 68.8272C61.4159 68.3753 61.7341 68.9988 61.9665 69.4544C62.1718 69.8563 62.2011 70.3098 62.049 70.7311C61.8985 71.1479 61.5924 71.4777 61.1857 71.6614L46.0689 77.839L29.7873 76.3784L16.4067 67.4295C16.1673 67.2693 15.8839 67.1834 15.5938 67.1834H1.44976C0.649201 67.1834 0 67.8239 0 68.6141C0 69.4041 0.64902 70.0447 1.44976 70.0447H15.1492L28.4708 78.9542C28.6737 79.09 28.9086 79.1728 29.1527 79.1948L46.1627 80.7207C46.2067 80.7246 46.2502 80.7266 46.294 80.7266C46.4839 80.7266 46.6725 80.6898 46.8488 80.6177L62.3166 74.2964C62.3287 74.2914 62.3408 74.2862 62.3528 74.281C63.4812 73.7842 64.3664 72.84 64.7809 71.6912C65.2015 70.5257 65.1216 69.2742 64.5563 68.1669C63.8344 66.7526 62.2537 65.2367 58.8248 66.0438ZM69.7949 41.4471C68.616 41.68 67.123 41.9591 65.485 42.2567L66.2717 38.3747C66.2905 38.2824 66.2999 38.1884 66.2999 38.0942V33.0214L69.7246 31.8949H74.1285C74.7084 31.8949 75.2326 31.5538 75.461 31.0279L75.7278 30.4135C75.7562 30.9357 75.7715 31.4612 75.7715 31.9902C75.7715 35.4191 75.1759 38.7596 74.0015 41.9395C72.6803 41.4628 71.2682 41.156 69.7949 41.4471ZM53.9291 37.5017V33.5163C53.9291 32.8344 53.4414 32.2473 52.7638 32.1135L46.1974 30.8175V27.8456L49.0467 23.628C49.2055 23.393 49.2903 23.1168 49.2903 22.8344V16.7305C49.2903 16.1148 48.891 15.568 48.2991 15.3733L44.3478 14.0736L43.0308 10.1744C42.8663 9.68745 42.45 9.32465 41.9397 9.22401L35.3733 7.92808V4.95666C38.811 3.60184 42.4966 2.90141 46.2944 2.90141C60.1345 2.90141 71.7754 12.3634 74.9281 25.0762C74.8692 25.1581 74.8176 25.2468 74.7758 25.3426L73.1731 29.0337H69.4898C69.3339 29.0337 69.1792 29.0585 69.0314 29.1073L64.3924 30.6332C63.8004 30.8279 63.4013 31.3747 63.4013 31.9903V37.9525L62.4173 42.8071C61.5414 42.9625 60.6545 43.1185 59.7775 43.272L53.9291 37.5017ZM17.651 25.0938L18.5563 25.3917V28.9384C18.5563 29.0923 18.5814 29.245 18.6308 29.3908L20.1771 33.9687C20.5768 35.152 22.2831 35.2733 22.849 34.156L25.5409 28.843H30.0546L32.7168 32.7837C32.7698 32.8621 32.8304 32.9352 32.898 33.0018L37.537 37.5797C37.6962 37.7367 37.8902 37.855 38.1038 37.9253L41.7516 39.1253V45.548L40.3845 50.9446L37.02 53.1579C32.8221 52.4357 27.3352 51.4762 23.7765 50.7939C23.7383 50.7313 23.6967 50.6701 23.6477 50.6123C19.2428 45.4013 16.8167 38.7878 16.8167 31.99C16.8167 29.6415 17.1008 27.3293 17.651 25.0938Z" fill="black"/>
</svg>
