<svg width="20" height="23" viewBox="0 0 20 23" fill="none" xmlns="http://www.w3.org/2000/svg">
<path d="M3.93665 10.2815V21.6476H7.48585V17.0024C7.48585 15.6004 8.53795 14.4466 9.82361 14.4466C11.1093 14.4466 12.1614 15.6004 12.1614 17.0024V21.6448H15.7106V10.2815H3.93665ZM13.5736 6.17091V3.75422C13.5736 3.41872 13.7897 3.14868 14.0582 3.14868H15.8503C16.1187 3.14868 16.3348 3.41872 16.3348 3.75422V6.90192C16.3348 7.23742 16.1187 7.50746 15.8503 7.50746H14.7851" fill="#00B36A"/>
<path d="M15.6547 7.872H14.7083C14.462 7.872 14.2622 7.59622 14.2622 7.25618C14.2622 6.91613 14.462 6.64035 14.7083 6.64035H15.6412V3.59335H14.078V5.9442C14.078 6.28424 13.8782 6.56002 13.6319 6.56002C13.3856 6.56002 13.1858 6.28424 13.1858 5.9442V3.57193C13.1858 2.90523 13.5795 2.36169 14.0625 2.36169H15.6547C16.1377 2.36169 16.5314 2.90523 16.5314 3.57193V6.66177C16.5314 7.32847 16.1377 7.872 15.6547 7.872Z" fill="#1A1A1A"/>
<path d="M7.08539 21.4168C5.75502 19.802 4.75191 17.6583 3.93665 15.3503V21.6478H7.08539V21.4168Z" fill="#009957"/>
<path d="M15.6235 22.4356H12.017C11.7353 22.4356 11.5069 22.1508 11.5069 21.7996V17.0932C11.5069 16.0176 10.6685 15.1438 9.6393 15.1438C8.61015 15.1438 7.77175 16.0176 7.77175 17.0932V21.7996C7.77175 22.1508 7.54329 22.4356 7.26161 22.4356H3.65958C3.3779 22.4356 3.14944 22.1508 3.14944 21.7996V10.2798C3.14944 9.92861 3.3779 9.6438 3.65958 9.6438H9.88772C10.1694 9.6438 10.3979 9.92861 10.3979 10.2798C10.3979 10.631 10.1694 10.9158 9.88772 10.9158H4.16972V21.1691H6.75812V17.0932C6.75812 15.318 8.05122 13.8745 9.64374 13.8745C11.2363 13.8745 12.5293 15.318 12.5293 17.0932V21.1664H15.1178V15.7549C15.1178 15.4037 15.3462 15.1189 15.6279 15.1189C15.9096 15.1189 16.138 15.4037 16.138 15.7549V21.8024C16.1314 22.1508 15.9051 22.4356 15.6235 22.4356Z" fill="#1A1A1A"/>
<path d="M1.01352 10.4146L9.00635 0.903369C9.35745 0.486475 9.92852 0.486475 10.2796 0.903369L18.2725 10.4146C18.816 11.0607 18.3211 12.0049 17.4412 12.0049H1.84474C0.964872 12.0077 0.472061 11.0607 1.01352 10.4146Z" fill="#00B36A"/>
<path d="M17.6953 12.789H15.5292C15.2519 12.789 15.027 12.4983 15.027 12.1399C15.027 11.7815 15.2519 11.4908 15.5292 11.4908H17.6953C18.0293 11.4908 18.239 11.2989 18.2783 11.1634C18.2848 11.1409 18.3001 11.0929 18.2128 10.9913L10.1644 1.50629C9.92204 1.22126 9.36744 1.22126 9.12507 1.50629L1.07454 10.9941C0.989387 11.0957 1.00249 11.1437 1.00904 11.1663C1.05052 11.3017 1.25796 11.4936 1.59421 11.4936H3.75587C4.03317 11.4936 4.25807 11.7843 4.25807 12.1427C4.25807 12.5011 4.03317 12.7918 3.75587 12.7918H1.59421C0.882396 12.7918 0.286303 12.3374 0.0745043 11.6376C-0.0936245 11.076 0.0264676 10.4777 0.397661 10.0403L8.44819 0.552422C9.07267 -0.184141 10.2124 -0.184141 10.8369 0.552422L18.8875 10.0403C19.2586 10.4777 19.3809 11.076 19.2106 11.6376C19.0032 12.3346 18.4071 12.789 17.6953 12.789Z" fill="#1A1A1A"/>
</svg>
