<svg width="231" height="94" viewBox="0 0 231 94" fill="none" xmlns="http://www.w3.org/2000/svg">
<mask id="path-1-outside-1_83_18" maskUnits="userSpaceOnUse" x="77" y="6" width="148" height="80" fill="black">
<rect fill="white" x="77" y="6" width="148" height="80"/>
<path d="M106.047 27.4688H112.375C112.271 29.4219 111.737 31.1471 110.773 32.6445C109.823 34.1289 108.501 35.2943 106.809 36.1406C105.116 36.974 103.104 37.3906 100.773 37.3906C98.9115 37.3906 97.2448 37.0716 95.7734 36.4336C94.3021 35.7956 93.0521 34.8841 92.0234 33.6992C91.0078 32.5013 90.2266 31.0625 89.6797 29.3828C89.1458 27.6901 88.8789 25.7826 88.8789 23.6602V21.9219C88.8789 19.7995 89.1589 17.8919 89.7188 16.1992C90.2786 14.5065 91.0794 13.0612 92.1211 11.8633C93.1628 10.6654 94.4128 9.7474 95.8711 9.10938C97.3294 8.47135 98.957 8.15234 100.754 8.15234C103.176 8.15234 105.22 8.58854 106.887 9.46094C108.553 10.3333 109.842 11.5312 110.754 13.0547C111.678 14.5781 112.232 16.3164 112.414 18.2695H106.066C106.014 17.1628 105.806 16.2318 105.441 15.4766C105.077 14.7083 104.517 14.1289 103.762 13.7383C103.007 13.3477 102.004 13.1523 100.754 13.1523C99.8424 13.1523 99.0417 13.3216 98.3516 13.6602C97.6745 13.9987 97.1081 14.526 96.6523 15.2422C96.2096 15.9583 95.8776 16.8698 95.6562 17.9766C95.4349 19.0703 95.3242 20.3724 95.3242 21.8828V23.6602C95.3242 25.1576 95.4219 26.4531 95.6172 27.5469C95.8125 28.6406 96.125 29.5456 96.5547 30.2617C96.9974 30.9779 97.5638 31.5117 98.2539 31.8633C98.944 32.2148 99.7839 32.3906 100.773 32.3906C101.906 32.3906 102.85 32.2148 103.605 31.8633C104.361 31.4987 104.94 30.9518 105.344 30.2227C105.747 29.4935 105.982 28.5755 106.047 27.4688ZM114.719 26.6484V26.2383C114.719 24.6888 114.94 23.263 115.383 21.9609C115.826 20.6458 116.477 19.5065 117.336 18.543C118.195 17.5794 119.25 16.8307 120.5 16.2969C121.75 15.75 123.182 15.4766 124.797 15.4766C126.438 15.4766 127.883 15.75 129.133 16.2969C130.396 16.8307 131.457 17.5794 132.316 18.543C133.176 19.5065 133.827 20.6458 134.27 21.9609C134.712 23.263 134.934 24.6888 134.934 26.2383V26.6484C134.934 28.1849 134.712 29.6107 134.27 30.9258C133.827 32.2279 133.176 33.3672 132.316 34.3438C131.457 35.3073 130.402 36.056 129.152 36.5898C127.902 37.1237 126.464 37.3906 124.836 37.3906C123.221 37.3906 121.783 37.1237 120.52 36.5898C119.257 36.056 118.195 35.3073 117.336 34.3438C116.477 33.3672 115.826 32.2279 115.383 30.9258C114.94 29.6107 114.719 28.1849 114.719 26.6484ZM120.832 26.2383V26.6484C120.832 27.4818 120.897 28.263 121.027 28.9922C121.171 29.7214 121.398 30.3594 121.711 30.9062C122.023 31.4531 122.434 31.8828 122.941 32.1953C123.462 32.4948 124.094 32.6445 124.836 32.6445C125.578 32.6445 126.203 32.4948 126.711 32.1953C127.219 31.8828 127.629 31.4531 127.941 30.9062C128.254 30.3594 128.475 29.7214 128.605 28.9922C128.749 28.263 128.82 27.4818 128.82 26.6484V26.2383C128.82 25.418 128.749 24.6497 128.605 23.9336C128.475 23.2044 128.254 22.5599 127.941 22C127.629 21.4401 127.212 21.0039 126.691 20.6914C126.184 20.3789 125.552 20.2227 124.797 20.2227C124.068 20.2227 123.449 20.3789 122.941 20.6914C122.434 21.0039 122.023 21.4401 121.711 22C121.398 22.5599 121.171 23.2044 121.027 23.9336C120.897 24.6497 120.832 25.418 120.832 26.2383ZM144.562 7V37H138.449V7H144.562ZM158.918 37.3906C157.238 37.3906 155.734 37.1237 154.406 36.5898C153.078 36.056 151.952 35.3203 151.027 34.3828C150.116 33.4323 149.419 32.3385 148.938 31.1016C148.456 29.8646 148.215 28.543 148.215 27.1367V26.3945C148.215 24.819 148.436 23.3672 148.879 22.0391C149.322 20.7109 149.966 19.5586 150.812 18.582C151.672 17.5924 152.727 16.8307 153.977 16.2969C155.227 15.75 156.652 15.4766 158.254 15.4766C159.751 15.4766 161.086 15.724 162.258 16.2188C163.43 16.7005 164.419 17.3971 165.227 18.3086C166.034 19.207 166.646 20.2943 167.062 21.5703C167.492 22.8333 167.707 24.2526 167.707 25.8281V28.3281H150.676V24.4023H161.73V23.9336C161.73 23.1914 161.594 22.5404 161.32 21.9805C161.06 21.4206 160.669 20.9909 160.148 20.6914C159.641 20.3789 158.996 20.2227 158.215 20.2227C157.473 20.2227 156.854 20.3789 156.359 20.6914C155.865 21.0039 155.467 21.4466 155.168 22.0195C154.882 22.5794 154.673 23.237 154.543 23.9922C154.413 24.7344 154.348 25.5352 154.348 26.3945V27.1367C154.348 27.957 154.458 28.7057 154.68 29.3828C154.901 30.0599 155.227 30.6393 155.656 31.1211C156.086 31.6029 156.607 31.9805 157.219 32.2539C157.831 32.5273 158.527 32.6641 159.309 32.6641C160.272 32.6641 161.19 32.4818 162.062 32.1172C162.935 31.7396 163.69 31.1536 164.328 30.3594L167.18 33.6211C166.75 34.2461 166.145 34.8516 165.363 35.4375C164.595 36.0104 163.671 36.4792 162.59 36.8438C161.509 37.2083 160.285 37.3906 158.918 37.3906ZM181.418 15.8672V20.1445H168.879V15.8672H181.418ZM171.75 10.6328H177.863V30.3789C177.863 30.9648 177.935 31.4141 178.078 31.7266C178.221 32.0391 178.456 32.2604 178.781 32.3906C179.107 32.5078 179.523 32.5664 180.031 32.5664C180.396 32.5664 180.708 32.5534 180.969 32.5273C181.229 32.5013 181.47 32.4688 181.691 32.4297V36.8438C181.171 37.013 180.617 37.1432 180.031 37.2344C179.445 37.3385 178.807 37.3906 178.117 37.3906C176.802 37.3906 175.663 37.1758 174.699 36.7461C173.749 36.3164 173.02 35.6393 172.512 34.7148C172.004 33.7773 171.75 32.5599 171.75 31.0625V10.6328ZM195.539 31.9609V22.8984C195.539 22.2604 195.441 21.7135 195.246 21.2578C195.051 20.8021 194.745 20.444 194.328 20.1836C193.911 19.9232 193.371 19.793 192.707 19.793C192.147 19.793 191.659 19.8906 191.242 20.0859C190.839 20.2812 190.526 20.5612 190.305 20.9258C190.096 21.2904 189.992 21.7396 189.992 22.2734H183.898C183.898 21.3229 184.113 20.4375 184.543 19.6172C184.973 18.7969 185.585 18.0742 186.379 17.4492C187.186 16.8242 188.15 16.3424 189.27 16.0039C190.389 15.6523 191.646 15.4766 193.039 15.4766C194.693 15.4766 196.164 15.7565 197.453 16.3164C198.755 16.8633 199.784 17.6901 200.539 18.7969C201.294 19.8906 201.672 21.2708 201.672 22.9375V31.7852C201.672 33.0612 201.743 34.0638 201.887 34.793C202.043 35.5091 202.264 36.1341 202.551 36.668V37H196.398C196.112 36.388 195.897 35.6328 195.754 34.7344C195.611 33.8229 195.539 32.8984 195.539 31.9609ZM196.301 24.1094L196.34 27.4688H193.312C192.635 27.4688 192.049 27.5534 191.555 27.7227C191.073 27.8919 190.682 28.1263 190.383 28.4258C190.083 28.7122 189.862 29.0508 189.719 29.4414C189.589 29.819 189.523 30.2357 189.523 30.6914C189.523 31.1211 189.628 31.5117 189.836 31.8633C190.044 32.2018 190.331 32.4688 190.695 32.6641C191.06 32.8594 191.483 32.957 191.965 32.957C192.759 32.957 193.436 32.8008 193.996 32.4883C194.569 32.1758 195.012 31.7982 195.324 31.3555C195.637 30.8997 195.793 30.4766 195.793 30.0859L197.258 32.625C197.023 33.1458 196.737 33.6862 196.398 34.2461C196.06 34.793 195.63 35.3073 195.109 35.7891C194.589 36.2578 193.957 36.6419 193.215 36.9414C192.486 37.2409 191.607 37.3906 190.578 37.3906C189.25 37.3906 188.046 37.1237 186.965 36.5898C185.884 36.043 185.018 35.2943 184.367 34.3438C183.729 33.3932 183.41 32.2995 183.41 31.0625C183.41 29.9557 183.612 28.9727 184.016 28.1133C184.419 27.2539 185.025 26.5247 185.832 25.9258C186.652 25.3268 187.681 24.8776 188.918 24.5781C190.155 24.2656 191.6 24.1094 193.254 24.1094H196.301ZM95.5391 74.4688H101.867C101.763 76.4219 101.229 78.1471 100.266 79.6445C99.3151 81.1289 97.9935 82.2943 96.3008 83.1406C94.6081 83.974 92.5964 84.3906 90.2656 84.3906C88.4036 84.3906 86.737 84.0716 85.2656 83.4336C83.7943 82.7956 82.5443 81.8841 81.5156 80.6992C80.5 79.5013 79.7188 78.0625 79.1719 76.3828C78.638 74.6901 78.3711 72.7826 78.3711 70.6602V68.9219C78.3711 66.7995 78.651 64.8919 79.2109 63.1992C79.7708 61.5065 80.5716 60.0612 81.6133 58.8633C82.6549 57.6654 83.9049 56.7474 85.3633 56.1094C86.8216 55.4714 88.4492 55.1523 90.2461 55.1523C92.668 55.1523 94.7122 55.5885 96.3789 56.4609C98.0456 57.3333 99.3346 58.5312 100.246 60.0547C101.171 61.5781 101.724 63.3164 101.906 65.2695H95.5586C95.5065 64.1628 95.2982 63.2318 94.9336 62.4766C94.569 61.7083 94.0091 61.1289 93.2539 60.7383C92.4987 60.3477 91.4961 60.1523 90.2461 60.1523C89.3346 60.1523 88.5339 60.3216 87.8438 60.6602C87.1667 60.9987 86.6003 61.526 86.1445 62.2422C85.7018 62.9583 85.3698 63.8698 85.1484 64.9766C84.9271 66.0703 84.8164 67.3724 84.8164 68.8828V70.6602C84.8164 72.1576 84.9141 73.4531 85.1094 74.5469C85.3047 75.6406 85.6172 76.5456 86.0469 77.2617C86.4896 77.9779 87.056 78.5117 87.7461 78.8633C88.4362 79.2148 89.276 79.3906 90.2656 79.3906C91.3984 79.3906 92.3424 79.2148 93.0977 78.8633C93.8529 78.4987 94.4323 77.9518 94.8359 77.2227C95.2396 76.4935 95.474 75.5755 95.5391 74.4688ZM104.211 73.6484V73.2383C104.211 71.6888 104.432 70.263 104.875 68.9609C105.318 67.6458 105.969 66.5065 106.828 65.543C107.688 64.5794 108.742 63.8307 109.992 63.2969C111.242 62.75 112.674 62.4766 114.289 62.4766C115.93 62.4766 117.375 62.75 118.625 63.2969C119.888 63.8307 120.949 64.5794 121.809 65.543C122.668 66.5065 123.319 67.6458 123.762 68.9609C124.204 70.263 124.426 71.6888 124.426 73.2383V73.6484C124.426 75.1849 124.204 76.6107 123.762 77.9258C123.319 79.2279 122.668 80.3672 121.809 81.3438C120.949 82.3073 119.895 83.056 118.645 83.5898C117.395 84.1237 115.956 84.3906 114.328 84.3906C112.714 84.3906 111.275 84.1237 110.012 83.5898C108.749 83.056 107.688 82.3073 106.828 81.3438C105.969 80.3672 105.318 79.2279 104.875 77.9258C104.432 76.6107 104.211 75.1849 104.211 73.6484ZM110.324 73.2383V73.6484C110.324 74.4818 110.389 75.263 110.52 75.9922C110.663 76.7214 110.891 77.3594 111.203 77.9062C111.516 78.4531 111.926 78.8828 112.434 79.1953C112.954 79.4948 113.586 79.6445 114.328 79.6445C115.07 79.6445 115.695 79.4948 116.203 79.1953C116.711 78.8828 117.121 78.4531 117.434 77.9062C117.746 77.3594 117.967 76.7214 118.098 75.9922C118.241 75.263 118.312 74.4818 118.312 73.6484V73.2383C118.312 72.418 118.241 71.6497 118.098 70.9336C117.967 70.2044 117.746 69.5599 117.434 69C117.121 68.4401 116.704 68.0039 116.184 67.6914C115.676 67.3789 115.044 67.2227 114.289 67.2227C113.56 67.2227 112.941 67.3789 112.434 67.6914C111.926 68.0039 111.516 68.4401 111.203 69C110.891 69.5599 110.663 70.2044 110.52 70.9336C110.389 71.6497 110.324 72.418 110.324 73.2383ZM134.055 54V84H127.941V54H134.055ZM148.41 84.3906C146.73 84.3906 145.227 84.1237 143.898 83.5898C142.57 83.056 141.444 82.3203 140.52 81.3828C139.608 80.4323 138.911 79.3385 138.43 78.1016C137.948 76.8646 137.707 75.543 137.707 74.1367V73.3945C137.707 71.819 137.928 70.3672 138.371 69.0391C138.814 67.7109 139.458 66.5586 140.305 65.582C141.164 64.5924 142.219 63.8307 143.469 63.2969C144.719 62.75 146.145 62.4766 147.746 62.4766C149.243 62.4766 150.578 62.724 151.75 63.2188C152.922 63.7005 153.911 64.3971 154.719 65.3086C155.526 66.207 156.138 67.2943 156.555 68.5703C156.984 69.8333 157.199 71.2526 157.199 72.8281V75.3281H140.168V71.4023H151.223V70.9336C151.223 70.1914 151.086 69.5404 150.812 68.9805C150.552 68.4206 150.161 67.9909 149.641 67.6914C149.133 67.3789 148.488 67.2227 147.707 67.2227C146.965 67.2227 146.346 67.3789 145.852 67.6914C145.357 68.0039 144.96 68.4466 144.66 69.0195C144.374 69.5794 144.165 70.237 144.035 70.9922C143.905 71.7344 143.84 72.5352 143.84 73.3945V74.1367C143.84 74.957 143.951 75.7057 144.172 76.3828C144.393 77.0599 144.719 77.6393 145.148 78.1211C145.578 78.6029 146.099 78.9805 146.711 79.2539C147.323 79.5273 148.02 79.6641 148.801 79.6641C149.764 79.6641 150.682 79.4818 151.555 79.1172C152.427 78.7396 153.182 78.1536 153.82 77.3594L156.672 80.6211C156.242 81.2461 155.637 81.8516 154.855 82.4375C154.087 83.0104 153.163 83.4792 152.082 83.8438C151.001 84.2083 149.777 84.3906 148.41 84.3906ZM170.91 62.8672V67.1445H158.371V62.8672H170.91ZM161.242 57.6328H167.355V77.3789C167.355 77.9648 167.427 78.4141 167.57 78.7266C167.714 79.0391 167.948 79.2604 168.273 79.3906C168.599 79.5078 169.016 79.5664 169.523 79.5664C169.888 79.5664 170.201 79.5534 170.461 79.5273C170.721 79.5013 170.962 79.4688 171.184 79.4297V83.8438C170.663 84.013 170.109 84.1432 169.523 84.2344C168.938 84.3385 168.299 84.3906 167.609 84.3906C166.294 84.3906 165.155 84.1758 164.191 83.7461C163.241 83.3164 162.512 82.6393 162.004 81.7148C161.496 80.7773 161.242 79.5599 161.242 78.0625V57.6328ZM180.266 62.8672V84H174.152V62.8672H180.266ZM173.781 57.3984C173.781 56.513 174.094 55.7904 174.719 55.2305C175.344 54.6576 176.164 54.3711 177.18 54.3711C178.195 54.3711 179.016 54.6576 179.641 55.2305C180.279 55.7904 180.598 56.513 180.598 57.3984C180.598 58.2708 180.279 58.9935 179.641 59.5664C179.016 60.1263 178.195 60.4062 177.18 60.4062C176.164 60.4062 175.344 60.1263 174.719 59.5664C174.094 58.9935 173.781 58.2708 173.781 57.3984ZM192.062 79.6836L196.477 62.8672H202.883L195.871 84H192.023L192.062 79.6836ZM189.211 62.8672L193.605 79.7031L193.645 84H189.797L182.785 62.8672H189.211ZM216.008 78.9609V69.8984C216.008 69.2604 215.91 68.7135 215.715 68.2578C215.52 67.8021 215.214 67.444 214.797 67.1836C214.38 66.9232 213.84 66.793 213.176 66.793C212.616 66.793 212.128 66.8906 211.711 67.0859C211.307 67.2812 210.995 67.5612 210.773 67.9258C210.565 68.2904 210.461 68.7396 210.461 69.2734H204.367C204.367 68.3229 204.582 67.4375 205.012 66.6172C205.441 65.7969 206.053 65.0742 206.848 64.4492C207.655 63.8242 208.618 63.3424 209.738 63.0039C210.858 62.6523 212.115 62.4766 213.508 62.4766C215.161 62.4766 216.633 62.7565 217.922 63.3164C219.224 63.8633 220.253 64.6901 221.008 65.7969C221.763 66.8906 222.141 68.2708 222.141 69.9375V78.7852C222.141 80.0612 222.212 81.0638 222.355 81.793C222.512 82.5091 222.733 83.1341 223.02 83.668V84H216.867C216.581 83.388 216.366 82.6328 216.223 81.7344C216.079 80.8229 216.008 79.8984 216.008 78.9609ZM216.77 71.1094L216.809 74.4688H213.781C213.104 74.4688 212.518 74.5534 212.023 74.7227C211.542 74.8919 211.151 75.1263 210.852 75.4258C210.552 75.7122 210.331 76.0508 210.188 76.4414C210.057 76.819 209.992 77.2357 209.992 77.6914C209.992 78.1211 210.096 78.5117 210.305 78.8633C210.513 79.2018 210.799 79.4688 211.164 79.6641C211.529 79.8594 211.952 79.957 212.434 79.957C213.228 79.957 213.905 79.8008 214.465 79.4883C215.038 79.1758 215.48 78.7982 215.793 78.3555C216.105 77.8997 216.262 77.4766 216.262 77.0859L217.727 79.625C217.492 80.1458 217.206 80.6862 216.867 81.2461C216.529 81.793 216.099 82.3073 215.578 82.7891C215.057 83.2578 214.426 83.6419 213.684 83.9414C212.954 84.2409 212.076 84.3906 211.047 84.3906C209.719 84.3906 208.514 84.1237 207.434 83.5898C206.353 83.043 205.487 82.2943 204.836 81.3438C204.198 80.3932 203.879 79.2995 203.879 78.0625C203.879 76.9557 204.081 75.9727 204.484 75.1133C204.888 74.2539 205.493 73.5247 206.301 72.9258C207.121 72.3268 208.15 71.8776 209.387 71.5781C210.624 71.2656 212.069 71.1094 213.723 71.1094H216.77Z"/>
</mask>
<path d="M106.047 27.4688H112.375C112.271 29.4219 111.737 31.1471 110.773 32.6445C109.823 34.1289 108.501 35.2943 106.809 36.1406C105.116 36.974 103.104 37.3906 100.773 37.3906C98.9115 37.3906 97.2448 37.0716 95.7734 36.4336C94.3021 35.7956 93.0521 34.8841 92.0234 33.6992C91.0078 32.5013 90.2266 31.0625 89.6797 29.3828C89.1458 27.6901 88.8789 25.7826 88.8789 23.6602V21.9219C88.8789 19.7995 89.1589 17.8919 89.7188 16.1992C90.2786 14.5065 91.0794 13.0612 92.1211 11.8633C93.1628 10.6654 94.4128 9.7474 95.8711 9.10938C97.3294 8.47135 98.957 8.15234 100.754 8.15234C103.176 8.15234 105.22 8.58854 106.887 9.46094C108.553 10.3333 109.842 11.5312 110.754 13.0547C111.678 14.5781 112.232 16.3164 112.414 18.2695H106.066C106.014 17.1628 105.806 16.2318 105.441 15.4766C105.077 14.7083 104.517 14.1289 103.762 13.7383C103.007 13.3477 102.004 13.1523 100.754 13.1523C99.8424 13.1523 99.0417 13.3216 98.3516 13.6602C97.6745 13.9987 97.1081 14.526 96.6523 15.2422C96.2096 15.9583 95.8776 16.8698 95.6562 17.9766C95.4349 19.0703 95.3242 20.3724 95.3242 21.8828V23.6602C95.3242 25.1576 95.4219 26.4531 95.6172 27.5469C95.8125 28.6406 96.125 29.5456 96.5547 30.2617C96.9974 30.9779 97.5638 31.5117 98.2539 31.8633C98.944 32.2148 99.7839 32.3906 100.773 32.3906C101.906 32.3906 102.85 32.2148 103.605 31.8633C104.361 31.4987 104.94 30.9518 105.344 30.2227C105.747 29.4935 105.982 28.5755 106.047 27.4688ZM114.719 26.6484V26.2383C114.719 24.6888 114.94 23.263 115.383 21.9609C115.826 20.6458 116.477 19.5065 117.336 18.543C118.195 17.5794 119.25 16.8307 120.5 16.2969C121.75 15.75 123.182 15.4766 124.797 15.4766C126.438 15.4766 127.883 15.75 129.133 16.2969C130.396 16.8307 131.457 17.5794 132.316 18.543C133.176 19.5065 133.827 20.6458 134.27 21.9609C134.712 23.263 134.934 24.6888 134.934 26.2383V26.6484C134.934 28.1849 134.712 29.6107 134.27 30.9258C133.827 32.2279 133.176 33.3672 132.316 34.3438C131.457 35.3073 130.402 36.056 129.152 36.5898C127.902 37.1237 126.464 37.3906 124.836 37.3906C123.221 37.3906 121.783 37.1237 120.52 36.5898C119.257 36.056 118.195 35.3073 117.336 34.3438C116.477 33.3672 115.826 32.2279 115.383 30.9258C114.94 29.6107 114.719 28.1849 114.719 26.6484ZM120.832 26.2383V26.6484C120.832 27.4818 120.897 28.263 121.027 28.9922C121.171 29.7214 121.398 30.3594 121.711 30.9062C122.023 31.4531 122.434 31.8828 122.941 32.1953C123.462 32.4948 124.094 32.6445 124.836 32.6445C125.578 32.6445 126.203 32.4948 126.711 32.1953C127.219 31.8828 127.629 31.4531 127.941 30.9062C128.254 30.3594 128.475 29.7214 128.605 28.9922C128.749 28.263 128.82 27.4818 128.82 26.6484V26.2383C128.82 25.418 128.749 24.6497 128.605 23.9336C128.475 23.2044 128.254 22.5599 127.941 22C127.629 21.4401 127.212 21.0039 126.691 20.6914C126.184 20.3789 125.552 20.2227 124.797 20.2227C124.068 20.2227 123.449 20.3789 122.941 20.6914C122.434 21.0039 122.023 21.4401 121.711 22C121.398 22.5599 121.171 23.2044 121.027 23.9336C120.897 24.6497 120.832 25.418 120.832 26.2383ZM144.562 7V37H138.449V7H144.562ZM158.918 37.3906C157.238 37.3906 155.734 37.1237 154.406 36.5898C153.078 36.056 151.952 35.3203 151.027 34.3828C150.116 33.4323 149.419 32.3385 148.938 31.1016C148.456 29.8646 148.215 28.543 148.215 27.1367V26.3945C148.215 24.819 148.436 23.3672 148.879 22.0391C149.322 20.7109 149.966 19.5586 150.812 18.582C151.672 17.5924 152.727 16.8307 153.977 16.2969C155.227 15.75 156.652 15.4766 158.254 15.4766C159.751 15.4766 161.086 15.724 162.258 16.2188C163.43 16.7005 164.419 17.3971 165.227 18.3086C166.034 19.207 166.646 20.2943 167.062 21.5703C167.492 22.8333 167.707 24.2526 167.707 25.8281V28.3281H150.676V24.4023H161.73V23.9336C161.73 23.1914 161.594 22.5404 161.32 21.9805C161.06 21.4206 160.669 20.9909 160.148 20.6914C159.641 20.3789 158.996 20.2227 158.215 20.2227C157.473 20.2227 156.854 20.3789 156.359 20.6914C155.865 21.0039 155.467 21.4466 155.168 22.0195C154.882 22.5794 154.673 23.237 154.543 23.9922C154.413 24.7344 154.348 25.5352 154.348 26.3945V27.1367C154.348 27.957 154.458 28.7057 154.68 29.3828C154.901 30.0599 155.227 30.6393 155.656 31.1211C156.086 31.6029 156.607 31.9805 157.219 32.2539C157.831 32.5273 158.527 32.6641 159.309 32.6641C160.272 32.6641 161.19 32.4818 162.062 32.1172C162.935 31.7396 163.69 31.1536 164.328 30.3594L167.18 33.6211C166.75 34.2461 166.145 34.8516 165.363 35.4375C164.595 36.0104 163.671 36.4792 162.59 36.8438C161.509 37.2083 160.285 37.3906 158.918 37.3906ZM181.418 15.8672V20.1445H168.879V15.8672H181.418ZM171.75 10.6328H177.863V30.3789C177.863 30.9648 177.935 31.4141 178.078 31.7266C178.221 32.0391 178.456 32.2604 178.781 32.3906C179.107 32.5078 179.523 32.5664 180.031 32.5664C180.396 32.5664 180.708 32.5534 180.969 32.5273C181.229 32.5013 181.47 32.4688 181.691 32.4297V36.8438C181.171 37.013 180.617 37.1432 180.031 37.2344C179.445 37.3385 178.807 37.3906 178.117 37.3906C176.802 37.3906 175.663 37.1758 174.699 36.7461C173.749 36.3164 173.02 35.6393 172.512 34.7148C172.004 33.7773 171.75 32.5599 171.75 31.0625V10.6328ZM195.539 31.9609V22.8984C195.539 22.2604 195.441 21.7135 195.246 21.2578C195.051 20.8021 194.745 20.444 194.328 20.1836C193.911 19.9232 193.371 19.793 192.707 19.793C192.147 19.793 191.659 19.8906 191.242 20.0859C190.839 20.2812 190.526 20.5612 190.305 20.9258C190.096 21.2904 189.992 21.7396 189.992 22.2734H183.898C183.898 21.3229 184.113 20.4375 184.543 19.6172C184.973 18.7969 185.585 18.0742 186.379 17.4492C187.186 16.8242 188.15 16.3424 189.27 16.0039C190.389 15.6523 191.646 15.4766 193.039 15.4766C194.693 15.4766 196.164 15.7565 197.453 16.3164C198.755 16.8633 199.784 17.6901 200.539 18.7969C201.294 19.8906 201.672 21.2708 201.672 22.9375V31.7852C201.672 33.0612 201.743 34.0638 201.887 34.793C202.043 35.5091 202.264 36.1341 202.551 36.668V37H196.398C196.112 36.388 195.897 35.6328 195.754 34.7344C195.611 33.8229 195.539 32.8984 195.539 31.9609ZM196.301 24.1094L196.34 27.4688H193.312C192.635 27.4688 192.049 27.5534 191.555 27.7227C191.073 27.8919 190.682 28.1263 190.383 28.4258C190.083 28.7122 189.862 29.0508 189.719 29.4414C189.589 29.819 189.523 30.2357 189.523 30.6914C189.523 31.1211 189.628 31.5117 189.836 31.8633C190.044 32.2018 190.331 32.4688 190.695 32.6641C191.06 32.8594 191.483 32.957 191.965 32.957C192.759 32.957 193.436 32.8008 193.996 32.4883C194.569 32.1758 195.012 31.7982 195.324 31.3555C195.637 30.8997 195.793 30.4766 195.793 30.0859L197.258 32.625C197.023 33.1458 196.737 33.6862 196.398 34.2461C196.06 34.793 195.63 35.3073 195.109 35.7891C194.589 36.2578 193.957 36.6419 193.215 36.9414C192.486 37.2409 191.607 37.3906 190.578 37.3906C189.25 37.3906 188.046 37.1237 186.965 36.5898C185.884 36.043 185.018 35.2943 184.367 34.3438C183.729 33.3932 183.41 32.2995 183.41 31.0625C183.41 29.9557 183.612 28.9727 184.016 28.1133C184.419 27.2539 185.025 26.5247 185.832 25.9258C186.652 25.3268 187.681 24.8776 188.918 24.5781C190.155 24.2656 191.6 24.1094 193.254 24.1094H196.301ZM95.5391 74.4688H101.867C101.763 76.4219 101.229 78.1471 100.266 79.6445C99.3151 81.1289 97.9935 82.2943 96.3008 83.1406C94.6081 83.974 92.5964 84.3906 90.2656 84.3906C88.4036 84.3906 86.737 84.0716 85.2656 83.4336C83.7943 82.7956 82.5443 81.8841 81.5156 80.6992C80.5 79.5013 79.7188 78.0625 79.1719 76.3828C78.638 74.6901 78.3711 72.7826 78.3711 70.6602V68.9219C78.3711 66.7995 78.651 64.8919 79.2109 63.1992C79.7708 61.5065 80.5716 60.0612 81.6133 58.8633C82.6549 57.6654 83.9049 56.7474 85.3633 56.1094C86.8216 55.4714 88.4492 55.1523 90.2461 55.1523C92.668 55.1523 94.7122 55.5885 96.3789 56.4609C98.0456 57.3333 99.3346 58.5312 100.246 60.0547C101.171 61.5781 101.724 63.3164 101.906 65.2695H95.5586C95.5065 64.1628 95.2982 63.2318 94.9336 62.4766C94.569 61.7083 94.0091 61.1289 93.2539 60.7383C92.4987 60.3477 91.4961 60.1523 90.2461 60.1523C89.3346 60.1523 88.5339 60.3216 87.8438 60.6602C87.1667 60.9987 86.6003 61.526 86.1445 62.2422C85.7018 62.9583 85.3698 63.8698 85.1484 64.9766C84.9271 66.0703 84.8164 67.3724 84.8164 68.8828V70.6602C84.8164 72.1576 84.9141 73.4531 85.1094 74.5469C85.3047 75.6406 85.6172 76.5456 86.0469 77.2617C86.4896 77.9779 87.056 78.5117 87.7461 78.8633C88.4362 79.2148 89.276 79.3906 90.2656 79.3906C91.3984 79.3906 92.3424 79.2148 93.0977 78.8633C93.8529 78.4987 94.4323 77.9518 94.8359 77.2227C95.2396 76.4935 95.474 75.5755 95.5391 74.4688ZM104.211 73.6484V73.2383C104.211 71.6888 104.432 70.263 104.875 68.9609C105.318 67.6458 105.969 66.5065 106.828 65.543C107.688 64.5794 108.742 63.8307 109.992 63.2969C111.242 62.75 112.674 62.4766 114.289 62.4766C115.93 62.4766 117.375 62.75 118.625 63.2969C119.888 63.8307 120.949 64.5794 121.809 65.543C122.668 66.5065 123.319 67.6458 123.762 68.9609C124.204 70.263 124.426 71.6888 124.426 73.2383V73.6484C124.426 75.1849 124.204 76.6107 123.762 77.9258C123.319 79.2279 122.668 80.3672 121.809 81.3438C120.949 82.3073 119.895 83.056 118.645 83.5898C117.395 84.1237 115.956 84.3906 114.328 84.3906C112.714 84.3906 111.275 84.1237 110.012 83.5898C108.749 83.056 107.688 82.3073 106.828 81.3438C105.969 80.3672 105.318 79.2279 104.875 77.9258C104.432 76.6107 104.211 75.1849 104.211 73.6484ZM110.324 73.2383V73.6484C110.324 74.4818 110.389 75.263 110.52 75.9922C110.663 76.7214 110.891 77.3594 111.203 77.9062C111.516 78.4531 111.926 78.8828 112.434 79.1953C112.954 79.4948 113.586 79.6445 114.328 79.6445C115.07 79.6445 115.695 79.4948 116.203 79.1953C116.711 78.8828 117.121 78.4531 117.434 77.9062C117.746 77.3594 117.967 76.7214 118.098 75.9922C118.241 75.263 118.312 74.4818 118.312 73.6484V73.2383C118.312 72.418 118.241 71.6497 118.098 70.9336C117.967 70.2044 117.746 69.5599 117.434 69C117.121 68.4401 116.704 68.0039 116.184 67.6914C115.676 67.3789 115.044 67.2227 114.289 67.2227C113.56 67.2227 112.941 67.3789 112.434 67.6914C111.926 68.0039 111.516 68.4401 111.203 69C110.891 69.5599 110.663 70.2044 110.52 70.9336C110.389 71.6497 110.324 72.418 110.324 73.2383ZM134.055 54V84H127.941V54H134.055ZM148.41 84.3906C146.73 84.3906 145.227 84.1237 143.898 83.5898C142.57 83.056 141.444 82.3203 140.52 81.3828C139.608 80.4323 138.911 79.3385 138.43 78.1016C137.948 76.8646 137.707 75.543 137.707 74.1367V73.3945C137.707 71.819 137.928 70.3672 138.371 69.0391C138.814 67.7109 139.458 66.5586 140.305 65.582C141.164 64.5924 142.219 63.8307 143.469 63.2969C144.719 62.75 146.145 62.4766 147.746 62.4766C149.243 62.4766 150.578 62.724 151.75 63.2188C152.922 63.7005 153.911 64.3971 154.719 65.3086C155.526 66.207 156.138 67.2943 156.555 68.5703C156.984 69.8333 157.199 71.2526 157.199 72.8281V75.3281H140.168V71.4023H151.223V70.9336C151.223 70.1914 151.086 69.5404 150.812 68.9805C150.552 68.4206 150.161 67.9909 149.641 67.6914C149.133 67.3789 148.488 67.2227 147.707 67.2227C146.965 67.2227 146.346 67.3789 145.852 67.6914C145.357 68.0039 144.96 68.4466 144.66 69.0195C144.374 69.5794 144.165 70.237 144.035 70.9922C143.905 71.7344 143.84 72.5352 143.84 73.3945V74.1367C143.84 74.957 143.951 75.7057 144.172 76.3828C144.393 77.0599 144.719 77.6393 145.148 78.1211C145.578 78.6029 146.099 78.9805 146.711 79.2539C147.323 79.5273 148.02 79.6641 148.801 79.6641C149.764 79.6641 150.682 79.4818 151.555 79.1172C152.427 78.7396 153.182 78.1536 153.82 77.3594L156.672 80.6211C156.242 81.2461 155.637 81.8516 154.855 82.4375C154.087 83.0104 153.163 83.4792 152.082 83.8438C151.001 84.2083 149.777 84.3906 148.41 84.3906ZM170.91 62.8672V67.1445H158.371V62.8672H170.91ZM161.242 57.6328H167.355V77.3789C167.355 77.9648 167.427 78.4141 167.57 78.7266C167.714 79.0391 167.948 79.2604 168.273 79.3906C168.599 79.5078 169.016 79.5664 169.523 79.5664C169.888 79.5664 170.201 79.5534 170.461 79.5273C170.721 79.5013 170.962 79.4688 171.184 79.4297V83.8438C170.663 84.013 170.109 84.1432 169.523 84.2344C168.938 84.3385 168.299 84.3906 167.609 84.3906C166.294 84.3906 165.155 84.1758 164.191 83.7461C163.241 83.3164 162.512 82.6393 162.004 81.7148C161.496 80.7773 161.242 79.5599 161.242 78.0625V57.6328ZM180.266 62.8672V84H174.152V62.8672H180.266ZM173.781 57.3984C173.781 56.513 174.094 55.7904 174.719 55.2305C175.344 54.6576 176.164 54.3711 177.18 54.3711C178.195 54.3711 179.016 54.6576 179.641 55.2305C180.279 55.7904 180.598 56.513 180.598 57.3984C180.598 58.2708 180.279 58.9935 179.641 59.5664C179.016 60.1263 178.195 60.4062 177.18 60.4062C176.164 60.4062 175.344 60.1263 174.719 59.5664C174.094 58.9935 173.781 58.2708 173.781 57.3984ZM192.062 79.6836L196.477 62.8672H202.883L195.871 84H192.023L192.062 79.6836ZM189.211 62.8672L193.605 79.7031L193.645 84H189.797L182.785 62.8672H189.211ZM216.008 78.9609V69.8984C216.008 69.2604 215.91 68.7135 215.715 68.2578C215.52 67.8021 215.214 67.444 214.797 67.1836C214.38 66.9232 213.84 66.793 213.176 66.793C212.616 66.793 212.128 66.8906 211.711 67.0859C211.307 67.2812 210.995 67.5612 210.773 67.9258C210.565 68.2904 210.461 68.7396 210.461 69.2734H204.367C204.367 68.3229 204.582 67.4375 205.012 66.6172C205.441 65.7969 206.053 65.0742 206.848 64.4492C207.655 63.8242 208.618 63.3424 209.738 63.0039C210.858 62.6523 212.115 62.4766 213.508 62.4766C215.161 62.4766 216.633 62.7565 217.922 63.3164C219.224 63.8633 220.253 64.6901 221.008 65.7969C221.763 66.8906 222.141 68.2708 222.141 69.9375V78.7852C222.141 80.0612 222.212 81.0638 222.355 81.793C222.512 82.5091 222.733 83.1341 223.02 83.668V84H216.867C216.581 83.388 216.366 82.6328 216.223 81.7344C216.079 80.8229 216.008 79.8984 216.008 78.9609ZM216.77 71.1094L216.809 74.4688H213.781C213.104 74.4688 212.518 74.5534 212.023 74.7227C211.542 74.8919 211.151 75.1263 210.852 75.4258C210.552 75.7122 210.331 76.0508 210.188 76.4414C210.057 76.819 209.992 77.2357 209.992 77.6914C209.992 78.1211 210.096 78.5117 210.305 78.8633C210.513 79.2018 210.799 79.4688 211.164 79.6641C211.529 79.8594 211.952 79.957 212.434 79.957C213.228 79.957 213.905 79.8008 214.465 79.4883C215.038 79.1758 215.48 78.7982 215.793 78.3555C216.105 77.8997 216.262 77.4766 216.262 77.0859L217.727 79.625C217.492 80.1458 217.206 80.6862 216.867 81.2461C216.529 81.793 216.099 82.3073 215.578 82.7891C215.057 83.2578 214.426 83.6419 213.684 83.9414C212.954 84.2409 212.076 84.3906 211.047 84.3906C209.719 84.3906 208.514 84.1237 207.434 83.5898C206.353 83.043 205.487 82.2943 204.836 81.3438C204.198 80.3932 203.879 79.2995 203.879 78.0625C203.879 76.9557 204.081 75.9727 204.484 75.1133C204.888 74.2539 205.493 73.5247 206.301 72.9258C207.121 72.3268 208.15 71.8776 209.387 71.5781C210.624 71.2656 212.069 71.1094 213.723 71.1094H216.77Z" fill="#241F1C"/>
<path d="M106.047 27.4688V26.4688H105.104L105.049 27.41L106.047 27.4688ZM112.375 27.4688L113.374 27.522L113.43 26.4688H112.375V27.4688ZM110.773 32.6445L109.932 32.1034L109.931 32.1053L110.773 32.6445ZM106.809 36.1406L107.25 37.0378L107.256 37.0351L106.809 36.1406ZM92.0234 33.6992L91.2606 34.3459L91.2683 34.3548L92.0234 33.6992ZM89.6797 29.3828L88.726 29.6836L88.7288 29.6924L89.6797 29.3828ZM89.7188 16.1992L90.6682 16.5133L89.7188 16.1992ZM92.1211 11.8633L92.8757 12.5195L92.1211 11.8633ZM110.754 13.0547L109.896 13.5681L109.899 13.5735L110.754 13.0547ZM112.414 18.2695V19.2695H113.512L113.41 18.1766L112.414 18.2695ZM106.066 18.2695L105.068 18.3165L105.112 19.2695H106.066V18.2695ZM105.441 15.4766L104.538 15.9053L104.541 15.9113L105.441 15.4766ZM98.3516 13.6602L97.9111 12.7623L97.9043 12.7657L98.3516 13.6602ZM96.6523 15.2422L95.8086 14.7053L95.8017 14.7164L96.6523 15.2422ZM95.6562 17.9766L96.6364 18.1749L96.6368 18.1727L95.6562 17.9766ZM96.5547 30.2617L95.6971 30.7763L95.7041 30.7875L96.5547 30.2617ZM103.605 31.8633L104.028 32.77L104.04 32.7638L103.605 31.8633ZM106.047 28.4688H112.375V26.4688H106.047V28.4688ZM111.376 27.4155C111.281 29.2126 110.793 30.7663 109.932 32.1034L111.614 33.1857C112.681 31.528 113.261 29.6312 113.374 27.522L111.376 27.4155ZM109.931 32.1053C109.085 33.4266 107.905 34.4743 106.361 35.2462L107.256 37.0351C109.097 36.1142 110.561 34.8312 111.616 33.1838L109.931 32.1053ZM106.367 35.2435C104.84 35.9951 102.986 36.3906 100.773 36.3906V38.3906C103.222 38.3906 105.392 37.9528 107.25 37.0378L106.367 35.2435ZM100.773 36.3906C99.0265 36.3906 97.4985 36.0916 96.1713 35.5161L95.3756 37.3511C96.9911 38.0516 98.7964 38.3906 100.773 38.3906V36.3906ZM96.1713 35.5161C94.834 34.9362 93.707 34.1131 92.7786 33.0437L91.2683 34.3548C92.3972 35.6551 93.7702 36.6549 95.3756 37.3511L96.1713 35.5161ZM92.7862 33.0525C91.8644 31.9653 91.1422 30.6448 90.6306 29.0732L88.7288 29.6924C89.3109 31.4802 90.1512 33.0373 91.2607 34.3459L92.7862 33.0525ZM90.6334 29.082C90.1355 27.5035 89.8789 25.6999 89.8789 23.6602H87.8789C87.8789 25.8652 88.1561 27.8767 88.726 29.6836L90.6334 29.082ZM89.8789 23.6602V21.9219H87.8789V23.6602H89.8789ZM89.8789 21.9219C89.8789 19.8865 90.1475 18.0875 90.6682 16.5133L88.7693 15.8852C88.1703 17.6964 87.8789 19.7125 87.8789 21.9219H89.8789ZM90.6682 16.5133C91.1916 14.9309 91.9311 13.6058 92.8757 12.5195L91.3665 11.2071C90.2278 12.5166 89.3657 14.0821 88.7693 15.8852L90.6682 16.5133ZM92.8757 12.5195C93.8199 11.4337 94.9489 10.6043 96.2719 10.0255L95.4703 8.19322C93.8766 8.89045 92.5056 9.89707 91.3665 11.2071L92.8757 12.5195ZM96.2719 10.0255C97.5885 9.44951 99.0772 9.15234 100.754 9.15234V7.15234C98.8368 7.15234 97.0703 7.4932 95.4703 8.19322L96.2719 10.0255ZM100.754 9.15234C103.059 9.15234 104.935 9.56784 106.423 10.3469L107.35 8.57497C105.505 7.60924 103.292 7.15234 100.754 7.15234V9.15234ZM106.423 10.3469C107.937 11.1392 109.085 12.2124 109.896 13.5681L111.612 12.5413C110.6 10.8501 109.17 9.52751 107.35 8.57497L106.423 10.3469ZM109.899 13.5735C110.737 14.9548 111.249 16.5447 111.418 18.3625L113.41 18.1766C113.215 16.0881 112.619 14.2014 111.609 12.5359L109.899 13.5735ZM112.414 17.2695H106.066V19.2695H112.414V17.2695ZM107.065 18.2225C107.009 17.0222 106.781 15.9505 106.342 15.0418L104.541 15.9113C104.831 16.513 105.02 17.3033 105.068 18.3165L107.065 18.2225ZM106.345 15.0478C105.886 14.082 105.171 13.3412 104.221 12.8501L103.302 14.6265C103.863 14.9166 104.267 15.3346 104.538 15.9053L106.345 15.0478ZM104.221 12.8501C103.273 12.3596 102.094 12.1523 100.754 12.1523V14.1523C101.914 14.1523 102.74 14.3357 103.302 14.6265L104.221 12.8501ZM100.754 12.1523C99.7179 12.1523 98.7615 12.3452 97.9111 12.7624L98.792 14.5579C99.3218 14.298 99.967 14.1523 100.754 14.1523V12.1523ZM97.9043 12.7657C97.0461 13.1948 96.3496 13.8553 95.8087 14.7053L97.496 15.7791C97.8665 15.1968 98.3028 14.8025 98.7988 14.5546L97.9043 12.7657ZM95.8017 14.7164C95.2791 15.5618 94.9129 16.5942 94.6757 17.7804L96.6368 18.1727C96.8423 17.1453 97.1401 16.3549 97.5029 15.768L95.8017 14.7164ZM94.6761 17.7782C94.4379 18.9555 94.3242 20.3275 94.3242 21.8828H96.3242C96.3242 20.4173 96.4319 19.1851 96.6364 18.1749L94.6761 17.7782ZM94.3242 21.8828V23.6602H96.3242V21.8828H94.3242ZM94.3242 23.6602C94.3242 25.1976 94.4242 26.5549 94.6328 27.7227L96.6016 27.3711C96.4195 26.3514 96.3242 25.1175 96.3242 23.6602H94.3242ZM94.6328 27.7227C94.8428 28.8989 95.1881 29.9277 95.6972 30.7762L97.4122 29.7472C97.0619 29.1635 96.7822 28.3824 96.6016 27.3711L94.6328 27.7227ZM95.7041 30.7875C96.2344 31.6454 96.9326 32.3124 97.8 32.7543L98.7078 30.9722C98.195 30.711 97.7604 30.3103 97.4053 29.7359L95.7041 30.7875ZM97.8 32.7543C98.6642 33.1946 99.6686 33.3906 100.773 33.3906V31.3906C99.8991 31.3906 99.2238 31.2351 98.7078 30.9722L97.8 32.7543ZM100.773 33.3906C102.002 33.3906 103.102 33.2009 104.027 32.7699L103.183 30.9567C102.599 31.2288 101.81 31.3906 100.773 31.3906V33.3906ZM104.04 32.7638C104.98 32.3099 105.714 31.6183 106.219 30.707L104.469 29.7383C104.166 30.2854 103.741 30.6874 103.171 30.9627L104.04 32.7638ZM106.219 30.707C106.715 29.8112 106.974 28.7365 107.045 27.5275L105.049 27.41C104.99 28.4145 104.78 29.1758 104.469 29.7383L106.219 30.707ZM115.383 21.9609L116.33 22.2828L116.331 22.28L115.383 21.9609ZM120.5 16.2969L120.893 17.2166L120.901 17.213L120.5 16.2969ZM129.133 16.2969L128.732 17.2131L128.743 17.218L129.133 16.2969ZM134.27 21.9609L133.322 22.28L133.323 22.2828L134.27 21.9609ZM134.27 30.9258L135.216 31.2477L135.217 31.2448L134.27 30.9258ZM132.316 34.3438L133.063 35.0094L133.067 35.0044L132.316 34.3438ZM117.336 34.3438L116.585 35.0044L116.59 35.0094L117.336 34.3438ZM115.383 30.9258L114.435 31.2448L114.436 31.2477L115.383 30.9258ZM121.027 28.9922L120.043 29.168L120.044 29.1765L120.046 29.1849L121.027 28.9922ZM122.941 32.1953L122.417 33.047L122.43 33.0548L122.443 33.0622L122.941 32.1953ZM126.711 32.1953L127.219 33.0567L127.227 33.0519L127.235 33.047L126.711 32.1953ZM128.605 28.9922L127.624 28.7994L127.623 28.8079L127.621 28.8164L128.605 28.9922ZM128.605 23.9336L127.621 24.1094L127.623 24.1196L127.625 24.1297L128.605 23.9336ZM126.691 20.6914L126.167 21.5431L126.177 21.5489L126.691 20.6914ZM121.027 23.9336L120.046 23.7408L120.043 23.7547L121.027 23.9336ZM115.719 26.6484V26.2383H113.719V26.6484H115.719ZM115.719 26.2383C115.719 24.7846 115.926 23.469 116.33 22.2828L114.436 21.639C113.954 23.057 113.719 24.593 113.719 26.2383H115.719ZM116.331 22.28C116.733 21.0831 117.319 20.064 118.082 19.2086L116.59 17.8774C115.634 18.949 114.918 20.2085 114.435 21.6419L116.331 22.28ZM118.082 19.2086C118.839 18.3604 119.771 17.6958 120.893 17.2165L120.107 15.3772C118.729 15.9657 117.552 16.7984 116.59 17.8774L118.082 19.2086ZM120.901 17.213C122.003 16.7306 123.295 16.4766 124.797 16.4766V14.4766C123.069 14.4766 121.497 14.7694 120.099 15.3807L120.901 17.213ZM124.797 16.4766C126.327 16.4766 127.631 16.7315 128.732 17.213L129.534 15.3807C128.134 14.7685 126.548 14.4766 124.797 14.4766V16.4766ZM128.743 17.218C129.879 17.6978 130.815 18.3624 131.57 19.2086L133.063 17.8774C132.099 16.7965 130.913 15.9636 129.522 15.3758L128.743 17.218ZM131.57 19.2086C132.333 20.064 132.919 21.0831 133.322 22.28L135.217 21.6419C134.735 20.2085 134.018 18.949 133.063 17.8774L131.57 19.2086ZM133.323 22.2828C133.726 23.469 133.934 24.7846 133.934 26.2383H135.934C135.934 24.593 135.698 23.057 135.216 21.639L133.323 22.2828ZM133.934 26.2383V26.6484H135.934V26.2383H133.934ZM133.934 26.6484C133.934 28.088 133.726 29.4048 133.322 30.6067L135.217 31.2448C135.698 29.8165 135.934 28.2818 135.934 26.6484H133.934ZM133.323 30.6039C132.92 31.7885 132.333 32.811 131.566 33.6831L133.067 35.0044C134.018 33.9233 134.734 32.6672 135.216 31.2477L133.323 30.6039ZM131.57 33.6781C130.814 34.5263 129.882 35.1909 128.76 35.6702L129.545 37.5095C130.923 36.9211 132.1 36.0883 133.063 35.0094L131.57 33.6781ZM128.76 35.6702C127.656 36.1416 126.355 36.3906 124.836 36.3906V38.3906C126.572 38.3906 128.149 38.1057 129.545 37.5095L128.76 35.6702ZM124.836 36.3906C123.332 36.3906 122.029 36.1421 120.909 35.6687L120.13 37.5109C121.536 38.1053 123.111 38.3906 124.836 38.3906V36.3906ZM120.909 35.6687C119.774 35.1889 118.837 34.5243 118.082 33.6781L116.59 35.0094C117.554 36.0903 118.739 36.9231 120.13 37.5109L120.909 35.6687ZM118.087 33.6831C117.319 32.811 116.732 31.7885 116.33 30.6039L114.436 31.2477C114.919 32.6672 115.634 33.9233 116.585 35.0044L118.087 33.6831ZM116.331 30.6067C115.926 29.4048 115.719 28.088 115.719 26.6484H113.719C113.719 28.2818 113.954 29.8165 114.435 31.2448L116.331 30.6067ZM119.832 26.2383V26.6484H121.832V26.2383H119.832ZM119.832 26.6484C119.832 27.5335 119.901 28.3741 120.043 29.168L122.012 28.8164C121.893 28.1519 121.832 27.43 121.832 26.6484H119.832ZM120.046 29.1849C120.207 30.002 120.468 30.746 120.843 31.4024L122.579 30.4101C122.329 29.9728 122.135 29.4407 122.009 28.7994L120.046 29.1849ZM120.843 31.4024C121.233 32.0863 121.759 32.6417 122.417 33.047L123.466 31.3437C123.108 31.1239 122.813 30.82 122.579 30.4101L120.843 31.4024ZM122.443 33.0622C123.147 33.4672 123.96 33.6445 124.836 33.6445V31.6445C124.228 31.6445 123.777 31.5224 123.44 31.3284L122.443 33.0622ZM124.836 33.6445C125.711 33.6445 126.522 33.4676 127.219 33.0567L126.203 31.3339C125.884 31.522 125.445 31.6445 124.836 31.6445V33.6445ZM127.235 33.047C127.894 32.6417 128.419 32.0863 128.81 31.4024L127.073 30.4101C126.839 30.82 126.544 31.1239 126.187 31.3437L127.235 33.047ZM128.81 31.4024C129.188 30.7404 129.443 29.9904 129.59 29.168L127.621 28.8164C127.507 29.4523 127.32 29.9783 127.073 30.4101L128.81 31.4024ZM129.587 29.1849C129.744 28.3852 129.82 27.5388 129.82 26.6484H127.82C127.82 27.4247 127.754 28.1409 127.624 28.7994L129.587 29.1849ZM129.82 26.6484V26.2383H127.82V26.6484H129.82ZM129.82 26.2383C129.82 25.36 129.744 24.5255 129.586 23.7375L127.625 24.1297C127.754 24.774 127.82 25.4759 127.82 26.2383H129.82ZM129.59 23.7578C129.443 22.936 129.189 22.1832 128.815 21.5126L127.068 22.4874C127.319 22.9366 127.507 23.4729 127.621 24.1094L129.59 23.7578ZM128.815 21.5126C128.422 20.809 127.885 20.2414 127.206 19.8339L126.177 21.5489C126.539 21.7664 126.836 22.0712 127.068 22.4874L128.815 21.5126ZM127.216 19.8397C126.513 19.4075 125.688 19.2227 124.797 19.2227V21.2227C125.416 21.2227 125.854 21.3503 126.167 21.5431L127.216 19.8397ZM124.797 19.2227C123.924 19.2227 123.115 19.4107 122.417 19.8397L123.466 21.5431C123.784 21.3471 124.211 21.2227 124.797 21.2227V19.2227ZM122.417 19.8397C121.753 20.2486 121.227 20.8151 120.838 21.5126L122.584 22.4874C122.82 22.0651 123.114 21.7593 123.466 21.5431L122.417 19.8397ZM120.838 21.5126C120.467 22.1777 120.206 22.9245 120.046 23.7408L122.009 24.1263C122.135 23.4844 122.33 22.9421 122.584 22.4874L120.838 21.5126ZM120.043 23.7547C119.901 24.5368 119.832 25.3654 119.832 26.2383H121.832C121.832 25.4705 121.893 24.7627 122.011 24.1125L120.043 23.7547ZM144.562 7H145.562V6H144.562V7ZM144.562 37V38H145.562V37H144.562ZM138.449 37H137.449V38H138.449V37ZM138.449 7V6H137.449V7H138.449ZM143.562 7V37H145.562V7H143.562ZM144.562 36H138.449V38H144.562V36ZM139.449 37V7H137.449V37H139.449ZM138.449 8H144.562V6H138.449V8ZM151.027 34.3828L150.305 35.075L150.315 35.085L151.027 34.3828ZM150.812 18.582L150.057 17.9263L150.057 17.9271L150.812 18.582ZM153.977 16.2969L154.369 17.2166L154.377 17.213L153.977 16.2969ZM162.258 16.2188L161.869 17.14L161.878 17.1436L162.258 16.2188ZM165.227 18.3086L164.478 18.9716L164.483 18.977L165.227 18.3086ZM167.062 21.5703L166.112 21.8807L166.116 21.8924L167.062 21.5703ZM167.707 28.3281V29.3281H168.707V28.3281H167.707ZM150.676 28.3281H149.676V29.3281H150.676V28.3281ZM150.676 24.4023V23.4023H149.676V24.4023H150.676ZM161.73 24.4023V25.4023H162.73V24.4023H161.73ZM161.32 21.9805L160.414 22.4022L160.418 22.4108L160.422 22.4193L161.32 21.9805ZM160.148 20.6914L159.624 21.5431L159.637 21.5509L159.65 21.5583L160.148 20.6914ZM155.168 22.0195L154.282 21.5563L154.278 21.5641L155.168 22.0195ZM154.543 23.9922L155.528 24.165L155.528 24.1621L154.543 23.9922ZM157.219 32.2539L156.811 33.1669L157.219 32.2539ZM162.062 32.1172L162.448 33.0399L162.46 33.0349L162.062 32.1172ZM164.328 30.3594L165.081 29.7012L164.296 28.8029L163.549 29.7331L164.328 30.3594ZM167.18 33.6211L168.004 34.1876L168.444 33.5476L167.933 32.9629L167.18 33.6211ZM165.363 35.4375L165.961 36.2391L165.963 36.2375L165.363 35.4375ZM158.918 36.3906C157.344 36.3906 155.97 36.1407 154.779 35.662L154.033 37.5177C155.499 38.1067 157.132 38.3906 158.918 38.3906V36.3906ZM154.779 35.662C153.567 35.1748 152.559 34.5122 151.739 33.6807L150.315 35.085C151.344 36.1284 152.589 36.9372 154.033 37.5177L154.779 35.662ZM151.749 33.6907C150.929 32.8358 150.304 31.8542 149.869 30.7386L148.006 31.4645C148.535 32.8229 149.302 34.0288 150.306 35.0749L151.749 33.6907ZM149.869 30.7386C149.435 29.6241 149.215 28.4263 149.215 27.1367H147.215C147.215 28.6597 147.476 30.1051 148.006 31.4645L149.869 30.7386ZM149.215 27.1367V26.3945H147.215V27.1367H149.215ZM149.215 26.3945C149.215 24.9132 149.423 23.5695 149.828 22.3553L147.93 21.7228C147.45 23.1648 147.215 24.7248 147.215 26.3945H149.215ZM149.828 22.3553C150.232 21.1412 150.815 20.1064 151.568 19.237L150.057 17.9271C149.118 19.0108 148.411 20.2807 147.93 21.7228L149.828 22.3553ZM151.568 19.2377C152.324 18.3667 153.253 17.6932 154.369 17.2165L153.584 15.3772C152.2 15.9683 151.02 16.8182 150.057 17.9263L151.568 19.2377ZM154.377 17.213C155.481 16.7302 156.767 16.4766 158.254 16.4766V14.4766C156.538 14.4766 154.972 14.7698 153.576 15.3807L154.377 17.213ZM158.254 16.4766C159.641 16.4766 160.84 16.7055 161.869 17.14L162.647 15.2975C161.332 14.7424 159.862 14.4766 158.254 14.4766V16.4766ZM161.878 17.1436C162.914 17.5698 163.776 18.1791 164.478 18.9716L165.975 17.6456C165.063 16.6152 163.945 15.8312 162.638 15.2939L161.878 17.1436ZM164.483 18.977C165.187 19.7608 165.734 20.7223 166.112 21.8807L168.013 21.2599C167.558 19.8663 166.881 18.6533 165.97 17.6402L164.483 18.977ZM166.116 21.8924C166.504 23.0349 166.707 24.3428 166.707 25.8281H168.707C168.707 24.1624 168.48 22.6318 168.009 21.2482L166.116 21.8924ZM166.707 25.8281V28.3281H168.707V25.8281H166.707ZM167.707 27.3281H150.676V29.3281H167.707V27.3281ZM151.676 28.3281V24.4023H149.676V28.3281H151.676ZM150.676 25.4023H161.73V23.4023H150.676V25.4023ZM162.73 24.4023V23.9336H160.73V24.4023H162.73ZM162.73 23.9336C162.73 23.0681 162.571 22.2619 162.219 21.5416L160.422 22.4193C160.617 22.8188 160.73 23.3147 160.73 23.9336H162.73ZM162.227 21.5587C161.882 20.8175 161.352 20.2297 160.647 19.8245L159.65 21.5583C159.987 21.752 160.238 22.0237 160.414 22.4022L162.227 21.5587ZM160.673 19.8397C159.965 19.4045 159.125 19.2227 158.215 19.2227V21.2227C158.867 21.2227 159.316 21.3533 159.624 21.5431L160.673 19.8397ZM158.215 19.2227C157.334 19.2227 156.518 19.4086 155.825 19.8459L156.893 21.5369C157.191 21.3492 157.611 21.2227 158.215 21.2227V19.2227ZM155.825 19.8459C155.166 20.2622 154.654 20.8439 154.282 21.5563L156.054 22.4828C156.281 22.0493 156.563 21.7456 156.893 21.5369L155.825 19.8459ZM154.278 21.5641C153.937 22.2309 153.701 22.9885 153.558 23.8223L155.528 24.1621C155.645 23.4854 155.826 22.9279 156.058 22.475L154.278 21.5641ZM153.558 23.8194C153.417 24.6259 153.348 25.4851 153.348 26.3945H155.348C155.348 25.5852 155.409 24.8428 155.528 24.165L153.558 23.8194ZM153.348 26.3945V27.1367H155.348V26.3945H153.348ZM153.348 27.1367C153.348 28.0469 153.47 28.9023 153.729 29.6936L155.63 29.0721C155.446 28.5092 155.348 27.8672 155.348 27.1367H153.348ZM153.729 29.6936C153.989 30.4881 154.379 31.1918 154.91 31.7867L156.403 30.4555C156.074 30.0869 155.813 29.6317 155.63 29.0721L153.729 29.6936ZM154.91 31.7867C155.437 32.378 156.075 32.8381 156.811 33.1669L157.627 31.3409C157.139 31.1228 156.735 30.8277 156.403 30.4555L154.91 31.7867ZM156.811 33.1669C157.571 33.5064 158.41 33.6641 159.309 33.6641V31.6641C158.645 31.6641 158.091 31.5483 157.627 31.3409L156.811 33.1669ZM159.309 33.6641C160.402 33.6641 161.451 33.4565 162.448 33.0399L161.677 31.1945C160.929 31.5071 160.142 31.6641 159.309 31.6641V33.6641ZM162.46 33.0349C163.492 32.5881 164.375 31.8974 165.108 30.9856L163.549 29.7331C163.005 30.4099 162.378 30.8911 161.665 31.1995L162.46 33.0349ZM163.575 31.0176L166.427 34.2793L167.933 32.9629L165.081 29.7012L163.575 31.0176ZM166.356 33.0546C166.002 33.5686 165.481 34.099 164.763 34.6375L165.963 36.2375C166.808 35.6042 167.498 34.9236 168.004 34.1876L166.356 33.0546ZM164.765 34.6359C164.096 35.1351 163.27 35.5591 162.27 35.8962L162.909 37.7913C164.072 37.3992 165.094 36.8857 165.961 36.2391L164.765 34.6359ZM162.27 35.8962C161.311 36.2199 160.197 36.3906 158.918 36.3906V38.3906C160.373 38.3906 161.708 38.1967 162.909 37.7913L162.27 35.8962ZM181.418 15.8672H182.418V14.8672H181.418V15.8672ZM181.418 20.1445V21.1445H182.418V20.1445H181.418ZM168.879 20.1445H167.879V21.1445H168.879V20.1445ZM168.879 15.8672V14.8672H167.879V15.8672H168.879ZM171.75 10.6328V9.63281H170.75V10.6328H171.75ZM177.863 10.6328H178.863V9.63281H177.863V10.6328ZM178.781 32.3906L178.41 33.3191L178.426 33.3256L178.443 33.3315L178.781 32.3906ZM181.691 32.4297H182.691V31.2378L181.518 31.4449L181.691 32.4297ZM181.691 36.8438L182 37.7948L182.691 37.5702V36.8438H181.691ZM180.031 37.2344L179.878 36.2463L179.867 36.2479L179.856 36.2498L180.031 37.2344ZM174.699 36.7461L174.287 37.6573L174.292 37.6594L174.699 36.7461ZM172.512 34.7148L171.632 35.1911L171.635 35.1963L172.512 34.7148ZM180.418 15.8672V20.1445H182.418V15.8672H180.418ZM181.418 19.1445H168.879V21.1445H181.418V19.1445ZM169.879 20.1445V15.8672H167.879V20.1445H169.879ZM168.879 16.8672H181.418V14.8672H168.879V16.8672ZM171.75 11.6328H177.863V9.63281H171.75V11.6328ZM176.863 10.6328V30.3789H178.863V10.6328H176.863ZM176.863 30.3789C176.863 31.0211 176.938 31.6387 177.169 32.1432L178.987 31.3099C178.932 31.1894 178.863 30.9086 178.863 30.3789H176.863ZM177.169 32.1432C177.422 32.6941 177.851 33.0957 178.41 33.3191L179.153 31.4621C179.06 31.4251 179.021 31.384 178.987 31.3099L177.169 32.1432ZM178.443 33.3315C178.915 33.5015 179.457 33.5664 180.031 33.5664V31.5664C179.59 31.5664 179.299 31.5141 179.12 31.4497L178.443 33.3315ZM180.031 33.5664C180.417 33.5664 180.765 33.5527 181.068 33.5224L180.869 31.5323C180.652 31.554 180.374 31.5664 180.031 31.5664V33.5664ZM181.068 33.5224C181.35 33.4942 181.616 33.4585 181.865 33.4145L181.518 31.4449C181.324 31.479 181.109 31.5084 180.869 31.5323L181.068 33.5224ZM180.691 32.4297V36.8438H182.691V32.4297H180.691ZM181.382 35.8927C180.916 36.0442 180.415 36.1626 179.878 36.2463L180.185 38.2225C180.819 38.1238 181.425 37.9818 182 37.7948L181.382 35.8927ZM179.856 36.2498C179.336 36.3422 178.758 36.3906 178.117 36.3906V38.3906C178.857 38.3906 179.554 38.3348 180.206 38.2189L179.856 36.2498ZM178.117 36.3906C176.909 36.3906 175.914 36.1931 175.107 35.8328L174.292 37.6594C175.411 38.1585 176.695 38.3906 178.117 38.3906V36.3906ZM175.111 35.8349C174.36 35.4954 173.793 34.9704 173.388 34.2334L171.635 35.1963C172.246 36.3083 173.137 37.1374 174.287 37.6573L175.111 35.8349ZM173.391 34.2386C172.988 33.4945 172.75 32.4571 172.75 31.0625H170.75C170.75 32.6627 171.02 34.0602 171.632 35.1911L173.391 34.2386ZM172.75 31.0625V10.6328H170.75V31.0625H172.75ZM191.242 20.0859L190.818 19.1804L190.807 19.1858L191.242 20.0859ZM190.305 20.9258L189.45 20.4068L189.443 20.4181L189.436 20.4296L190.305 20.9258ZM189.992 22.2734V23.2734H190.992V22.2734H189.992ZM183.898 22.2734H182.898V23.2734H183.898V22.2734ZM186.379 17.4492L185.767 16.6585L185.761 16.6633L186.379 17.4492ZM189.27 16.0039L189.559 16.9612L189.569 16.958L189.27 16.0039ZM197.453 16.3164L197.055 17.2337L197.066 17.2384L197.453 16.3164ZM200.539 18.7969L199.713 19.3605L199.716 19.3651L200.539 18.7969ZM201.887 34.793L200.905 34.9857L200.907 34.9959L200.91 35.0061L201.887 34.793ZM202.551 36.668H203.551V36.4166L203.432 36.1952L202.551 36.668ZM202.551 37V38H203.551V37H202.551ZM196.398 37L195.493 37.4239L195.762 38H196.398V37ZM195.754 34.7344L194.766 34.8896L194.766 34.8918L195.754 34.7344ZM196.301 24.1094L197.301 24.0977L197.289 23.1094H196.301V24.1094ZM196.34 27.4688V28.4688H197.352L197.34 27.4571L196.34 27.4688ZM191.555 27.7227L191.231 26.7765L191.223 26.7792L191.555 27.7227ZM190.383 28.4258L191.074 29.1484L191.082 29.1407L191.09 29.1329L190.383 28.4258ZM189.719 29.4414L188.78 29.0972L188.777 29.1063L188.773 29.1154L189.719 29.4414ZM189.836 31.8633L188.976 32.3731L188.98 32.3803L188.984 32.3874L189.836 31.8633ZM193.996 32.4883L193.517 31.6103L193.509 31.6151L193.996 32.4883ZM195.324 31.3555L196.141 31.9322L196.149 31.921L195.324 31.3555ZM195.793 30.0859L196.659 29.5862L194.793 26.3515V30.0859H195.793ZM197.258 32.625L198.17 33.0354L198.38 32.5686L198.124 32.1253L197.258 32.625ZM196.398 34.2461L197.249 34.7725L197.254 34.7635L196.398 34.2461ZM195.109 35.7891L195.778 36.5324L195.788 36.5232L195.109 35.7891ZM193.215 36.9414L192.841 36.014L192.835 36.0164L193.215 36.9414ZM186.965 36.5898L186.513 37.4822L186.522 37.4864L186.965 36.5898ZM184.367 34.3438L183.537 34.9011L183.542 34.9088L184.367 34.3438ZM185.832 25.9258L185.242 25.1181L185.236 25.1227L185.832 25.9258ZM188.918 24.5781L189.153 25.5501L189.163 25.5477L188.918 24.5781ZM196.539 31.9609V22.8984H194.539V31.9609H196.539ZM196.539 22.8984C196.539 22.1622 196.427 21.4743 196.165 20.8639L194.327 21.6517C194.456 21.9528 194.539 22.3586 194.539 22.8984H196.539ZM196.165 20.8639C195.89 20.2225 195.449 19.7052 194.858 19.3356L193.798 21.0316C194.04 21.1828 194.211 21.3817 194.327 21.6517L196.165 20.8639ZM194.858 19.3356C194.236 18.9467 193.495 18.793 192.707 18.793V20.793C193.248 20.793 193.587 20.8996 193.798 21.0316L194.858 19.3356ZM192.707 18.793C192.032 18.793 191.393 18.9109 190.818 19.1805L191.667 20.9914C191.925 20.8704 192.263 20.793 192.707 20.793V18.793ZM190.807 19.1858C190.239 19.4605 189.777 19.8687 189.45 20.4068L191.159 21.4448C191.275 21.2537 191.438 21.102 191.678 20.9861L190.807 19.1858ZM189.436 20.4296C189.121 20.981 188.992 21.6119 188.992 22.2734H190.992C190.992 21.8673 191.071 21.5997 191.173 21.4219L189.436 20.4296ZM189.992 21.2734H183.898V23.2734H189.992V21.2734ZM184.898 22.2734C184.898 21.4801 185.076 20.7545 185.429 20.0812L183.657 19.1532C183.15 20.1205 182.898 21.1657 182.898 22.2734H184.898ZM185.429 20.0812C185.787 19.3969 186.304 18.7809 186.997 18.2351L185.761 16.6633C184.866 17.3675 184.158 18.1969 183.657 19.1532L185.429 20.0812ZM186.991 18.2399C187.689 17.6997 188.539 17.2694 189.559 16.9611L188.98 15.0467C187.76 15.4155 186.684 15.9487 185.767 16.6585L186.991 18.2399ZM189.569 16.958C190.576 16.6419 191.729 16.4766 193.039 16.4766V14.4766C191.563 14.4766 190.203 14.6628 188.97 15.0498L189.569 16.958ZM193.039 16.4766C194.58 16.4766 195.912 16.7371 197.055 17.2336L197.852 15.3992C196.417 14.7759 194.806 14.4766 193.039 14.4766V16.4766ZM197.066 17.2384C198.2 17.7148 199.073 18.4218 199.713 19.3605L201.365 18.2332C200.495 16.9584 199.31 16.0117 197.84 15.3944L197.066 17.2384ZM199.716 19.3651C200.33 20.2537 200.672 21.422 200.672 22.9375H202.672C202.672 21.1196 202.259 19.5275 201.362 18.2287L199.716 19.3651ZM200.672 22.9375V31.7852H202.672V22.9375H200.672ZM200.672 31.7852C200.672 33.087 200.744 34.1638 200.905 34.9857L202.868 34.6002C202.743 33.9638 202.672 33.0354 202.672 31.7852H200.672ZM200.91 35.0061C201.082 35.7946 201.331 36.5103 201.67 37.1408L203.432 36.1952C203.197 35.758 203.004 35.2237 202.864 34.5798L200.91 35.0061ZM201.551 36.668V37H203.551V36.668H201.551ZM202.551 36H196.398V38H202.551V36ZM197.304 36.5761C197.068 36.0721 196.875 35.4128 196.741 34.5769L194.766 34.8918C194.92 35.8528 195.156 36.7039 195.493 37.4239L197.304 36.5761ZM196.742 34.5791C196.607 33.7199 196.539 32.8473 196.539 31.9609H194.539C194.539 32.9496 194.615 33.926 194.766 34.8896L196.742 34.5791ZM195.301 24.121L195.34 27.4804L197.34 27.4571L197.301 24.0977L195.301 24.121ZM196.34 26.4688H193.312V28.4688H196.34V26.4688ZM193.312 26.4688C192.556 26.4688 191.856 26.5628 191.231 26.7765L191.878 28.6688C192.243 28.5439 192.715 28.4688 193.312 28.4688V26.4688ZM191.223 26.7792C190.629 26.9881 190.101 27.2937 189.676 27.7187L191.09 29.1329C191.264 28.9589 191.517 28.7958 191.886 28.6661L191.223 26.7792ZM189.692 27.7031C189.281 28.0956 188.975 28.5637 188.78 29.0972L190.658 29.7857C190.748 29.5378 190.885 29.3289 191.074 29.1484L189.692 27.7031ZM188.773 29.1154C188.602 29.6115 188.523 30.1401 188.523 30.6914H190.523C190.523 30.3312 190.575 30.0265 190.664 29.7674L188.773 29.1154ZM188.523 30.6914C188.523 31.2909 188.671 31.8591 188.976 32.3731L190.696 31.3535C190.584 31.1643 190.523 30.9513 190.523 30.6914H188.523ZM188.984 32.3874C189.289 32.8827 189.709 33.2703 190.223 33.5455L191.168 31.7826C190.952 31.6672 190.799 31.5209 190.688 31.3392L188.984 32.3874ZM190.223 33.5455C190.755 33.8306 191.346 33.957 191.965 33.957V31.957C191.621 31.957 191.365 31.8882 191.168 31.7826L190.223 33.5455ZM191.965 33.957C192.889 33.957 193.743 33.7748 194.483 33.3615L193.509 31.6151C193.129 31.8268 192.629 31.957 191.965 31.957V33.957ZM194.475 33.3662C195.155 32.9952 195.724 32.5228 196.141 31.9322L194.507 30.7788C194.299 31.0736 193.983 31.3563 193.517 31.6104L194.475 33.3662ZM196.149 31.921C196.53 31.3652 196.793 30.7463 196.793 30.0859H194.793C194.793 30.2069 194.743 30.4343 194.499 30.7899L196.149 31.921ZM194.927 30.5857L196.392 33.1247L198.124 32.1253L196.659 29.5862L194.927 30.5857ZM196.346 32.2146C196.13 32.6938 195.863 33.1984 195.543 33.7287L197.254 34.7635C197.611 34.174 197.917 33.5978 198.17 33.0354L196.346 32.2146ZM195.548 33.7197C195.262 34.1825 194.892 34.6282 194.43 35.055L195.788 36.5232C196.369 35.9864 196.858 35.4034 197.249 34.7724L195.548 33.7197ZM194.44 35.0458C194.018 35.4262 193.49 35.7521 192.841 36.0141L193.589 37.8688C194.424 37.5317 195.159 37.0894 195.778 36.5324L194.44 35.0458ZM192.835 36.0164C192.257 36.2538 191.514 36.3906 190.578 36.3906V38.3906C191.699 38.3906 192.714 38.228 193.595 37.8664L192.835 36.0164ZM190.578 36.3906C189.388 36.3906 188.337 36.1524 187.408 35.6933L186.522 37.4864C187.754 38.095 189.112 38.3906 190.578 38.3906V36.3906ZM187.416 35.6976C186.478 35.2226 185.743 34.5833 185.192 33.7787L183.542 34.9088C184.293 36.0053 185.291 36.8633 186.513 37.4821L187.416 35.6976ZM185.197 33.7864C184.679 33.0141 184.41 32.1177 184.41 31.0625H182.41C182.41 32.4812 182.779 33.7724 183.537 34.9011L185.197 33.7864ZM184.41 31.0625C184.41 30.0785 184.589 29.2445 184.921 28.5384L183.11 27.6881C182.635 28.7008 182.41 29.833 182.41 31.0625H184.41ZM184.921 28.5384C185.25 27.8375 185.745 27.2353 186.428 26.7289L185.236 25.1227C184.304 25.8142 183.589 26.6703 183.11 27.6881L184.921 28.5384ZM186.422 26.7334C187.113 26.2289 188.013 25.8261 189.153 25.55L188.683 23.6062C187.349 23.9291 186.192 24.4247 185.242 25.1182L186.422 26.7334ZM189.163 25.5477C190.3 25.2603 191.66 25.1094 193.254 25.1094V23.1094C191.541 23.1094 190.01 23.2709 188.673 23.6086L189.163 25.5477ZM193.254 25.1094H196.301V23.1094H193.254V25.1094ZM95.5391 74.4688V73.4688H94.5962L94.5408 74.41L95.5391 74.4688ZM101.867 74.4688L102.866 74.522L102.922 73.4688H101.867V74.4688ZM100.266 79.6445L99.4247 79.1034L99.4235 79.1053L100.266 79.6445ZM96.3008 83.1406L96.7425 84.0378L96.748 84.0351L96.3008 83.1406ZM81.5156 80.6992L80.7528 81.3459L80.7605 81.3548L81.5156 80.6992ZM79.1719 76.3828L78.2181 76.6836L78.221 76.6924L79.1719 76.3828ZM79.2109 63.1992L80.1603 63.5133L79.2109 63.1992ZM81.6133 58.8633L82.3679 59.5195L81.6133 58.8633ZM100.246 60.0547L99.3879 60.5681L99.3912 60.5735L100.246 60.0547ZM101.906 65.2695V66.2695H103.004L102.902 65.1766L101.906 65.2695ZM95.5586 65.2695L94.5597 65.3165L94.6045 66.2695H95.5586V65.2695ZM94.9336 62.4766L94.0301 62.9053L94.033 62.9113L94.9336 62.4766ZM87.8438 60.6602L87.4033 59.7623L87.3965 59.7657L87.8438 60.6602ZM86.1445 62.2422L85.3008 61.7053L85.2939 61.7164L86.1445 62.2422ZM85.1484 64.9766L86.1286 65.1749L86.129 65.1727L85.1484 64.9766ZM86.0469 77.2617L85.1893 77.7763L85.1963 77.7875L86.0469 77.2617ZM93.0977 78.8633L93.5197 79.77L93.5324 79.7638L93.0977 78.8633ZM95.5391 75.4688H101.867V73.4688H95.5391V75.4688ZM100.869 74.4155C100.773 76.2126 100.285 77.7663 99.4247 79.1034L101.107 80.1857C102.173 78.528 102.753 76.6312 102.866 74.522L100.869 74.4155ZM99.4235 79.1053C98.5774 80.4266 97.3973 81.4743 95.8536 82.2462L96.748 84.0351C98.5896 83.1142 100.053 81.8312 101.108 80.1838L99.4235 79.1053ZM95.8591 82.2435C94.3323 82.9951 92.4785 83.3906 90.2656 83.3906V85.3906C92.7142 85.3906 94.8838 84.9528 96.7425 84.0378L95.8591 82.2435ZM90.2656 83.3906C88.5187 83.3906 86.9907 83.0916 85.6635 82.5161L84.8678 84.3511C86.4833 85.0516 88.2886 85.3906 90.2656 85.3906V83.3906ZM85.6635 82.5161C84.3262 81.9362 83.1992 81.1131 82.2708 80.0437L80.7605 81.3548C81.8894 82.6551 83.2624 83.6549 84.8678 84.3511L85.6635 82.5161ZM82.2784 80.0525C81.3566 78.9653 80.6344 77.6448 80.1227 76.0732L78.221 76.6924C78.8031 78.4802 79.6434 80.0373 80.7529 81.3459L82.2784 80.0525ZM80.1256 76.082C79.6277 74.5035 79.3711 72.6999 79.3711 70.6602H77.3711C77.3711 72.8652 77.6483 74.8767 78.2182 76.6836L80.1256 76.082ZM79.3711 70.6602V68.9219H77.3711V70.6602H79.3711ZM79.3711 68.9219C79.3711 66.8865 79.6396 65.0875 80.1603 63.5133L78.2615 62.8852C77.6624 64.6964 77.3711 66.7125 77.3711 68.9219H79.3711ZM80.1603 63.5133C80.6837 61.9309 81.4233 60.6058 82.3679 59.5195L80.8587 58.2071C79.72 59.5166 78.8579 61.0821 78.2615 62.8852L80.1603 63.5133ZM82.3679 59.5195C83.3121 58.4337 84.4411 57.6043 85.7641 57.0255L84.9625 55.1932C83.3688 55.8905 81.9978 56.8971 80.8587 58.2071L82.3679 59.5195ZM85.7641 57.0255C87.0807 56.4495 88.5694 56.1523 90.2461 56.1523V54.1523C88.329 54.1523 86.5625 54.4932 84.9625 55.1932L85.7641 57.0255ZM90.2461 56.1523C92.5515 56.1523 94.4268 56.5678 95.9152 57.3469L96.8427 55.575C94.9977 54.6092 92.7844 54.1523 90.2461 54.1523V56.1523ZM95.9152 57.3469C97.4287 58.1392 98.5768 59.2124 99.388 60.5681L101.104 59.5413C100.092 57.8501 98.6624 56.5275 96.8427 55.575L95.9152 57.3469ZM99.3912 60.5735C100.229 61.9548 100.741 63.5447 100.911 65.3625L102.902 65.1766C102.707 63.0881 102.112 61.2014 101.101 59.5359L99.3912 60.5735ZM101.906 64.2695H95.5586V66.2695H101.906V64.2695ZM96.5575 65.2225C96.501 64.0222 96.2728 62.9505 95.8341 62.0418L94.033 62.9113C94.3235 63.513 94.512 64.3033 94.5597 65.3165L96.5575 65.2225ZM95.837 62.0478C95.3787 61.082 94.6628 60.3412 93.7133 59.8501L92.7945 61.6265C93.3554 61.9166 93.7593 62.3346 94.0302 62.9053L95.837 62.0478ZM93.7133 59.8501C92.7651 59.3596 91.5865 59.1523 90.2461 59.1523V61.1523C91.4057 61.1523 92.2323 61.3357 92.7945 61.6265L93.7133 59.8501ZM90.2461 59.1523C89.2101 59.1523 88.2537 59.3452 87.4033 59.7624L88.2842 61.5579C88.814 61.298 89.4592 61.1523 90.2461 61.1523V59.1523ZM87.3965 59.7657C86.5383 60.1948 85.8418 60.8553 85.3009 61.7053L86.9882 62.7791C87.3587 62.1968 87.795 61.8025 88.291 61.5546L87.3965 59.7657ZM85.2939 61.7164C84.7713 62.5618 84.4051 63.5942 84.1679 64.7804L86.129 65.1727C86.3345 64.1453 86.6323 63.3549 86.9951 62.768L85.2939 61.7164ZM84.1683 64.7782C83.93 65.9555 83.8164 67.3275 83.8164 68.8828H85.8164C85.8164 67.4173 85.9241 66.1851 86.1286 65.1749L84.1683 64.7782ZM83.8164 68.8828V70.6602H85.8164V68.8828H83.8164ZM83.8164 70.6602C83.8164 72.1976 83.9164 73.5549 84.1249 74.7227L86.0938 74.3711C85.9117 73.3514 85.8164 72.1175 85.8164 70.6602H83.8164ZM84.1249 74.7227C84.335 75.8989 84.6803 76.9277 85.1894 77.7762L86.9044 76.7472C86.5541 76.1635 86.2744 75.3824 86.0938 74.3711L84.1249 74.7227ZM85.1963 77.7875C85.7266 78.6454 86.4248 79.3124 87.2922 79.7543L88.2 77.9722C87.6872 77.711 87.2526 77.3103 86.8975 76.7359L85.1963 77.7875ZM87.2922 79.7543C88.1564 80.1946 89.1608 80.3906 90.2656 80.3906V78.3906C89.3913 78.3906 88.716 78.2351 88.2 77.9722L87.2922 79.7543ZM90.2656 80.3906C91.4947 80.3906 92.5937 80.2009 93.5197 79.7699L92.6756 77.9567C92.0912 78.2288 91.3022 78.3906 90.2656 78.3906V80.3906ZM93.5324 79.7638C94.4726 79.3099 95.2064 78.6183 95.7108 77.707L93.961 76.7383C93.6582 77.2854 93.2331 77.6874 92.6629 77.9627L93.5324 79.7638ZM95.7108 77.707C96.2067 76.8112 96.4662 75.7365 96.5373 74.5275L94.5408 74.41C94.4817 75.4145 94.2725 76.1758 93.961 76.7383L95.7108 77.707ZM104.875 68.9609L105.822 69.2828L105.823 69.28L104.875 68.9609ZM109.992 63.2969L110.385 64.2166L110.393 64.213L109.992 63.2969ZM118.625 63.2969L118.224 64.2131L118.236 64.218L118.625 63.2969ZM123.762 68.9609L122.814 69.28L122.815 69.2828L123.762 68.9609ZM123.762 77.9258L124.708 78.2477L124.709 78.2448L123.762 77.9258ZM121.809 81.3438L122.555 82.0094L122.559 82.0044L121.809 81.3438ZM106.828 81.3438L106.077 82.0044L106.082 82.0094L106.828 81.3438ZM104.875 77.9258L103.927 78.2448L103.928 78.2477L104.875 77.9258ZM110.52 75.9922L109.535 76.168L109.537 76.1765L109.538 76.1849L110.52 75.9922ZM112.434 79.1953L111.909 80.047L111.922 80.0548L111.935 80.0622L112.434 79.1953ZM116.203 79.1953L116.711 80.0567L116.719 80.0519L116.727 80.047L116.203 79.1953ZM118.098 75.9922L117.116 75.7994L117.115 75.8079L117.113 75.8164L118.098 75.9922ZM118.098 70.9336L117.113 71.1094L117.115 71.1196L117.117 71.1297L118.098 70.9336ZM116.184 67.6914L115.659 68.5431L115.669 68.5489L116.184 67.6914ZM110.52 70.9336L109.538 70.7408L109.536 70.7547L110.52 70.9336ZM105.211 73.6484V73.2383H103.211V73.6484H105.211ZM105.211 73.2383C105.211 71.7846 105.418 70.469 105.822 69.2828L103.928 68.639C103.446 70.057 103.211 71.593 103.211 73.2383H105.211ZM105.823 69.28C106.226 68.0831 106.811 67.064 107.574 66.2086L106.082 64.8774C105.126 65.949 104.41 67.2085 103.927 68.6419L105.823 69.28ZM107.574 66.2086C108.331 65.3604 109.263 64.6958 110.385 64.2165L109.599 62.3772C108.222 62.9657 107.044 63.7984 106.082 64.8774L107.574 66.2086ZM110.393 64.213C111.496 63.7306 112.788 63.4766 114.289 63.4766V61.4766C112.561 61.4766 110.989 61.7694 109.591 62.3807L110.393 64.213ZM114.289 63.4766C115.819 63.4766 117.123 63.7315 118.224 64.213L119.026 62.3807C117.627 61.7685 116.04 61.4766 114.289 61.4766V63.4766ZM118.236 64.218C119.371 64.6978 120.308 65.3624 121.062 66.2086L122.555 64.8774C121.591 63.7965 120.405 62.9636 119.014 62.3758L118.236 64.218ZM121.062 66.2086C121.825 67.064 122.411 68.0831 122.814 69.28L124.709 68.6419C124.227 67.2085 123.511 65.949 122.555 64.8774L121.062 66.2086ZM122.815 69.2828C123.218 70.469 123.426 71.7846 123.426 73.2383H125.426C125.426 71.593 125.191 70.057 124.708 68.639L122.815 69.2828ZM123.426 73.2383V73.6484H125.426V73.2383H123.426ZM123.426 73.6484C123.426 75.088 123.219 76.4048 122.814 77.6067L124.709 78.2448C125.19 76.8165 125.426 75.2818 125.426 73.6484H123.426ZM122.815 77.6039C122.412 78.7885 121.825 79.811 121.058 80.6831L122.559 82.0044C123.511 80.9233 124.226 79.6672 124.708 78.2477L122.815 77.6039ZM121.062 80.6781C120.306 81.5263 119.374 82.1909 118.252 82.6702L119.037 84.5095C120.415 83.9211 121.593 83.0883 122.555 82.0094L121.062 80.6781ZM118.252 82.6702C117.148 83.1416 115.847 83.3906 114.328 83.3906V85.3906C116.065 85.3906 117.641 85.1057 119.037 84.5095L118.252 82.6702ZM114.328 83.3906C112.824 83.3906 111.521 83.1421 110.401 82.6687L109.622 84.5109C111.028 85.1053 112.603 85.3906 114.328 85.3906V83.3906ZM110.401 82.6687C109.266 82.1889 108.329 81.5243 107.574 80.6781L106.082 82.0094C107.046 83.0903 108.232 83.9231 109.622 84.5109L110.401 82.6687ZM107.579 80.6831C106.811 79.811 106.225 78.7885 105.822 77.6039L103.928 78.2477C104.411 79.6672 105.126 80.9233 106.077 82.0044L107.579 80.6831ZM105.823 77.6067C105.418 76.4048 105.211 75.088 105.211 73.6484H103.211C103.211 75.2818 103.446 76.8165 103.927 78.2448L105.823 77.6067ZM109.324 73.2383V73.6484H111.324V73.2383H109.324ZM109.324 73.6484C109.324 74.5335 109.393 75.3741 109.535 76.168L111.504 75.8164C111.385 75.1519 111.324 74.43 111.324 73.6484H109.324ZM109.538 76.1849C109.699 77.002 109.96 77.746 110.335 78.4024L112.071 77.4101C111.821 76.9728 111.627 76.4407 111.501 75.7994L109.538 76.1849ZM110.335 78.4024C110.726 79.0863 111.251 79.6417 111.909 80.047L112.958 78.3437C112.601 78.1239 112.306 77.82 112.071 77.4101L110.335 78.4024ZM111.935 80.0622C112.639 80.4672 113.452 80.6445 114.328 80.6445V78.6445C113.72 78.6445 113.269 78.5224 112.932 78.3284L111.935 80.0622ZM114.328 80.6445C115.203 80.6445 116.014 80.4676 116.711 80.0567L115.695 78.3339C115.376 78.522 114.937 78.6445 114.328 78.6445V80.6445ZM116.727 80.047C117.386 79.6417 117.911 79.0863 118.302 78.4024L116.565 77.4101C116.331 77.82 116.036 78.1239 115.679 78.3437L116.727 80.047ZM118.302 78.4024C118.68 77.7404 118.935 76.9904 119.082 76.168L117.113 75.8164C117 76.4523 116.812 76.9783 116.565 77.4101L118.302 78.4024ZM119.079 76.1849C119.236 75.3852 119.312 74.5388 119.312 73.6484H117.312C117.312 74.4247 117.246 75.1409 117.116 75.7994L119.079 76.1849ZM119.312 73.6484V73.2383H117.312V73.6484H119.312ZM119.312 73.2383C119.312 72.36 119.236 71.5255 119.078 70.7375L117.117 71.1297C117.246 71.774 117.312 72.4759 117.312 73.2383H119.312ZM119.082 70.7578C118.935 69.936 118.681 69.1832 118.307 68.5126L116.56 69.4874C116.811 69.9366 117 70.4729 117.113 71.1094L119.082 70.7578ZM118.307 68.5126C117.914 67.809 117.377 67.2414 116.698 66.8339L115.669 68.5489C116.032 68.7664 116.328 69.0712 116.56 69.4874L118.307 68.5126ZM116.708 66.8397C116.005 66.4075 115.181 66.2227 114.289 66.2227V68.2227C114.908 68.2227 115.346 68.3503 115.659 68.5431L116.708 66.8397ZM114.289 66.2227C113.416 66.2227 112.607 66.4107 111.909 66.8397L112.958 68.5431C113.276 68.3471 113.704 68.2227 114.289 68.2227V66.2227ZM111.909 66.8397C111.245 67.2486 110.719 67.8151 110.33 68.5126L112.076 69.4874C112.312 69.0651 112.606 68.7593 112.958 68.5431L111.909 66.8397ZM110.33 68.5126C109.959 69.1777 109.699 69.9245 109.538 70.7408L111.501 71.1263C111.627 70.4844 111.823 69.9421 112.076 69.4874L110.33 68.5126ZM109.536 70.7547C109.393 71.5368 109.324 72.3654 109.324 73.2383H111.324C111.324 72.4705 111.385 71.7627 111.503 71.1125L109.536 70.7547ZM134.055 54H135.055V53H134.055V54ZM134.055 84V85H135.055V84H134.055ZM127.941 84H126.941V85H127.941V84ZM127.941 54V53H126.941V54H127.941ZM133.055 54V84H135.055V54H133.055ZM134.055 83H127.941V85H134.055V83ZM128.941 84V54H126.941V84H128.941ZM127.941 55H134.055V53H127.941V55ZM140.52 81.3828L139.798 82.075L139.807 82.085L140.52 81.3828ZM140.305 65.582L139.55 64.9263L139.549 64.9271L140.305 65.582ZM143.469 63.2969L143.862 64.2166L143.87 64.213L143.469 63.2969ZM151.75 63.2188L151.361 64.14L151.37 64.1436L151.75 63.2188ZM154.719 65.3086L153.97 65.9716L153.975 65.977L154.719 65.3086ZM156.555 68.5703L155.604 68.8807L155.608 68.8924L156.555 68.5703ZM157.199 75.3281V76.3281H158.199V75.3281H157.199ZM140.168 75.3281H139.168V76.3281H140.168V75.3281ZM140.168 71.4023V70.4023H139.168V71.4023H140.168ZM151.223 71.4023V72.4023H152.223V71.4023H151.223ZM150.812 68.9805L149.906 69.4022L149.91 69.4108L149.914 69.4193L150.812 68.9805ZM149.641 67.6914L149.117 68.5431L149.129 68.5509L149.142 68.5583L149.641 67.6914ZM144.66 69.0195L143.774 68.5563L143.77 68.5641L144.66 69.0195ZM144.035 70.9922L145.02 71.165L145.021 71.1621L144.035 70.9922ZM146.711 79.2539L146.303 80.1669L146.711 79.2539ZM151.555 79.1172L151.94 80.0399L151.952 80.0349L151.555 79.1172ZM153.82 77.3594L154.573 76.7012L153.788 75.8029L153.041 76.7331L153.82 77.3594ZM156.672 80.6211L157.496 81.1876L157.936 80.5476L157.425 79.9629L156.672 80.6211ZM154.855 82.4375L155.453 83.2391L155.455 83.2375L154.855 82.4375ZM148.41 83.3906C146.836 83.3906 145.462 83.1407 144.271 82.662L143.525 84.5177C144.991 85.1067 146.624 85.3906 148.41 85.3906V83.3906ZM144.271 82.662C143.059 82.1748 142.052 81.5122 141.232 80.6807L139.807 82.085C140.836 83.1284 142.081 83.9372 143.525 84.5177L144.271 82.662ZM141.241 80.6907C140.422 79.8358 139.796 78.8542 139.362 77.7386L137.498 78.4645C138.027 79.8229 138.795 81.0288 139.798 82.0749L141.241 80.6907ZM139.362 77.7386C138.927 76.6241 138.707 75.4263 138.707 74.1367H136.707C136.707 75.6597 136.968 77.1051 137.498 78.4645L139.362 77.7386ZM138.707 74.1367V73.3945H136.707V74.1367H138.707ZM138.707 73.3945C138.707 71.9132 138.915 70.5695 139.32 69.3553L137.422 68.7228C136.942 70.1648 136.707 71.7248 136.707 73.3945H138.707ZM139.32 69.3553C139.724 68.1412 140.307 67.1064 141.06 66.237L139.549 64.9271C138.61 66.0108 137.903 67.2807 137.422 68.7228L139.32 69.3553ZM141.06 66.2377C141.816 65.3667 142.745 64.6932 143.862 64.2165L143.076 62.3772C141.692 62.9683 140.512 63.8182 139.55 64.9263L141.06 66.2377ZM143.87 64.213C144.973 63.7302 146.259 63.4766 147.746 63.4766V61.4766C146.03 61.4766 144.464 61.7698 143.068 62.3807L143.87 64.213ZM147.746 63.4766C149.133 63.4766 150.332 63.7055 151.361 64.14L152.139 62.2975C150.824 61.7424 149.354 61.4766 147.746 61.4766V63.4766ZM151.37 64.1436C152.406 64.5698 153.268 65.1791 153.97 65.9716L155.467 64.6456C154.555 63.6152 153.437 62.8312 152.13 62.2939L151.37 64.1436ZM153.975 65.977C154.679 66.7608 155.226 67.7223 155.604 68.8807L157.505 68.2599C157.05 66.8663 156.373 65.6533 155.463 64.6402L153.975 65.977ZM155.608 68.8924C155.997 70.0349 156.199 71.3428 156.199 72.8281H158.199C158.199 71.1624 157.972 69.6318 157.501 68.2482L155.608 68.8924ZM156.199 72.8281V75.3281H158.199V72.8281H156.199ZM157.199 74.3281H140.168V76.3281H157.199V74.3281ZM141.168 75.3281V71.4023H139.168V75.3281H141.168ZM140.168 72.4023H151.223V70.4023H140.168V72.4023ZM152.223 71.4023V70.9336H150.223V71.4023H152.223ZM152.223 70.9336C152.223 70.0681 152.063 69.2619 151.711 68.5416L149.914 69.4193C150.109 69.8188 150.223 70.3147 150.223 70.9336H152.223ZM151.719 68.5587C151.374 67.8175 150.844 67.2297 150.139 66.8245L149.142 68.5583C149.479 68.752 149.73 69.0237 149.906 69.4022L151.719 68.5587ZM150.165 66.8397C149.457 66.4045 148.617 66.2227 147.707 66.2227V68.2227C148.359 68.2227 148.808 68.3533 149.117 68.5431L150.165 66.8397ZM147.707 66.2227C146.826 66.2227 146.01 66.4086 145.318 66.8459L146.386 68.5369C146.683 68.3492 147.104 68.2227 147.707 68.2227V66.2227ZM145.318 66.8459C144.658 67.2622 144.146 67.8439 143.774 68.5563L145.546 69.4828C145.773 69.0493 146.055 68.7456 146.386 68.5369L145.318 66.8459ZM143.77 68.5641C143.429 69.2309 143.193 69.9885 143.05 70.8223L145.021 71.1621C145.137 70.4854 145.319 69.9279 145.55 69.475L143.77 68.5641ZM143.05 70.8194C142.909 71.6259 142.84 72.4851 142.84 73.3945H144.84C144.84 72.5852 144.901 71.8428 145.02 71.165L143.05 70.8194ZM142.84 73.3945V74.1367H144.84V73.3945H142.84ZM142.84 74.1367C142.84 75.0469 142.963 75.9023 143.221 76.6936L145.122 76.0721C144.938 75.5092 144.84 74.8672 144.84 74.1367H142.84ZM143.221 76.6936C143.481 77.4881 143.872 78.1918 144.402 78.7867L145.895 77.4555C145.566 77.0869 145.305 76.6317 145.122 76.0721L143.221 76.6936ZM144.402 78.7867C144.929 79.378 145.567 79.8381 146.303 80.1669L147.119 78.3409C146.631 78.1228 146.227 77.8277 145.895 77.4555L144.402 78.7867ZM146.303 80.1669C147.063 80.5064 147.902 80.6641 148.801 80.6641V78.6641C148.137 78.6641 147.583 78.5483 147.119 78.3409L146.303 80.1669ZM148.801 80.6641C149.894 80.6641 150.943 80.4565 151.94 80.0399L151.169 78.1945C150.421 78.5071 149.635 78.6641 148.801 78.6641V80.6641ZM151.952 80.0349C152.984 79.5881 153.868 78.8974 154.6 77.9856L153.041 76.7331C152.497 77.4099 151.87 77.8911 151.157 78.1995L151.952 80.0349ZM153.067 78.0176L155.919 81.2793L157.425 79.9629L154.573 76.7012L153.067 78.0176ZM155.848 80.0546C155.494 80.5686 154.974 81.099 154.255 81.6375L155.455 83.2375C156.3 82.6042 156.99 81.9236 157.496 81.1876L155.848 80.0546ZM154.258 81.6359C153.588 82.1351 152.762 82.5591 151.762 82.8962L152.402 84.7913C153.564 84.3992 154.586 83.8857 155.453 83.2391L154.258 81.6359ZM151.762 82.8962C150.803 83.2199 149.69 83.3906 148.41 83.3906V85.3906C149.865 85.3906 151.2 85.1967 152.402 84.7913L151.762 82.8962ZM170.91 62.8672H171.91V61.8672H170.91V62.8672ZM170.91 67.1445V68.1445H171.91V67.1445H170.91ZM158.371 67.1445H157.371V68.1445H158.371V67.1445ZM158.371 62.8672V61.8672H157.371V62.8672H158.371ZM161.242 57.6328V56.6328H160.242V57.6328H161.242ZM167.355 57.6328H168.355V56.6328H167.355V57.6328ZM168.273 79.3906L167.902 80.3191L167.918 80.3256L167.935 80.3315L168.273 79.3906ZM171.184 79.4297H172.184V78.2378L171.01 78.4449L171.184 79.4297ZM171.184 83.8438L171.493 84.7948L172.184 84.5702V83.8438H171.184ZM169.523 84.2344L169.37 83.2463L169.359 83.2479L169.348 83.2498L169.523 84.2344ZM164.191 83.7461L163.779 84.6573L163.784 84.6594L164.191 83.7461ZM162.004 81.7148L161.125 82.1911L161.127 82.1963L162.004 81.7148ZM169.91 62.8672V67.1445H171.91V62.8672H169.91ZM170.91 66.1445H158.371V68.1445H170.91V66.1445ZM159.371 67.1445V62.8672H157.371V67.1445H159.371ZM158.371 63.8672H170.91V61.8672H158.371V63.8672ZM161.242 58.6328H167.355V56.6328H161.242V58.6328ZM166.355 57.6328V77.3789H168.355V57.6328H166.355ZM166.355 77.3789C166.355 78.0211 166.43 78.6387 166.661 79.1432L168.479 78.3099C168.424 78.1894 168.355 77.9086 168.355 77.3789H166.355ZM166.661 79.1432C166.914 79.6941 167.344 80.0957 167.902 80.3191L168.645 78.4621C168.552 78.4251 168.513 78.384 168.479 78.3099L166.661 79.1432ZM167.935 80.3315C168.407 80.5015 168.949 80.5664 169.523 80.5664V78.5664C169.082 78.5664 168.791 78.5141 168.612 78.4497L167.935 80.3315ZM169.523 80.5664C169.909 80.5664 170.257 80.5527 170.56 80.5224L170.361 78.5323C170.144 78.554 169.867 78.5664 169.523 78.5664V80.5664ZM170.56 80.5224C170.842 80.4942 171.108 80.4585 171.357 80.4145L171.01 78.4449C170.817 78.479 170.601 78.5084 170.361 78.5323L170.56 80.5224ZM170.184 79.4297V83.8438H172.184V79.4297H170.184ZM170.875 82.8927C170.408 83.0442 169.907 83.1626 169.37 83.2463L169.677 85.2225C170.311 85.1238 170.917 84.9818 171.493 84.7948L170.875 82.8927ZM169.348 83.2498C168.829 83.3422 168.25 83.3906 167.609 83.3906V85.3906C168.349 85.3906 169.046 85.3348 169.698 85.2189L169.348 83.2498ZM167.609 83.3906C166.401 83.3906 165.407 83.1931 164.599 82.8328L163.784 84.6594C164.903 85.1585 166.188 85.3906 167.609 85.3906V83.3906ZM164.603 82.8349C163.852 82.4954 163.285 81.9704 162.88 81.2334L161.127 82.1963C161.738 83.3083 162.629 84.1374 163.779 84.6573L164.603 82.8349ZM162.883 81.2386C162.48 80.4945 162.242 79.4571 162.242 78.0625H160.242C160.242 79.6627 160.512 81.0602 161.125 82.1911L162.883 81.2386ZM162.242 78.0625V57.6328H160.242V78.0625H162.242ZM180.266 62.8672H181.266V61.8672H180.266V62.8672ZM180.266 84V85H181.266V84H180.266ZM174.152 84H173.152V85H174.152V84ZM174.152 62.8672V61.8672H173.152V62.8672H174.152ZM174.719 55.2305L175.386 55.9754L175.394 55.9676L174.719 55.2305ZM179.641 55.2305L178.965 55.9676L178.973 55.9749L178.981 55.9821L179.641 55.2305ZM179.641 59.5664L180.308 60.3112L180.309 60.3105L179.641 59.5664ZM174.719 59.5664L174.043 60.3036L174.052 60.3112L174.719 59.5664ZM179.266 62.8672V84H181.266V62.8672H179.266ZM180.266 83H174.152V85H180.266V83ZM175.152 84V62.8672H173.152V84H175.152ZM174.152 63.8672H180.266V61.8672H174.152V63.8672ZM174.781 57.3984C174.781 56.7796 174.986 56.334 175.386 55.9753L174.052 54.4856C173.202 55.2468 172.781 56.2465 172.781 57.3984H174.781ZM175.394 55.9676C175.8 55.5961 176.362 55.3711 177.18 55.3711V53.3711C175.966 53.3711 174.888 53.719 174.043 54.4933L175.394 55.9676ZM177.18 55.3711C177.997 55.3711 178.56 55.5961 178.965 55.9676L180.316 54.4933C179.472 53.719 178.393 53.3711 177.18 53.3711V55.3711ZM178.981 55.9821C179.392 56.343 179.598 56.7868 179.598 57.3984H181.598C181.598 56.2393 181.165 55.2377 180.3 54.4788L178.981 55.9821ZM179.598 57.3984C179.598 57.9926 179.395 58.4428 178.972 58.8224L180.309 60.3105C181.162 59.5441 181.598 58.5491 181.598 57.3984H179.598ZM178.973 58.8216C178.569 59.1842 178.003 59.4062 177.18 59.4062V61.4062C178.387 61.4062 179.463 61.0684 180.308 60.3112L178.973 58.8216ZM177.18 59.4062C176.356 59.4062 175.791 59.1842 175.386 58.8216L174.052 60.3112C174.897 61.0684 175.972 61.4062 177.18 61.4062V59.4062ZM175.394 58.8293C174.983 58.4519 174.781 57.9997 174.781 57.3984H172.781C172.781 58.5419 173.205 59.5351 174.043 60.3036L175.394 58.8293ZM192.062 79.6836L191.095 79.4297L191.064 79.5501L191.063 79.6745L192.062 79.6836ZM196.477 62.8672V61.8672H195.705L195.509 62.6133L196.477 62.8672ZM202.883 62.8672L203.832 63.1821L204.268 61.8672H202.883V62.8672ZM195.871 84V85H196.593L196.82 84.3149L195.871 84ZM192.023 84L191.023 83.991L191.014 85H192.023V84ZM189.211 62.8672L190.179 62.6146L189.983 61.8672H189.211V62.8672ZM193.605 79.7031L194.605 79.694L194.604 79.5703L194.573 79.4506L193.605 79.7031ZM193.645 84V85H194.654L194.644 83.9909L193.645 84ZM189.797 84L188.848 84.3149L189.075 85H189.797V84ZM182.785 62.8672V61.8672H181.4L181.836 63.1821L182.785 62.8672ZM193.03 79.9375L197.444 63.1211L195.509 62.6133L191.095 79.4297L193.03 79.9375ZM196.477 63.8672H202.883V61.8672H196.477V63.8672ZM201.934 62.5523L194.922 83.6851L196.82 84.3149L203.832 63.1821L201.934 62.5523ZM195.871 83H192.023V85H195.871V83ZM193.023 84.009L193.062 79.6926L191.063 79.6745L191.023 83.991L193.023 84.009ZM188.243 63.1197L192.638 79.9557L194.573 79.4506L190.179 62.6146L188.243 63.1197ZM192.606 79.7122L192.645 84.0091L194.644 83.9909L194.605 79.694L192.606 79.7122ZM193.645 83H189.797V85H193.645V83ZM190.746 83.6851L183.734 62.5523L181.836 63.1821L188.848 84.3149L190.746 83.6851ZM182.785 63.8672H189.211V61.8672H182.785V63.8672ZM211.711 67.0859L211.286 66.1804L211.275 66.1858L211.711 67.0859ZM210.773 67.9258L209.919 67.4068L209.912 67.4181L209.905 67.4296L210.773 67.9258ZM210.461 69.2734V70.2734H211.461V69.2734H210.461ZM204.367 69.2734H203.367V70.2734H204.367V69.2734ZM206.848 64.4492L206.235 63.6585L206.229 63.6633L206.848 64.4492ZM209.738 63.0039L210.028 63.9612L210.038 63.958L209.738 63.0039ZM217.922 63.3164L217.523 64.2337L217.535 64.2384L217.922 63.3164ZM221.008 65.7969L220.182 66.3605L220.185 66.3651L221.008 65.7969ZM222.355 81.793L221.374 81.9857L221.376 81.9959L221.378 82.0061L222.355 81.793ZM223.02 83.668H224.02V83.4166L223.901 83.1952L223.02 83.668ZM223.02 84V85H224.02V84H223.02ZM216.867 84L215.961 84.4239L216.231 85H216.867V84ZM216.223 81.7344L215.235 81.8896L215.235 81.8918L216.223 81.7344ZM216.77 71.1094L217.769 71.0977L217.758 70.1094H216.77V71.1094ZM216.809 74.4688V75.4688H217.82L217.809 74.4571L216.809 74.4688ZM212.023 74.7227L211.7 73.7765L211.692 73.7792L212.023 74.7227ZM210.852 75.4258L211.543 76.1484L211.551 76.1407L211.559 76.1329L210.852 75.4258ZM210.188 76.4414L209.249 76.0972L209.245 76.1063L209.242 76.1154L210.188 76.4414ZM210.305 78.8633L209.444 79.3731L209.449 79.3803L209.453 79.3874L210.305 78.8633ZM214.465 79.4883L213.986 78.6103L213.977 78.6151L214.465 79.4883ZM215.793 78.3555L216.61 78.9322L216.618 78.921L215.793 78.3555ZM216.262 77.0859L217.128 76.5862L215.262 73.3515V77.0859H216.262ZM217.727 79.625L218.638 80.0354L218.849 79.5686L218.593 79.1253L217.727 79.625ZM216.867 81.2461L217.717 81.7725L217.723 81.7635L216.867 81.2461ZM215.578 82.7891L216.247 83.5324L216.257 83.5232L215.578 82.7891ZM213.684 83.9414L213.309 83.014L213.304 83.0164L213.684 83.9414ZM207.434 83.5898L206.982 84.4822L206.991 84.4864L207.434 83.5898ZM204.836 81.3438L204.006 81.9011L204.011 81.9088L204.836 81.3438ZM206.301 72.9258L205.711 72.1181L205.705 72.1227L206.301 72.9258ZM209.387 71.5781L209.622 72.5501L209.632 72.5477L209.387 71.5781ZM217.008 78.9609V69.8984H215.008V78.9609H217.008ZM217.008 69.8984C217.008 69.1622 216.896 68.4743 216.634 67.8639L214.796 68.6517C214.925 68.9528 215.008 69.3586 215.008 69.8984H217.008ZM216.634 67.8639C216.359 67.2225 215.918 66.7052 215.327 66.3356L214.267 68.0316C214.509 68.1828 214.68 68.3817 214.796 68.6517L216.634 67.8639ZM215.327 66.3356C214.705 65.9467 213.963 65.793 213.176 65.793V67.793C213.716 67.793 214.056 67.8996 214.267 68.0316L215.327 66.3356ZM213.176 65.793C212.5 65.793 211.862 65.9109 211.287 66.1805L212.135 67.9914C212.394 67.8704 212.731 67.793 213.176 67.793V65.793ZM211.275 66.1858C210.708 66.4605 210.245 66.8687 209.919 67.4068L211.628 68.4448C211.744 68.2537 211.907 68.102 212.146 67.9861L211.275 66.1858ZM209.905 67.4296C209.59 67.981 209.461 68.6119 209.461 69.2734H211.461C211.461 68.8673 211.54 68.5997 211.642 68.4219L209.905 67.4296ZM210.461 68.2734H204.367V70.2734H210.461V68.2734ZM205.367 69.2734C205.367 68.4801 205.545 67.7545 205.898 67.0812L204.126 66.1532C203.619 67.1205 203.367 68.1657 203.367 69.2734H205.367ZM205.898 67.0812C206.256 66.3969 206.772 65.7809 207.466 65.2351L206.229 63.6633C205.334 64.3675 204.627 65.1969 204.126 66.1532L205.898 67.0812ZM207.46 65.2399C208.158 64.6997 209.008 64.2694 210.028 63.9611L209.449 62.0467C208.229 62.4155 207.152 62.9487 206.235 63.6585L207.46 65.2399ZM210.038 63.958C211.045 63.6419 212.198 63.4766 213.508 63.4766V61.4766C212.031 61.4766 210.672 61.6628 209.439 62.0498L210.038 63.958ZM213.508 63.4766C215.048 63.4766 216.38 63.7371 217.523 64.2336L218.32 62.3992C216.885 61.7759 215.275 61.4766 213.508 61.4766V63.4766ZM217.535 64.2384C218.669 64.7148 219.541 65.4218 220.182 66.3605L221.834 65.2332C220.964 63.9584 219.779 63.0117 218.309 62.3944L217.535 64.2384ZM220.185 66.3651C220.799 67.2537 221.141 68.422 221.141 69.9375H223.141C223.141 68.1196 222.728 66.5275 221.831 65.2287L220.185 66.3651ZM221.141 69.9375V78.7852H223.141V69.9375H221.141ZM221.141 78.7852C221.141 80.087 221.213 81.1638 221.374 81.9857L223.337 81.6002C223.212 80.9638 223.141 80.0354 223.141 78.7852H221.141ZM221.378 82.0061C221.55 82.7946 221.8 83.5103 222.138 84.1408L223.901 83.1952C223.666 82.758 223.473 82.2237 223.332 81.5798L221.378 82.0061ZM222.02 83.668V84H224.02V83.668H222.02ZM223.02 83H216.867V85H223.02V83ZM217.773 83.5761C217.537 83.0721 217.343 82.4128 217.21 81.5769L215.235 81.8918C215.388 82.8528 215.624 83.7039 215.961 84.4239L217.773 83.5761ZM217.211 81.5791C217.076 80.7199 217.008 79.8473 217.008 78.9609H215.008C215.008 79.9496 215.083 80.926 215.235 81.8896L217.211 81.5791ZM215.77 71.121L215.809 74.4804L217.809 74.4571L217.769 71.0977L215.77 71.121ZM216.809 73.4688H213.781V75.4688H216.809V73.4688ZM213.781 73.4688C213.025 73.4688 212.324 73.5628 211.7 73.7765L212.347 75.6688C212.712 75.5439 213.184 75.4688 213.781 75.4688V73.4688ZM211.692 73.7792C211.097 73.9881 210.569 74.2937 210.144 74.7187L211.559 76.1329C211.733 75.9589 211.986 75.7958 212.355 75.6661L211.692 73.7792ZM210.16 74.7031C209.75 75.0956 209.444 75.5637 209.249 76.0972L211.126 76.7857C211.217 76.5378 211.354 76.3289 211.543 76.1484L210.16 74.7031ZM209.242 76.1154C209.071 76.6115 208.992 77.1401 208.992 77.6914H210.992C210.992 77.3312 211.044 77.0265 211.133 76.7674L209.242 76.1154ZM208.992 77.6914C208.992 78.2909 209.14 78.8591 209.444 79.3731L211.165 78.3535C211.053 78.1643 210.992 77.9513 210.992 77.6914H208.992ZM209.453 79.3874C209.758 79.8827 210.178 80.2703 210.692 80.5455L211.636 78.7826C211.421 78.6672 211.268 78.5209 211.156 78.3392L209.453 79.3874ZM210.692 80.5455C211.224 80.8306 211.814 80.957 212.434 80.957V78.957C212.089 78.957 211.833 78.8882 211.636 78.7826L210.692 80.5455ZM212.434 80.957C213.358 80.957 214.212 80.7748 214.952 80.3615L213.977 78.6151C213.598 78.8268 213.097 78.957 212.434 78.957V80.957ZM214.944 80.3662C215.624 79.9952 216.193 79.5228 216.61 78.9322L214.976 77.7788C214.768 78.0736 214.452 78.3563 213.986 78.6104L214.944 80.3662ZM216.618 78.921C216.999 78.3652 217.262 77.7463 217.262 77.0859H215.262C215.262 77.2069 215.212 77.4343 214.968 77.7899L216.618 78.921ZM215.396 77.5857L216.86 80.1247L218.593 79.1253L217.128 76.5862L215.396 77.5857ZM216.815 79.2146C216.599 79.6938 216.332 80.1984 216.011 80.7287L217.723 81.7635C218.079 81.174 218.385 80.5978 218.638 80.0354L216.815 79.2146ZM216.017 80.7197C215.73 81.1825 215.36 81.6282 214.899 82.055L216.257 83.5232C216.837 82.9864 217.327 82.4034 217.717 81.7724L216.017 80.7197ZM214.909 82.0458C214.486 82.4262 213.959 82.7521 213.309 83.0141L214.058 84.8688C214.893 84.5317 215.628 84.0894 216.247 83.5324L214.909 82.0458ZM213.304 83.0164C212.726 83.2538 211.983 83.3906 211.047 83.3906V85.3906C212.168 85.3906 213.183 85.228 214.064 84.8664L213.304 83.0164ZM211.047 83.3906C209.857 83.3906 208.806 83.1524 207.876 82.6933L206.991 84.4864C208.223 85.095 209.581 85.3906 211.047 85.3906V83.3906ZM207.885 82.6976C206.946 82.2226 206.212 81.5833 205.661 80.7787L204.011 81.9088C204.762 83.0053 205.759 83.8633 206.982 84.4821L207.885 82.6976ZM205.666 80.7864C205.148 80.0141 204.879 79.1177 204.879 78.0625H202.879C202.879 79.4812 203.248 80.7724 204.006 81.9011L205.666 80.7864ZM204.879 78.0625C204.879 77.0785 205.058 76.2445 205.39 75.5384L203.579 74.6881C203.104 75.7008 202.879 76.833 202.879 78.0625H204.879ZM205.39 75.5384C205.719 74.8375 206.214 74.2353 206.897 73.7289L205.705 72.1227C204.773 72.8142 204.057 73.6703 203.579 74.6881L205.39 75.5384ZM206.89 73.7334C207.581 73.2289 208.482 72.8261 209.622 72.55L209.151 70.6062C207.818 70.9291 206.661 71.4247 205.711 72.1182L206.89 73.7334ZM209.632 72.5477C210.769 72.2603 212.129 72.1094 213.723 72.1094V70.1094C212.009 70.1094 210.478 70.2709 209.142 70.6086L209.632 72.5477ZM213.723 72.1094H216.77V70.1094H213.723V72.1094Z" fill="white" mask="url(#path-1-outside-1_83_18)"/>
<path d="M37.0838 23.5183L30.6902 34.6667L13.0526 23.4152L18.3315 13.9507C19.5829 12.226 21.3598 11.0181 23.3574 10.5343C25.355 10.0504 27.4487 10.3208 29.2792 11.2991C30.1434 11.7623 30.8472 12.5087 31.3463 13.39L37.0256 23.4208L37.0803 23.5146L37.0838 23.5183ZM54.7126 58.73L48.5712 47.4222L66.3129 36.3544L71.5936 45.817C72.4172 47.8111 72.5626 50.0478 72.0049 52.1435C71.4473 54.2391 70.2212 56.0632 68.537 57.3029C67.7415 57.8861 66.7856 58.1843 65.8208 58.2293L54.8184 58.7225L54.7126 58.7281V58.73Z" fill="#009957" stroke="#00C566" stroke-opacity="0.76" stroke-width="0.393593" stroke-miterlimit="10" stroke-linecap="round" stroke-linejoin="round"/>
<path d="M2.82251 56.3764L14.0718 78.3469L14.2305 78.66C15.0383 80.224 16.0348 80.1621 17.3982 80.1621H20.5307L30.9845 80.1246L30.6776 58.2591L24.3263 58.3135L6.85094 58.2573H6.82096C6.80685 58.2516 3.95308 58.2648 3.93897 58.2573L2.82251 56.3764ZM31.3919 13.4011L41.3184 30.9273L37.9602 33.2751L53.6647 34.6778L62.4835 19.6757L58.956 21.551L53.6647 12.1747L53.4936 11.869C52.6346 10.337 51.5164 10.3126 50.213 10.3126L24.8713 10.3013C24.8713 10.3013 29.4624 9.9694 31.3919 13.4011V13.4011Z" fill="#00C566" fill-opacity="0.76" stroke="#009957" stroke-width="0.393593" stroke-miterlimit="10" stroke-linecap="round" stroke-linejoin="round"/>
<path d="M25 51.3099L21.4666 49.4849L20.654 50.6894L16.467 57.8617L6.37924 57.8252H6.34391C6.32624 57.8252 6.30857 57.8252 6.30857 57.8069C2.52789 56.0732 -0.228129 51.4741 1.55621 47.4044L6.90924 38.3158L3.69389 35.925L20.3183 37.2026L25 51.3099V51.3099Z" fill="#009957" stroke="#00C566" stroke-opacity="0.76" stroke-width="0.39" stroke-miterlimit="10" stroke-linecap="round" stroke-linejoin="round"/>
<path d="M70.9263 54.6068L59.2943 77.1867C58.6681 78.4019 58.0773 80.0821 56.4017 80.1459H55.8902L45.7539 80.1328L45.6692 84.1177L37.5436 68.6806L45.9285 54.1267V58.2785L57.6399 58.2073L68.0637 58.466L70.9263 54.6068Z" fill="#00C566" fill-opacity="0.76" stroke="black" stroke-width="0.393593" stroke-miterlimit="10" stroke-linecap="round" stroke-linejoin="round"/>
<path d="M32.7987 30.4697L30.5677 34.3468L12.8753 23.1089L18.1724 13.656C19.4276 11.9338 21.2097 10.7277 23.2131 10.2445C25.2165 9.76123 27.3163 10.0311 29.1523 11.0077C30.0193 11.4703 30.7252 12.2157 31.2259 13.096L41.1832 30.6008L37.8145 32.9458L53.5678 34.3468L62.414 19.363L58.8756 21.236L53.5678 11.8711L53.3962 11.5658C52.5346 10.0356 51.4129 10.0112 50.1054 10.0112L37.558 10M1.78926 47.1953C-0.00475355 51.3702 1.32572 56.1107 5.10835 57.8994C5.10835 57.8994 6.43174 57.89 6.44767 57.8975H6.60867L24.1383 57.9537L30.5093 57.8975L30.8172 79.7382L20.3309 79.7757H17.1887C15.8229 79.7757 14.8215 79.8375 14.0129 78.2754L13.8537 77.9627L7.37475 65.2564M1.78926 47.1953L7.14298 37.8605L3.92827 35.4181L20.575 36.7217L25.26 51.2035L21.7215 49.3305L20.9024 50.5686M50.6079 50.9113L48.4636 46.9631L66.2834 35.95L71.5628 45.4142C72.3855 47.408 72.527 49.6428 71.963 51.7351C71.399 53.8273 70.1647 55.6465 68.4719 56.8805C67.6722 57.4611 66.7133 57.757 65.7455 57.7982L45.8062 57.9181V53.7714L37.397 68.3056L45.5479 83.7277L45.6328 79.7457L55.8024 79.7607H56.3137C57.9945 79.6952 58.5872 78.0188 59.2153 76.8052L65.1174 65.4418" stroke="black" stroke-width="1.5" stroke-miterlimit="10" stroke-linecap="round" stroke-linejoin="round"/>
</svg>
