<svg width="32" height="32" viewBox="0 0 32 32" fill="none" xmlns="http://www.w3.org/2000/svg">
<path d="M16.1741 6.37334L13.4854 10.903L6.06818 6.33143L8.28815 2.48602C8.81438 1.78526 9.56164 1.29447 10.4017 1.09789C11.2417 0.901311 12.1222 1.01119 12.892 1.40866C13.2554 1.59686 13.5514 1.9001 13.7613 2.25821L16.1496 6.33372L16.1726 6.37181L16.1741 6.37334ZM23.5876 20.6799L21.0049 16.0855L28.4659 11.5887L30.6866 15.4333C31.033 16.2435 31.0941 17.1523 30.8596 18.0038C30.6251 18.8553 30.1095 19.5964 29.4012 20.1001C29.0667 20.337 28.6647 20.4582 28.259 20.4765L23.6321 20.6769L23.5876 20.6791V20.6799Z" fill="#990000" fill-opacity="0.83" stroke="#C54700" stroke-opacity="0.76" stroke-width="0.393593" stroke-miterlimit="10" stroke-linecap="round" stroke-linejoin="round"/>
<path d="M1.76562 19.7238L6.49632 28.6505L6.56307 28.7777C6.90278 29.4131 7.32185 29.388 7.8952 29.388H9.2125L13.6087 29.3728L13.4796 20.4888L10.8087 20.5109L3.45972 20.488H3.44711C3.44117 20.4857 2.24107 20.4911 2.23513 20.488L1.76562 19.7238ZM13.78 2.26287L17.9544 9.38378L16.5422 10.3377L23.1465 10.9076L26.8551 4.81226L25.3716 5.57418L23.1465 1.76458L23.0745 1.64039C22.7133 1.0179 22.243 1.00799 21.6949 1.00799L11.0379 1.00342C11.0379 1.00342 12.9686 0.868561 13.78 2.26287V2.26287Z" fill="#C54700" fill-opacity="0.76" stroke="#990000" stroke-opacity="0.83" stroke-width="0.393593" stroke-miterlimit="10" stroke-linecap="round" stroke-linejoin="round"/>
<path d="M11.2762 17.8806L9.76328 17.1023L9.41531 17.6159L7.6225 20.6746L3.30311 20.659H3.28799C3.28042 20.659 3.27286 20.659 3.27286 20.6513C1.65403 19.9119 0.473953 17.9506 1.23798 16.215L3.53005 12.3391L2.15329 11.3196L9.27158 11.8644L11.2762 17.8806V17.8806Z" fill="#990000" fill-opacity="0.83" stroke="#C54700" stroke-opacity="0.76" stroke-width="0.393593" stroke-miterlimit="10" stroke-linecap="round" stroke-linejoin="round"/>
<path d="M30.4057 19.0049L25.514 28.1791C25.2507 28.6729 25.0022 29.3555 24.2976 29.3815H24.0825L19.8198 29.3761L19.7842 30.9952L16.3671 24.7231L19.8933 18.8098V20.4967L24.8183 20.4678L29.2019 20.5729L30.4057 19.0049Z" fill="#C54700" fill-opacity="0.76" stroke="black" stroke-width="0.393593" stroke-miterlimit="10" stroke-linecap="round" stroke-linejoin="round"/>
<path d="M14.3726 9.36119L13.4344 10.9364L5.99415 6.37049L8.22176 2.52977C8.7496 1.83004 9.49905 1.33997 10.3415 1.14364C11.184 0.947301 12.0671 1.05693 12.8392 1.45373C13.2038 1.64169 13.5006 1.94456 13.7112 2.30223L17.8986 9.41446L16.4819 10.3672L23.1067 10.9364L26.8269 4.84851L25.3388 5.6095L23.1067 1.80454L23.0346 1.6805C22.6722 1.05877 22.2005 1.04888 21.6507 1.04888L16.374 1.04431M1.33209 16.1568C0.57765 17.8531 1.13716 19.7792 2.72788 20.5059C2.72788 20.5059 3.28441 20.5021 3.29111 20.5052H3.35882L10.7306 20.528L13.4098 20.5052L13.5393 29.3791L9.12947 29.3943H7.80809C7.2337 29.3943 6.81258 29.4194 6.47256 28.7848L6.4056 28.6577L3.68098 23.4951M1.33209 16.1568L3.58351 12.3641L2.23162 11.3717L9.23215 11.9014L11.2023 17.7854L9.71428 17.0244L9.36979 17.5274M21.862 17.6667L20.9602 16.0625L28.454 11.5879L30.6742 15.4331C31.0202 16.2433 31.0797 17.1513 30.8425 18.0014C30.6053 18.8514 30.0863 19.5906 29.3744 20.0919C29.0381 20.3278 28.6348 20.4481 28.2278 20.4648L19.8427 20.5135V18.8287L16.3063 24.734L19.7341 31L19.7698 29.3821L24.0464 29.3882H24.2615C24.9683 29.3616 25.2175 28.6805 25.4817 28.1874L27.9637 23.5704" stroke="black" stroke-width="0.59039" stroke-miterlimit="10" stroke-linecap="round" stroke-linejoin="round"/>
</svg>
