<svg width="116" height="62" viewBox="0 0 116 62" fill="none" xmlns="http://www.w3.org/2000/svg">
<path d="M54.0076 61.1053C54.0076 61.1053 89.686 36.6389 115.585 29.0959C103.994 17.0078 46.4011 4.91968 46.4011 4.91968L9.99823 30.2564L45.4955 60.9119C47.4877 62.2657 51.291 62.3624 54.0076 61.1053Z" fill="#949A9B" fill-opacity="0.65"/>
<path d="M46.9689 55.884C46.9689 55.884 116.324 30.1137 107.632 15.2499C88.2562 16.215 51.1338 2.1234 48.4176 0C37.5525 8.4936 14.7358 14.9603 4.41402 22.2957C0.249073 25.2878 -1.92394 27.4112 2.241 30.7893L45.8824 60.6134C43.7094 59.2621 44.4337 57.1387 46.9689 55.884" fill="#D0D0D0"/>
<path d="M85.4846 31.4239L34.1189 9.94197L35.5658 9.26462L87.2933 30.553L85.4846 31.4239ZM32.3102 30.2627L13.8619 19.9088C22.7243 14.4899 29.9589 11.974 29.9589 11.974L50.9393 21.3603L32.3102 30.2627ZM44.609 50.9704L4.99951 25.0373C6.0847 22.715 9.70201 21.6506 9.70201 21.6506L51.8437 47.4869L44.609 50.9704M55.6418 23.4891L49.3115 26.4888L72.2815 37.7136L79.5161 34.23L55.6418 23.4891ZM42.9813 29.5853L36.651 32.585L57.6314 44.6807L65.0468 41.1971L42.9813 29.5853ZM51.1202 4.32959L53.1097 5.00695L50.035 9.55491L56.9079 6.26489L58.8974 6.94225L48.9498 11.6837L46.9603 10.9096L50.035 6.26489L43.343 9.45815L41.7152 8.78079L51.1202 4.32959M67.0364 11.1999L61.2487 9.26462L59.0783 10.329L64.3234 12.1676L62.5147 13.0385L57.4505 11.1999L54.9184 12.4579L60.7061 14.6835L58.8974 15.5544L51.3011 12.5546L61.2487 7.81314L69.2067 10.5226L67.0364 11.1999M72.6432 11.4902L68.1216 14.9738L66.6746 15.9414L68.6642 15.2641L76.2605 12.7482L78.9735 13.7158L74.0901 17.2961L72.6432 18.2638L74.8136 17.5864L83.1334 15.0705L86.0272 16.0382L71.0154 20.1991L68.6642 19.2314L73.7284 15.5544L75.3562 14.3932L72.8241 15.2641L65.0468 17.78L62.8765 16.9091L70.2919 10.6193L72.6432 11.4902M81.5056 21.1667C81.1439 21.457 80.7821 21.7473 80.7821 21.9409C80.7821 22.3279 81.3247 22.8117 82.4099 23.1988C83.1334 23.4891 83.676 23.6826 84.3994 23.7794C85.4846 23.9729 86.389 23.8762 87.1124 23.5859C87.4742 23.3923 87.655 23.1988 87.4742 22.9085C87.2933 22.6182 86.7507 22.3279 86.0272 21.9409L84.7612 21.2635C83.4951 20.5861 82.9525 20.1023 82.5908 19.7153C82.2291 19.1347 82.5908 18.5541 83.676 17.9735C84.7612 17.4897 86.0272 17.1994 87.655 17.1994C89.2828 17.1994 90.9106 17.4897 92.9001 18.0703C94.5279 18.5541 95.4322 19.2314 95.9748 19.9088C96.5174 20.5861 95.9748 21.2635 94.8896 21.9409L91.8149 20.8764C92.5384 20.4894 92.5384 20.1023 92.1767 19.7153C91.8149 19.425 91.4532 19.2314 90.7297 18.9411C90.0063 18.6508 89.102 18.5541 88.3785 18.4573C87.655 18.4573 87.1124 18.5541 86.5698 18.7476C86.2081 18.9411 86.0272 19.1347 86.389 19.425C86.5698 19.6185 86.9316 19.9088 87.8359 20.2959L89.8254 21.457C90.7297 21.9409 91.2723 22.4247 91.4532 22.8117C91.8149 23.3923 91.4532 23.9729 90.368 24.4568C89.2828 25.0373 87.8359 25.2309 86.0272 25.2309C84.2186 25.2309 82.5908 24.8438 80.7821 24.0697C78.9735 23.3923 77.8883 22.6182 77.7074 21.9409C77.3457 21.2635 77.8883 20.5861 79.1543 20.0056L81.5056 21.1667" fill="#38817C" fill-opacity="0.65"/>
</svg>
