<svg width="23" height="32" viewBox="0 0 23 32" fill="none" xmlns="http://www.w3.org/2000/svg">
<path d="M11.3159 31.2912C14.1961 31.2912 16.531 31.071 16.531 30.7992C16.531 30.5275 14.1961 30.3073 11.3159 30.3073C8.43565 30.3073 6.10077 30.5275 6.10077 30.7992C6.10077 31.071 8.43565 31.2912 11.3159 31.2912Z" fill="#B3B3B3"/>
<path d="M8.26544 30.3073H14.5629" stroke="#241F1C" stroke-width="0.983984" stroke-linecap="round" stroke-linejoin="round"/>
<path d="M10.8694 30.1091L10.8242 13.3815L12.3117 13.3813L12.3986 30.0948L10.8694 30.1091Z" fill="#784421" stroke="#241F1C" stroke-width="0.983984" stroke-linecap="round" stroke-linejoin="round"/>
<path d="M20.111 9.76139C21.0396 10.8378 20.9301 14.4376 20.9392 15.9707C20.9483 17.5037 21.1006 21.1014 20.1849 22.193C19.2693 23.2846 16.2072 23.1559 14.9032 23.1667C13.5991 23.1774 10.5389 23.3564 9.61037 22.2799C8.68183 21.2035 8.79127 17.6036 8.78216 16.0706C8.77304 14.5375 8.62081 10.9399 9.53646 9.84828C10.4521 8.75668 13.5142 8.88536 14.8182 8.87464C16.1222 8.86392 19.1825 8.68494 20.111 9.76139Z" fill="#2C38A0" stroke="#241F1C" stroke-width="0.983984" stroke-linecap="round" stroke-linejoin="round"/>
<path d="M16.1904 2.64628C17.1189 3.72273 17.0095 7.32253 17.0186 8.85558C17.0277 10.3886 17.18 13.9863 16.2643 15.0779C15.3487 16.1695 12.2866 16.0408 10.9826 16.0515C9.67852 16.0623 6.61829 16.2413 5.68975 15.1648C4.76121 14.0883 4.87065 10.4885 4.86153 8.95548C4.85242 7.42243 4.70018 3.82478 5.61583 2.73317C6.53148 1.64157 9.59354 1.77024 10.8976 1.75953C12.2016 1.74881 15.2619 1.56982 16.1904 2.64628Z" fill="#378BC8" stroke="#241F1C" stroke-width="0.983984" stroke-linecap="round" stroke-linejoin="round"/>
<path d="M12.8255 9.76139C13.7541 10.8378 13.6446 14.4376 13.6537 15.9707C13.6629 17.5037 13.8151 21.1014 12.8994 22.193C11.9838 23.2846 8.92173 23.1559 7.61769 23.1667C6.31365 23.1774 3.25342 23.3564 2.32488 22.2799C1.39634 21.2035 1.50578 17.6036 1.49667 16.0706C1.48755 14.5375 1.33531 10.9399 2.25097 9.84828C3.16662 8.75668 6.22867 8.88536 7.53272 8.87464C8.83676 8.86392 11.897 8.68494 12.8255 9.76139Z" fill="#5FBED3" stroke="#241F1C" stroke-width="0.983984" stroke-linecap="round" stroke-linejoin="round"/>
</svg>
